G04 EAGLE Gerber RS-274X export*
G75*
%MOMM*%
%FSLAX34Y34*%
%LPD*%
%INBottom Copper*%
%IPPOS*%
%AMOC8*
5,1,8,0,0,1.08239X$1,22.5*%
G01*
%ADD10R,1.399997X0.400000*%
%ADD11P,1.649562X8X112.500000*%
%ADD12R,1.100000X1.000000*%
%ADD13R,1.000000X1.100000*%
%ADD14R,1.300000X1.500000*%
%ADD15R,1.500000X1.300000*%
%ADD16C,1.524000*%
%ADD17R,0.550000X0.300000*%
%ADD18R,0.300000X0.550000*%
%ADD19R,5.600000X5.600000*%
%ADD20R,0.250000X0.500000*%
%ADD21R,1.600000X0.900000*%
%ADD22C,1.000000*%
%ADD23C,1.981200*%
%ADD24C,0.304800*%
%ADD25C,0.406400*%
%ADD26C,0.756400*%
%ADD27C,0.812800*%
%ADD28C,0.254000*%
%ADD29C,0.609600*%

G36*
X62770Y61629D02*
X62770Y61629D01*
X62788Y61628D01*
X62970Y61651D01*
X63153Y61670D01*
X63170Y61676D01*
X63187Y61678D01*
X63361Y61736D01*
X63536Y61792D01*
X63552Y61801D01*
X63569Y61806D01*
X63728Y61898D01*
X63889Y61987D01*
X63902Y61998D01*
X63918Y62007D01*
X64171Y62222D01*
X83288Y81339D01*
X83305Y81360D01*
X83325Y81377D01*
X83432Y81515D01*
X83543Y81650D01*
X83555Y81674D01*
X83572Y81695D01*
X83650Y81852D01*
X83732Y82006D01*
X83739Y82032D01*
X83751Y82056D01*
X83797Y82225D01*
X83846Y82392D01*
X83849Y82419D01*
X83856Y82445D01*
X83883Y82775D01*
X83883Y98258D01*
X113450Y127826D01*
X113467Y127846D01*
X113488Y127864D01*
X113595Y128002D01*
X113705Y128137D01*
X113718Y128161D01*
X113734Y128182D01*
X113812Y128339D01*
X113894Y128493D01*
X113902Y128518D01*
X113914Y128543D01*
X113959Y128712D01*
X114009Y128879D01*
X114011Y128905D01*
X114018Y128931D01*
X114045Y129262D01*
X114045Y144018D01*
X114043Y144036D01*
X114045Y144054D01*
X114024Y144236D01*
X114005Y144419D01*
X114000Y144436D01*
X113998Y144453D01*
X113941Y144628D01*
X113887Y144804D01*
X113879Y144819D01*
X113873Y144836D01*
X113783Y144996D01*
X113695Y145158D01*
X113684Y145171D01*
X113675Y145187D01*
X113555Y145326D01*
X113438Y145467D01*
X113424Y145478D01*
X113412Y145492D01*
X113267Y145604D01*
X113124Y145719D01*
X113108Y145727D01*
X113094Y145738D01*
X112929Y145820D01*
X112767Y145905D01*
X112750Y145910D01*
X112734Y145918D01*
X112555Y145965D01*
X112380Y146016D01*
X112362Y146018D01*
X112345Y146022D01*
X112014Y146049D01*
X110354Y146049D01*
X104774Y151629D01*
X104774Y159521D01*
X107187Y161933D01*
X107198Y161947D01*
X107212Y161958D01*
X107325Y162103D01*
X107442Y162245D01*
X107450Y162260D01*
X107461Y162274D01*
X107544Y162438D01*
X107630Y162600D01*
X107635Y162617D01*
X107644Y162633D01*
X107693Y162810D01*
X107745Y162986D01*
X107747Y163004D01*
X107752Y163021D01*
X107765Y163203D01*
X107782Y163387D01*
X107780Y163405D01*
X107781Y163423D01*
X107758Y163605D01*
X107738Y163787D01*
X107733Y163805D01*
X107731Y163822D01*
X107672Y163995D01*
X107617Y164171D01*
X107608Y164187D01*
X107602Y164204D01*
X107511Y164363D01*
X107422Y164524D01*
X107410Y164537D01*
X107401Y164553D01*
X107394Y164561D01*
X107394Y177177D01*
X108511Y178293D01*
X120089Y178293D01*
X121206Y177177D01*
X121206Y164552D01*
X121158Y164494D01*
X121150Y164478D01*
X121139Y164464D01*
X121055Y164300D01*
X120970Y164139D01*
X120965Y164122D01*
X120956Y164105D01*
X120907Y163928D01*
X120855Y163753D01*
X120853Y163735D01*
X120848Y163718D01*
X120835Y163534D01*
X120818Y163352D01*
X120820Y163334D01*
X120819Y163316D01*
X120842Y163134D01*
X120862Y162951D01*
X120867Y162934D01*
X120869Y162917D01*
X120928Y162743D01*
X120983Y162568D01*
X120992Y162552D01*
X120998Y162535D01*
X121089Y162377D01*
X121178Y162215D01*
X121190Y162202D01*
X121199Y162186D01*
X121413Y161933D01*
X123826Y159521D01*
X123826Y151629D01*
X121500Y149303D01*
X121483Y149283D01*
X121462Y149265D01*
X121355Y149127D01*
X121245Y148992D01*
X121232Y148968D01*
X121216Y148947D01*
X121138Y148790D01*
X121056Y148636D01*
X121048Y148611D01*
X121036Y148586D01*
X120991Y148417D01*
X120941Y148250D01*
X120939Y148224D01*
X120932Y148198D01*
X120905Y147867D01*
X120905Y132246D01*
X120906Y132238D01*
X120905Y132229D01*
X120926Y132035D01*
X120945Y131846D01*
X120947Y131837D01*
X120948Y131828D01*
X121006Y131645D01*
X121063Y131461D01*
X121067Y131453D01*
X121070Y131445D01*
X121162Y131277D01*
X121255Y131107D01*
X121260Y131100D01*
X121265Y131092D01*
X121389Y130945D01*
X121512Y130798D01*
X121519Y130792D01*
X121525Y130785D01*
X121677Y130665D01*
X121826Y130545D01*
X121834Y130541D01*
X121841Y130536D01*
X122014Y130448D01*
X122183Y130360D01*
X122192Y130357D01*
X122200Y130353D01*
X122386Y130301D01*
X122570Y130248D01*
X122579Y130248D01*
X122588Y130245D01*
X122781Y130231D01*
X122972Y130216D01*
X122980Y130217D01*
X122989Y130216D01*
X123182Y130240D01*
X123371Y130262D01*
X123380Y130265D01*
X123389Y130266D01*
X123572Y130328D01*
X123754Y130387D01*
X123762Y130392D01*
X123770Y130395D01*
X123937Y130491D01*
X124105Y130585D01*
X124112Y130591D01*
X124119Y130595D01*
X124372Y130810D01*
X138741Y145179D01*
X138758Y145200D01*
X138779Y145218D01*
X138886Y145355D01*
X138997Y145491D01*
X139009Y145515D01*
X139025Y145536D01*
X139104Y145693D01*
X139185Y145847D01*
X139193Y145872D01*
X139205Y145896D01*
X139250Y146066D01*
X139300Y146232D01*
X139302Y146259D01*
X139309Y146285D01*
X139336Y146616D01*
X139336Y181255D01*
X139334Y181282D01*
X139336Y181308D01*
X139314Y181482D01*
X139297Y181656D01*
X139289Y181681D01*
X139285Y181708D01*
X139230Y181873D01*
X139178Y182041D01*
X139166Y182064D01*
X139157Y182089D01*
X139070Y182241D01*
X138987Y182395D01*
X138970Y182415D01*
X138956Y182438D01*
X138741Y182691D01*
X136261Y185172D01*
X136240Y185189D01*
X136223Y185209D01*
X136085Y185316D01*
X135949Y185427D01*
X135926Y185439D01*
X135905Y185456D01*
X135748Y185534D01*
X135594Y185616D01*
X135568Y185623D01*
X135544Y185635D01*
X135375Y185681D01*
X135208Y185730D01*
X135181Y185733D01*
X135155Y185740D01*
X134825Y185767D01*
X133697Y185767D01*
X131607Y186633D01*
X130007Y188233D01*
X129141Y190323D01*
X129141Y192586D01*
X129576Y193635D01*
X129594Y193695D01*
X129620Y193753D01*
X129652Y193888D01*
X129692Y194021D01*
X129698Y194083D01*
X129712Y194144D01*
X129717Y194283D01*
X129730Y194421D01*
X129724Y194484D01*
X129726Y194547D01*
X129703Y194684D01*
X129689Y194822D01*
X129670Y194882D01*
X129660Y194944D01*
X129610Y195074D01*
X129569Y195206D01*
X129539Y195261D01*
X129516Y195320D01*
X129442Y195438D01*
X129375Y195559D01*
X129335Y195608D01*
X129301Y195661D01*
X129206Y195761D01*
X129116Y195868D01*
X129067Y195907D01*
X129024Y195952D01*
X128910Y196032D01*
X128802Y196119D01*
X128745Y196147D01*
X128694Y196183D01*
X128567Y196239D01*
X128443Y196303D01*
X128383Y196320D01*
X128325Y196345D01*
X128137Y196389D01*
X128056Y196412D01*
X128032Y196414D01*
X128002Y196421D01*
X127842Y196445D01*
X127775Y196449D01*
X127539Y196468D01*
X126771Y196468D01*
X126761Y196475D01*
X126647Y196526D01*
X126536Y196584D01*
X126463Y196606D01*
X126393Y196637D01*
X126234Y196674D01*
X126150Y196699D01*
X126114Y196702D01*
X126070Y196713D01*
X124965Y196880D01*
X124888Y196884D01*
X124813Y196897D01*
X124687Y196894D01*
X124562Y196900D01*
X124487Y196889D01*
X124410Y196887D01*
X124288Y196859D01*
X124230Y196851D01*
X123488Y197080D01*
X123422Y197093D01*
X123192Y197148D01*
X122433Y197262D01*
X122424Y197271D01*
X122318Y197337D01*
X122217Y197412D01*
X122148Y197445D01*
X122083Y197485D01*
X121932Y197546D01*
X121853Y197583D01*
X121818Y197592D01*
X121775Y197609D01*
X120707Y197939D01*
X120632Y197954D01*
X120560Y197978D01*
X120436Y197994D01*
X120313Y198019D01*
X120236Y198019D01*
X120160Y198028D01*
X120036Y198019D01*
X119977Y198019D01*
X119277Y198357D01*
X119213Y198380D01*
X118995Y198468D01*
X118261Y198694D01*
X118253Y198704D01*
X118159Y198786D01*
X118070Y198874D01*
X118007Y198917D01*
X117949Y198967D01*
X117808Y199049D01*
X117735Y199098D01*
X117702Y199112D01*
X117663Y199135D01*
X116656Y199620D01*
X116584Y199646D01*
X116516Y199681D01*
X116395Y199715D01*
X116277Y199758D01*
X116202Y199770D01*
X116128Y199790D01*
X116003Y199800D01*
X115945Y199809D01*
X115304Y200246D01*
X115245Y200279D01*
X115178Y200318D01*
X115177Y200319D01*
X115174Y200320D01*
X115041Y200398D01*
X114349Y200732D01*
X114343Y200742D01*
X114262Y200837D01*
X114187Y200938D01*
X114131Y200990D01*
X114081Y201048D01*
X113954Y201151D01*
X113890Y201209D01*
X113859Y201228D01*
X113823Y201257D01*
X112900Y201887D01*
X112833Y201923D01*
X112771Y201968D01*
X112657Y202019D01*
X112546Y202079D01*
X112473Y202102D01*
X112404Y202134D01*
X112282Y202162D01*
X112226Y202179D01*
X111656Y202708D01*
X111603Y202748D01*
X111419Y202897D01*
X110785Y203330D01*
X110780Y203341D01*
X110714Y203447D01*
X110656Y203558D01*
X110607Y203617D01*
X110567Y203682D01*
X110457Y203803D01*
X110401Y203870D01*
X110374Y203893D01*
X110343Y203927D01*
X109524Y204688D01*
X109463Y204734D01*
X109408Y204787D01*
X109303Y204855D01*
X109203Y204931D01*
X109134Y204964D01*
X109070Y205006D01*
X108953Y205052D01*
X108901Y205077D01*
X108417Y205685D01*
X108370Y205733D01*
X108210Y205907D01*
X107647Y206430D01*
X107645Y206442D01*
X107595Y206557D01*
X107554Y206675D01*
X107515Y206741D01*
X107484Y206811D01*
X107393Y206946D01*
X107349Y207022D01*
X107325Y207048D01*
X107299Y207086D01*
X106603Y207960D01*
X106549Y208015D01*
X106503Y208076D01*
X106409Y208159D01*
X106322Y208249D01*
X106259Y208292D01*
X106201Y208343D01*
X106093Y208405D01*
X106045Y208439D01*
X105657Y209111D01*
X105618Y209165D01*
X105486Y209362D01*
X105007Y209963D01*
X105006Y209975D01*
X104974Y210096D01*
X104951Y210219D01*
X104922Y210290D01*
X104903Y210364D01*
X104833Y210512D01*
X104800Y210592D01*
X104781Y210622D01*
X104761Y210664D01*
X104202Y211632D01*
X104158Y211694D01*
X104121Y211762D01*
X104040Y211858D01*
X103968Y211959D01*
X103912Y212011D01*
X103862Y212070D01*
X103764Y212148D01*
X103722Y212188D01*
X103438Y212911D01*
X103408Y212971D01*
X103307Y213185D01*
X102923Y213850D01*
X102924Y213862D01*
X102910Y213987D01*
X102906Y214112D01*
X102888Y214186D01*
X102879Y214262D01*
X102832Y214419D01*
X102812Y214503D01*
X102797Y214536D01*
X102784Y214580D01*
X102376Y215620D01*
X102363Y215647D01*
X102356Y215667D01*
X102336Y215701D01*
X102315Y215761D01*
X102250Y215868D01*
X102193Y215979D01*
X102145Y216039D01*
X102105Y216104D01*
X102020Y216196D01*
X101984Y216242D01*
X101811Y216999D01*
X101790Y217063D01*
X101722Y217289D01*
X101441Y218004D01*
X101444Y218016D01*
X101449Y218141D01*
X101463Y218266D01*
X101457Y218342D01*
X101460Y218418D01*
X101437Y218580D01*
X101429Y218667D01*
X101419Y218701D01*
X101413Y218747D01*
X101164Y219837D01*
X101140Y219909D01*
X101125Y219984D01*
X101076Y220100D01*
X101036Y220218D01*
X100998Y220285D01*
X100969Y220355D01*
X100898Y220459D01*
X100869Y220510D01*
X100811Y221284D01*
X100799Y221350D01*
X100766Y221584D01*
X100595Y222333D01*
X100600Y222344D01*
X100623Y222467D01*
X100656Y222588D01*
X100661Y222665D01*
X100675Y222740D01*
X100677Y222903D01*
X100682Y222990D01*
X100677Y223026D01*
X100678Y223072D01*
X100595Y224186D01*
X100581Y224262D01*
X100578Y224338D01*
X100547Y224459D01*
X100525Y224583D01*
X100497Y224654D01*
X100478Y224728D01*
X100424Y224841D01*
X100403Y224896D01*
X100461Y225670D01*
X100460Y225738D01*
X100461Y225974D01*
X100404Y226740D01*
X100410Y226750D01*
X100452Y226868D01*
X100502Y226983D01*
X100518Y227058D01*
X100544Y227130D01*
X100569Y227291D01*
X100588Y227376D01*
X100588Y227412D01*
X100596Y227458D01*
X100680Y228572D01*
X100678Y228649D01*
X100685Y228725D01*
X100673Y228849D01*
X100670Y228975D01*
X100653Y229049D01*
X100645Y229125D01*
X100609Y229245D01*
X100596Y229302D01*
X100769Y230059D01*
X100777Y230126D01*
X100814Y230360D01*
X100872Y231125D01*
X100879Y231135D01*
X100938Y231245D01*
X101005Y231351D01*
X101032Y231423D01*
X101068Y231490D01*
X101117Y231646D01*
X101148Y231728D01*
X101154Y231763D01*
X101168Y231807D01*
X101417Y232896D01*
X101427Y232972D01*
X101446Y233046D01*
X101452Y233171D01*
X101468Y233296D01*
X101462Y233372D01*
X101466Y233449D01*
X101447Y233573D01*
X101443Y233631D01*
X101727Y234354D01*
X101745Y234419D01*
X101817Y234644D01*
X101988Y235392D01*
X101997Y235401D01*
X102071Y235501D01*
X102153Y235596D01*
X102191Y235663D01*
X102236Y235724D01*
X102308Y235871D01*
X102351Y235947D01*
X102362Y235981D01*
X102382Y236022D01*
X102791Y237062D01*
X102812Y237136D01*
X102842Y237207D01*
X102866Y237329D01*
X102900Y237450D01*
X102906Y237526D01*
X102922Y237601D01*
X102922Y237727D01*
X102926Y237785D01*
X103315Y238457D01*
X103342Y238518D01*
X103447Y238731D01*
X103727Y239446D01*
X103738Y239452D01*
X103826Y239541D01*
X103921Y239622D01*
X103968Y239683D01*
X104023Y239737D01*
X104115Y239871D01*
X104169Y239939D01*
X104185Y239971D01*
X104212Y240009D01*
X104771Y240977D01*
X104802Y241047D01*
X104842Y241112D01*
X104885Y241230D01*
X104936Y241344D01*
X104954Y241419D01*
X104980Y241490D01*
X104999Y241614D01*
X105012Y241671D01*
X105496Y242278D01*
X105533Y242335D01*
X105667Y242529D01*
X106051Y243194D01*
X106063Y243199D01*
X106164Y243273D01*
X106270Y243340D01*
X106325Y243392D01*
X106387Y243438D01*
X106499Y243557D01*
X106562Y243617D01*
X106583Y243646D01*
X106614Y243679D01*
X107311Y244553D01*
X107353Y244617D01*
X107402Y244676D01*
X107462Y244786D01*
X107530Y244891D01*
X107558Y244962D01*
X107595Y245029D01*
X107632Y245149D01*
X107653Y245204D01*
X108223Y245732D01*
X108267Y245782D01*
X108430Y245954D01*
X108908Y246554D01*
X108920Y246558D01*
X109031Y246616D01*
X109146Y246666D01*
X109209Y246710D01*
X109276Y246745D01*
X109405Y246846D01*
X109476Y246896D01*
X109501Y246922D01*
X109537Y246950D01*
X110357Y247710D01*
X110407Y247768D01*
X110465Y247818D01*
X110541Y247918D01*
X110624Y248012D01*
X110662Y248078D01*
X110708Y248139D01*
X110763Y248252D01*
X110792Y248303D01*
X111434Y248740D01*
X111486Y248783D01*
X111671Y248929D01*
X112234Y249451D01*
X112246Y249453D01*
X112365Y249494D01*
X112486Y249526D01*
X112554Y249560D01*
X112626Y249585D01*
X112769Y249666D01*
X112847Y249705D01*
X112875Y249726D01*
X112915Y249749D01*
X113003Y249809D01*
X113113Y249901D01*
X113229Y249987D01*
X113268Y250031D01*
X113312Y250068D01*
X113402Y250180D01*
X113498Y250287D01*
X113527Y250337D01*
X113563Y250382D01*
X113629Y250510D01*
X113703Y250634D01*
X113722Y250688D01*
X113748Y250740D01*
X113788Y250878D01*
X113835Y251014D01*
X113843Y251071D01*
X113859Y251127D01*
X113870Y251271D01*
X113890Y251413D01*
X113886Y251471D01*
X113891Y251528D01*
X113873Y251671D01*
X113865Y251815D01*
X113850Y251871D01*
X113843Y251928D01*
X113798Y252065D01*
X113761Y252204D01*
X113733Y252263D01*
X113717Y252310D01*
X113676Y252383D01*
X113619Y252504D01*
X95686Y283565D01*
X96314Y283861D01*
X96336Y283878D01*
X96363Y283888D01*
X96415Y283937D01*
X96473Y283980D01*
X96487Y284005D01*
X96508Y284025D01*
X96537Y284090D01*
X96573Y284152D01*
X96576Y284181D01*
X96588Y284207D01*
X96589Y284279D01*
X96598Y284349D01*
X96590Y284377D01*
X96591Y284406D01*
X96555Y284500D01*
X96544Y284541D01*
X96537Y284549D01*
X96533Y284562D01*
X87033Y301062D01*
X86981Y301120D01*
X86935Y301183D01*
X86916Y301194D01*
X86901Y301211D01*
X86831Y301244D01*
X86764Y301284D01*
X86740Y301288D01*
X86722Y301297D01*
X86677Y301299D01*
X86600Y301312D01*
X67600Y301312D01*
X67572Y301306D01*
X67544Y301309D01*
X67476Y301286D01*
X67405Y301272D01*
X67382Y301256D01*
X67355Y301247D01*
X67300Y301200D01*
X67241Y301160D01*
X67226Y301136D01*
X67205Y301117D01*
X67173Y301053D01*
X67134Y300992D01*
X67129Y300964D01*
X67117Y300939D01*
X67108Y300837D01*
X67101Y300796D01*
X67103Y300786D01*
X67102Y300773D01*
X67159Y300058D01*
X-67159Y300058D01*
X-67102Y300773D01*
X-67106Y300801D01*
X-67101Y300829D01*
X-67118Y300899D01*
X-67126Y300970D01*
X-67141Y300995D01*
X-67147Y301022D01*
X-67190Y301080D01*
X-67226Y301143D01*
X-67248Y301160D01*
X-67265Y301183D01*
X-67327Y301219D01*
X-67384Y301263D01*
X-67412Y301270D01*
X-67436Y301284D01*
X-67536Y301301D01*
X-67577Y301311D01*
X-67587Y301310D01*
X-67600Y301312D01*
X-86600Y301312D01*
X-86676Y301296D01*
X-86754Y301288D01*
X-86773Y301277D01*
X-86795Y301272D01*
X-86859Y301228D01*
X-86927Y301190D01*
X-86943Y301171D01*
X-86959Y301160D01*
X-86983Y301122D01*
X-87033Y301062D01*
X-96533Y284562D01*
X-96542Y284534D01*
X-96558Y284511D01*
X-96573Y284441D01*
X-96596Y284373D01*
X-96593Y284345D01*
X-96599Y284316D01*
X-96586Y284246D01*
X-96580Y284175D01*
X-96567Y284149D01*
X-96561Y284121D01*
X-96521Y284062D01*
X-96488Y283998D01*
X-96466Y283980D01*
X-96450Y283956D01*
X-96367Y283899D01*
X-96335Y283872D01*
X-96324Y283869D01*
X-96314Y283861D01*
X-95686Y283565D01*
X-113619Y252504D01*
X-113678Y252373D01*
X-113745Y252245D01*
X-113761Y252189D01*
X-113785Y252137D01*
X-113817Y251997D01*
X-113857Y251858D01*
X-113862Y251801D01*
X-113875Y251744D01*
X-113879Y251600D01*
X-113891Y251457D01*
X-113884Y251400D01*
X-113886Y251342D01*
X-113861Y251200D01*
X-113845Y251057D01*
X-113827Y251002D01*
X-113817Y250945D01*
X-113765Y250811D01*
X-113721Y250674D01*
X-113692Y250624D01*
X-113672Y250570D01*
X-113594Y250449D01*
X-113524Y250323D01*
X-113486Y250279D01*
X-113455Y250230D01*
X-113355Y250127D01*
X-113261Y250018D01*
X-113210Y249976D01*
X-113175Y249940D01*
X-113107Y249893D01*
X-113003Y249809D01*
X-112915Y249749D01*
X-112848Y249713D01*
X-112786Y249668D01*
X-112672Y249617D01*
X-112561Y249557D01*
X-112488Y249534D01*
X-112419Y249503D01*
X-112297Y249475D01*
X-112241Y249457D01*
X-111671Y248929D01*
X-111618Y248888D01*
X-111434Y248740D01*
X-110799Y248308D01*
X-110795Y248296D01*
X-110728Y248190D01*
X-110670Y248079D01*
X-110622Y248020D01*
X-110581Y247955D01*
X-110471Y247835D01*
X-110416Y247767D01*
X-110388Y247744D01*
X-110357Y247710D01*
X-109537Y246950D01*
X-109476Y246904D01*
X-109421Y246851D01*
X-109316Y246783D01*
X-109216Y246707D01*
X-109148Y246674D01*
X-109083Y246633D01*
X-108967Y246587D01*
X-108914Y246561D01*
X-108430Y245954D01*
X-108383Y245906D01*
X-108223Y245732D01*
X-107660Y245210D01*
X-107657Y245198D01*
X-107607Y245083D01*
X-107566Y244964D01*
X-107527Y244899D01*
X-107497Y244828D01*
X-107405Y244693D01*
X-107361Y244618D01*
X-107337Y244591D01*
X-107311Y244553D01*
X-106614Y243679D01*
X-106561Y243625D01*
X-106515Y243564D01*
X-106421Y243481D01*
X-106333Y243391D01*
X-106270Y243348D01*
X-106213Y243298D01*
X-106104Y243235D01*
X-106056Y243202D01*
X-105667Y242529D01*
X-105628Y242474D01*
X-105496Y242278D01*
X-105017Y241678D01*
X-105017Y241666D01*
X-104984Y241545D01*
X-104961Y241422D01*
X-104932Y241351D01*
X-104913Y241277D01*
X-104843Y241129D01*
X-104810Y241049D01*
X-104790Y241019D01*
X-104771Y240977D01*
X-104211Y240009D01*
X-104167Y239947D01*
X-104130Y239880D01*
X-104050Y239784D01*
X-103976Y239682D01*
X-103920Y239630D01*
X-103871Y239572D01*
X-103773Y239494D01*
X-103731Y239454D01*
X-103447Y238731D01*
X-103416Y238671D01*
X-103315Y238457D01*
X-102931Y237792D01*
X-102932Y237780D01*
X-102918Y237656D01*
X-102913Y237531D01*
X-102895Y237456D01*
X-102887Y237380D01*
X-102840Y237224D01*
X-102819Y237139D01*
X-102804Y237106D01*
X-102791Y237062D01*
X-102382Y236022D01*
X-102348Y235954D01*
X-102321Y235882D01*
X-102256Y235775D01*
X-102199Y235664D01*
X-102151Y235604D01*
X-102111Y235539D01*
X-102026Y235447D01*
X-101990Y235401D01*
X-101817Y234644D01*
X-101795Y234580D01*
X-101727Y234354D01*
X-101446Y233639D01*
X-101449Y233627D01*
X-101454Y233502D01*
X-101468Y233378D01*
X-101462Y233301D01*
X-101464Y233225D01*
X-101441Y233064D01*
X-101434Y232976D01*
X-101424Y232942D01*
X-101417Y232896D01*
X-101168Y231807D01*
X-101144Y231734D01*
X-101129Y231659D01*
X-101080Y231544D01*
X-101040Y231425D01*
X-101002Y231359D01*
X-100972Y231288D01*
X-100902Y231185D01*
X-100872Y231134D01*
X-100814Y230360D01*
X-100802Y230293D01*
X-100769Y230059D01*
X-100598Y229311D01*
X-100602Y229299D01*
X-100626Y229176D01*
X-100658Y229055D01*
X-100663Y228979D01*
X-100677Y228904D01*
X-100678Y228740D01*
X-100684Y228654D01*
X-100679Y228618D01*
X-100680Y228572D01*
X-100596Y227458D01*
X-100582Y227382D01*
X-100578Y227306D01*
X-100547Y227184D01*
X-100526Y227061D01*
X-100498Y226990D01*
X-100479Y226916D01*
X-100425Y226803D01*
X-100403Y226748D01*
X-100461Y225974D01*
X-100460Y225906D01*
X-100461Y225670D01*
X-100403Y224904D01*
X-100410Y224894D01*
X-100451Y224776D01*
X-100501Y224661D01*
X-100518Y224586D01*
X-100543Y224514D01*
X-100568Y224353D01*
X-100587Y224268D01*
X-100587Y224232D01*
X-100595Y224186D01*
X-100678Y223072D01*
X-100676Y222995D01*
X-100683Y222919D01*
X-100671Y222794D01*
X-100668Y222669D01*
X-100651Y222595D01*
X-100643Y222518D01*
X-100606Y222399D01*
X-100593Y222342D01*
X-100766Y221584D01*
X-100774Y221518D01*
X-100811Y221284D01*
X-100868Y220518D01*
X-100876Y220509D01*
X-100935Y220398D01*
X-101001Y220292D01*
X-101029Y220221D01*
X-101064Y220153D01*
X-101113Y219998D01*
X-101145Y219916D01*
X-101150Y219880D01*
X-101164Y219837D01*
X-101413Y218747D01*
X-101422Y218671D01*
X-101441Y218597D01*
X-101447Y218472D01*
X-101463Y218347D01*
X-101457Y218271D01*
X-101461Y218195D01*
X-101442Y218071D01*
X-101438Y218012D01*
X-101722Y217289D01*
X-101740Y217225D01*
X-101811Y216999D01*
X-101982Y216250D01*
X-101991Y216242D01*
X-102065Y216142D01*
X-102147Y216047D01*
X-102184Y215980D01*
X-102230Y215918D01*
X-102302Y215772D01*
X-102345Y215696D01*
X-102356Y215662D01*
X-102376Y215620D01*
X-102784Y214580D01*
X-102805Y214506D01*
X-102834Y214436D01*
X-102859Y214313D01*
X-102893Y214192D01*
X-102899Y214116D01*
X-102914Y214041D01*
X-102914Y213916D01*
X-102918Y213858D01*
X-103307Y213185D01*
X-103334Y213123D01*
X-103438Y212911D01*
X-103719Y212196D01*
X-103729Y212190D01*
X-103817Y212101D01*
X-103912Y212019D01*
X-103960Y211959D01*
X-104014Y211905D01*
X-104106Y211771D01*
X-104160Y211702D01*
X-104176Y211670D01*
X-104202Y211632D01*
X-104761Y210664D01*
X-104792Y210594D01*
X-104832Y210529D01*
X-104875Y210411D01*
X-104927Y210297D01*
X-104944Y210222D01*
X-104970Y210151D01*
X-104989Y210027D01*
X-105002Y209970D01*
X-105320Y209570D01*
X-105375Y209485D01*
X-105438Y209407D01*
X-105484Y209317D01*
X-105538Y209232D01*
X-105575Y209138D01*
X-105621Y209049D01*
X-105649Y208951D01*
X-105686Y208857D01*
X-105704Y208758D01*
X-105731Y208661D01*
X-105739Y208561D01*
X-105757Y208461D01*
X-105754Y208360D01*
X-105762Y208260D01*
X-105750Y208160D01*
X-105748Y208059D01*
X-105726Y207960D01*
X-105714Y207860D01*
X-105682Y207764D01*
X-105660Y207666D01*
X-105619Y207574D01*
X-105587Y207478D01*
X-105537Y207390D01*
X-105496Y207298D01*
X-105438Y207216D01*
X-105388Y207128D01*
X-105321Y207052D01*
X-105263Y206970D01*
X-105189Y206901D01*
X-105123Y206825D01*
X-105043Y206763D01*
X-104970Y206694D01*
X-104884Y206641D01*
X-104804Y206579D01*
X-104695Y206523D01*
X-104628Y206481D01*
X-104575Y206462D01*
X-104509Y206428D01*
X-103546Y206029D01*
X-101946Y204429D01*
X-101080Y202338D01*
X-101080Y201211D01*
X-101078Y201184D01*
X-101080Y201158D01*
X-101058Y200984D01*
X-101040Y200810D01*
X-101033Y200785D01*
X-101029Y200758D01*
X-100974Y200593D01*
X-100922Y200425D01*
X-100909Y200402D01*
X-100901Y200377D01*
X-100814Y200225D01*
X-100730Y200071D01*
X-100713Y200051D01*
X-100700Y200028D01*
X-100485Y199775D01*
X-97192Y196482D01*
X-97192Y143143D01*
X-97190Y143116D01*
X-97192Y143090D01*
X-97170Y142916D01*
X-97152Y142742D01*
X-97145Y142717D01*
X-97141Y142690D01*
X-97086Y142525D01*
X-97034Y142357D01*
X-97021Y142334D01*
X-97013Y142309D01*
X-96926Y142157D01*
X-96842Y142003D01*
X-96825Y141983D01*
X-96812Y141960D01*
X-96597Y141707D01*
X-91898Y137008D01*
X-91891Y137002D01*
X-91886Y136995D01*
X-91736Y136875D01*
X-91587Y136753D01*
X-91579Y136748D01*
X-91572Y136743D01*
X-91402Y136654D01*
X-91231Y136564D01*
X-91222Y136561D01*
X-91215Y136557D01*
X-91030Y136504D01*
X-90845Y136449D01*
X-90836Y136448D01*
X-90828Y136446D01*
X-90636Y136430D01*
X-90444Y136413D01*
X-90435Y136414D01*
X-90426Y136413D01*
X-90237Y136435D01*
X-90044Y136456D01*
X-90035Y136459D01*
X-90027Y136460D01*
X-89845Y136519D01*
X-89660Y136578D01*
X-89652Y136582D01*
X-89644Y136585D01*
X-89475Y136680D01*
X-89308Y136773D01*
X-89301Y136778D01*
X-89293Y136783D01*
X-89148Y136908D01*
X-89001Y137033D01*
X-88995Y137040D01*
X-88988Y137046D01*
X-88871Y137197D01*
X-88751Y137349D01*
X-88747Y137357D01*
X-88742Y137364D01*
X-88656Y137536D01*
X-88569Y137708D01*
X-88566Y137716D01*
X-88562Y137724D01*
X-88512Y137910D01*
X-88461Y138096D01*
X-88460Y138105D01*
X-88458Y138113D01*
X-88431Y138444D01*
X-88431Y145989D01*
X-87295Y147125D01*
X-87276Y147127D01*
X-87093Y147146D01*
X-87076Y147151D01*
X-87059Y147153D01*
X-86884Y147210D01*
X-86708Y147264D01*
X-86693Y147272D01*
X-86676Y147278D01*
X-86516Y147368D01*
X-86354Y147456D01*
X-86341Y147467D01*
X-86325Y147476D01*
X-86186Y147596D01*
X-86045Y147713D01*
X-86034Y147727D01*
X-86020Y147739D01*
X-85908Y147884D01*
X-85793Y148027D01*
X-85785Y148043D01*
X-85774Y148057D01*
X-85692Y148222D01*
X-85607Y148384D01*
X-85602Y148401D01*
X-85594Y148417D01*
X-85547Y148596D01*
X-85496Y148771D01*
X-85494Y148789D01*
X-85490Y148806D01*
X-85463Y149137D01*
X-85463Y166169D01*
X-79145Y172486D01*
X-77558Y174074D01*
X-77541Y174094D01*
X-77520Y174112D01*
X-77413Y174250D01*
X-77303Y174385D01*
X-77290Y174409D01*
X-77274Y174430D01*
X-77196Y174587D01*
X-77114Y174741D01*
X-77106Y174766D01*
X-77094Y174790D01*
X-77049Y174960D01*
X-76999Y175127D01*
X-76997Y175153D01*
X-76990Y175179D01*
X-76963Y175510D01*
X-76963Y223881D01*
X-55333Y245511D01*
X-55316Y245532D01*
X-55295Y245549D01*
X-55188Y245687D01*
X-55078Y245823D01*
X-55065Y245846D01*
X-55049Y245867D01*
X-54971Y246024D01*
X-54889Y246178D01*
X-54881Y246204D01*
X-54869Y246228D01*
X-54824Y246397D01*
X-54774Y246564D01*
X-54772Y246591D01*
X-54765Y246617D01*
X-54738Y246947D01*
X-54738Y287381D01*
X-52431Y289688D01*
X-4060Y289688D01*
X-4033Y289690D01*
X-4007Y289688D01*
X-3833Y289710D01*
X-3659Y289728D01*
X-3634Y289735D01*
X-3607Y289739D01*
X-3442Y289794D01*
X-3274Y289846D01*
X-3251Y289859D01*
X-3226Y289867D01*
X-3074Y289954D01*
X-2920Y290038D01*
X-2900Y290055D01*
X-2877Y290068D01*
X-2624Y290283D01*
X-1631Y291275D01*
X1631Y291275D01*
X3938Y288969D01*
X3938Y274049D01*
X3940Y274032D01*
X3938Y274014D01*
X3959Y273832D01*
X3978Y273649D01*
X3983Y273632D01*
X3985Y273614D01*
X4042Y273440D01*
X4096Y273264D01*
X4104Y273248D01*
X4110Y273231D01*
X4200Y273071D01*
X4288Y272910D01*
X4299Y272896D01*
X4308Y272881D01*
X4428Y272741D01*
X4545Y272601D01*
X4559Y272589D01*
X4571Y272576D01*
X4716Y272463D01*
X4859Y272348D01*
X4875Y272340D01*
X4889Y272329D01*
X5054Y272247D01*
X5216Y272163D01*
X5233Y272158D01*
X5249Y272150D01*
X5428Y272102D01*
X5603Y272051D01*
X5621Y272050D01*
X5638Y272045D01*
X5969Y272018D01*
X11303Y272018D01*
X11321Y272020D01*
X11339Y272019D01*
X11521Y272040D01*
X11704Y272058D01*
X11721Y272063D01*
X11738Y272065D01*
X11913Y272122D01*
X12089Y272176D01*
X12104Y272185D01*
X12121Y272190D01*
X12281Y272281D01*
X12443Y272368D01*
X12456Y272379D01*
X12472Y272388D01*
X12611Y272508D01*
X12752Y272626D01*
X12763Y272640D01*
X12777Y272651D01*
X12889Y272796D01*
X13004Y272940D01*
X13012Y272955D01*
X13023Y272969D01*
X13105Y273134D01*
X13190Y273297D01*
X13195Y273314D01*
X13203Y273330D01*
X13250Y273508D01*
X13301Y273684D01*
X13303Y273702D01*
X13307Y273719D01*
X13334Y274049D01*
X13334Y277368D01*
X15132Y281709D01*
X18455Y285032D01*
X22796Y286830D01*
X27496Y286830D01*
X31837Y285032D01*
X35160Y281709D01*
X36958Y277368D01*
X36958Y252857D01*
X35160Y248516D01*
X31686Y245043D01*
X31675Y245029D01*
X31661Y245017D01*
X31548Y244873D01*
X31431Y244731D01*
X31423Y244715D01*
X31412Y244701D01*
X31328Y244537D01*
X31243Y244375D01*
X31238Y244358D01*
X31229Y244342D01*
X31180Y244165D01*
X31128Y243989D01*
X31126Y243972D01*
X31121Y243954D01*
X31108Y243771D01*
X31091Y243588D01*
X31093Y243571D01*
X31092Y243553D01*
X31115Y243371D01*
X31135Y243188D01*
X31140Y243171D01*
X31143Y243153D01*
X31201Y242980D01*
X31256Y242804D01*
X31265Y242789D01*
X31271Y242772D01*
X31363Y242612D01*
X31451Y242452D01*
X31463Y242439D01*
X31472Y242423D01*
X31686Y242170D01*
X36189Y237667D01*
X36196Y237661D01*
X36202Y237655D01*
X36351Y237534D01*
X36501Y237412D01*
X36509Y237408D01*
X36516Y237402D01*
X36687Y237313D01*
X36856Y237223D01*
X36865Y237221D01*
X36873Y237217D01*
X37058Y237163D01*
X37242Y237109D01*
X37251Y237108D01*
X37260Y237105D01*
X37451Y237090D01*
X37643Y237072D01*
X37652Y237073D01*
X37661Y237072D01*
X37850Y237095D01*
X38044Y237116D01*
X38052Y237118D01*
X38061Y237119D01*
X38243Y237179D01*
X38427Y237237D01*
X38435Y237241D01*
X38444Y237244D01*
X38612Y237339D01*
X38780Y237432D01*
X38786Y237438D01*
X38794Y237442D01*
X38940Y237568D01*
X39087Y237692D01*
X39092Y237699D01*
X39099Y237705D01*
X39216Y237857D01*
X39336Y238008D01*
X39340Y238016D01*
X39346Y238023D01*
X39431Y238194D01*
X39519Y238367D01*
X39521Y238376D01*
X39525Y238384D01*
X39574Y238568D01*
X39627Y238755D01*
X39627Y238764D01*
X39630Y238773D01*
X39657Y239103D01*
X39657Y247089D01*
X40773Y248206D01*
X53352Y248206D01*
X54126Y247431D01*
X54140Y247420D01*
X54152Y247406D01*
X54295Y247293D01*
X54438Y247176D01*
X54454Y247168D01*
X54468Y247157D01*
X54631Y247074D01*
X54793Y246988D01*
X54810Y246983D01*
X54826Y246975D01*
X55004Y246925D01*
X55179Y246873D01*
X55197Y246871D01*
X55214Y246867D01*
X55397Y246853D01*
X55580Y246837D01*
X55598Y246838D01*
X55616Y246837D01*
X55798Y246860D01*
X55981Y246880D01*
X55998Y246885D01*
X56015Y246888D01*
X56189Y246946D01*
X56364Y247001D01*
X56380Y247010D01*
X56397Y247016D01*
X56556Y247107D01*
X56717Y247196D01*
X56730Y247208D01*
X56746Y247217D01*
X56999Y247431D01*
X57773Y248206D01*
X70352Y248206D01*
X71468Y247089D01*
X71468Y235511D01*
X71425Y235467D01*
X71413Y235453D01*
X71400Y235442D01*
X71286Y235298D01*
X71169Y235155D01*
X71161Y235140D01*
X71150Y235126D01*
X71067Y234962D01*
X70981Y234800D01*
X70976Y234783D01*
X70968Y234767D01*
X70918Y234590D01*
X70866Y234414D01*
X70864Y234396D01*
X70860Y234379D01*
X70846Y234196D01*
X70830Y234013D01*
X70832Y233995D01*
X70830Y233977D01*
X70853Y233795D01*
X70873Y233613D01*
X70878Y233596D01*
X70881Y233578D01*
X70939Y233404D01*
X70995Y233229D01*
X71003Y233213D01*
X71009Y233196D01*
X71101Y233037D01*
X71189Y232876D01*
X71201Y232863D01*
X71210Y232847D01*
X71425Y232594D01*
X84900Y219119D01*
X84900Y144419D01*
X79145Y138664D01*
X79128Y138643D01*
X79108Y138626D01*
X79001Y138488D01*
X78890Y138352D01*
X78878Y138329D01*
X78861Y138308D01*
X78783Y138151D01*
X78701Y137997D01*
X78694Y137971D01*
X78682Y137947D01*
X78636Y137778D01*
X78587Y137611D01*
X78584Y137584D01*
X78577Y137558D01*
X78550Y137228D01*
X78550Y93619D01*
X76244Y91312D01*
X68494Y91312D01*
X68471Y91310D01*
X68449Y91312D01*
X68271Y91290D01*
X68093Y91272D01*
X68072Y91266D01*
X68050Y91263D01*
X67880Y91207D01*
X67708Y91154D01*
X67689Y91144D01*
X67667Y91137D01*
X67512Y91048D01*
X67354Y90962D01*
X67337Y90948D01*
X67318Y90937D01*
X67182Y90819D01*
X67045Y90705D01*
X67031Y90687D01*
X67014Y90673D01*
X66905Y90530D01*
X66828Y90434D01*
X65134Y88741D01*
X62955Y87838D01*
X62924Y87835D01*
X62907Y87830D01*
X62889Y87828D01*
X62714Y87771D01*
X62539Y87717D01*
X62523Y87709D01*
X62506Y87703D01*
X62346Y87613D01*
X62185Y87525D01*
X62171Y87514D01*
X62156Y87505D01*
X62016Y87385D01*
X61876Y87268D01*
X61864Y87254D01*
X61851Y87242D01*
X61738Y87097D01*
X61623Y86954D01*
X61615Y86938D01*
X61604Y86924D01*
X61522Y86759D01*
X61438Y86597D01*
X61433Y86580D01*
X61425Y86564D01*
X61377Y86385D01*
X61326Y86210D01*
X61325Y86192D01*
X61320Y86175D01*
X61293Y85844D01*
X61293Y80648D01*
X60177Y79532D01*
X52324Y79532D01*
X52298Y79529D01*
X52271Y79531D01*
X52097Y79509D01*
X51924Y79492D01*
X51898Y79484D01*
X51871Y79481D01*
X51706Y79425D01*
X51539Y79374D01*
X51515Y79361D01*
X51490Y79352D01*
X51338Y79265D01*
X51185Y79182D01*
X51164Y79165D01*
X51141Y79151D01*
X50888Y78937D01*
X44606Y72655D01*
X44594Y72641D01*
X44581Y72629D01*
X44467Y72486D01*
X44351Y72343D01*
X44342Y72327D01*
X44331Y72313D01*
X44248Y72149D01*
X44162Y71987D01*
X44157Y71970D01*
X44149Y71954D01*
X44099Y71777D01*
X44047Y71602D01*
X44046Y71584D01*
X44041Y71567D01*
X44027Y71383D01*
X44011Y71201D01*
X44013Y71183D01*
X44012Y71165D01*
X44034Y70983D01*
X44054Y70800D01*
X44060Y70783D01*
X44062Y70766D01*
X44120Y70592D01*
X44176Y70417D01*
X44184Y70401D01*
X44190Y70384D01*
X44282Y70224D01*
X44371Y70064D01*
X44382Y70051D01*
X44391Y70035D01*
X44606Y69782D01*
X50450Y63938D01*
X50470Y63921D01*
X50488Y63901D01*
X50626Y63794D01*
X50761Y63683D01*
X50785Y63671D01*
X50806Y63654D01*
X50963Y63576D01*
X51117Y63495D01*
X51142Y63487D01*
X51166Y63475D01*
X51336Y63429D01*
X51503Y63380D01*
X51529Y63377D01*
X51555Y63370D01*
X51886Y63343D01*
X60177Y63343D01*
X61298Y62222D01*
X61312Y62211D01*
X61324Y62197D01*
X61468Y62083D01*
X61610Y61967D01*
X61625Y61959D01*
X61639Y61947D01*
X61804Y61864D01*
X61965Y61778D01*
X61982Y61773D01*
X61998Y61765D01*
X62175Y61716D01*
X62351Y61663D01*
X62369Y61662D01*
X62386Y61657D01*
X62569Y61644D01*
X62752Y61627D01*
X62770Y61629D01*
G37*
G36*
X74630Y93221D02*
X74630Y93221D01*
X74648Y93219D01*
X74830Y93240D01*
X75013Y93259D01*
X75030Y93264D01*
X75048Y93266D01*
X75222Y93323D01*
X75398Y93377D01*
X75414Y93385D01*
X75431Y93391D01*
X75591Y93481D01*
X75752Y93569D01*
X75766Y93580D01*
X75781Y93589D01*
X75921Y93709D01*
X76061Y93826D01*
X76073Y93840D01*
X76086Y93852D01*
X76199Y93997D01*
X76314Y94140D01*
X76322Y94156D01*
X76333Y94170D01*
X76415Y94335D01*
X76499Y94497D01*
X76504Y94514D01*
X76512Y94531D01*
X76560Y94709D01*
X76611Y94884D01*
X76612Y94902D01*
X76617Y94919D01*
X76644Y95250D01*
X76644Y138859D01*
X82399Y144614D01*
X82416Y144634D01*
X82436Y144652D01*
X82543Y144790D01*
X82654Y144925D01*
X82666Y144949D01*
X82683Y144970D01*
X82761Y145127D01*
X82843Y145281D01*
X82850Y145306D01*
X82862Y145331D01*
X82908Y145500D01*
X82957Y145667D01*
X82960Y145693D01*
X82967Y145719D01*
X82994Y146050D01*
X82994Y217488D01*
X82991Y217514D01*
X82993Y217541D01*
X82971Y217715D01*
X82954Y217888D01*
X82946Y217914D01*
X82943Y217940D01*
X82887Y218106D01*
X82836Y218273D01*
X82823Y218297D01*
X82814Y218322D01*
X82727Y218474D01*
X82644Y218627D01*
X82627Y218648D01*
X82614Y218671D01*
X82399Y218924D01*
X73237Y228086D01*
X73226Y228094D01*
X73218Y228104D01*
X73071Y228221D01*
X72925Y228341D01*
X72914Y228347D01*
X72903Y228355D01*
X72735Y228442D01*
X72570Y228529D01*
X72557Y228533D01*
X72545Y228539D01*
X72364Y228591D01*
X72184Y228644D01*
X72170Y228645D01*
X72158Y228649D01*
X71971Y228663D01*
X71783Y228681D01*
X71769Y228679D01*
X71756Y228680D01*
X71571Y228658D01*
X71383Y228637D01*
X71370Y228633D01*
X71356Y228631D01*
X71178Y228572D01*
X70999Y228516D01*
X70987Y228509D01*
X70974Y228505D01*
X70810Y228412D01*
X70646Y228321D01*
X70636Y228312D01*
X70624Y228305D01*
X70482Y228181D01*
X70339Y228060D01*
X70331Y228050D01*
X70321Y228041D01*
X70206Y227892D01*
X70090Y227744D01*
X70084Y227732D01*
X70076Y227722D01*
X69924Y227427D01*
X69909Y227391D01*
X68309Y225791D01*
X67472Y225444D01*
X67453Y225434D01*
X67431Y225427D01*
X67275Y225339D01*
X67117Y225254D01*
X67100Y225240D01*
X67081Y225229D01*
X66945Y225112D01*
X66807Y224998D01*
X66793Y224980D01*
X66776Y224966D01*
X66666Y224825D01*
X66553Y224685D01*
X66543Y224665D01*
X66529Y224648D01*
X66449Y224487D01*
X66366Y224329D01*
X66360Y224307D01*
X66350Y224287D01*
X66303Y224114D01*
X66253Y223942D01*
X66251Y223920D01*
X66245Y223898D01*
X66230Y223710D01*
X65102Y222582D01*
X51023Y222582D01*
X49907Y223698D01*
X49907Y224811D01*
X49904Y224837D01*
X49906Y224864D01*
X49887Y225017D01*
X49887Y231775D01*
X49885Y231793D01*
X49886Y231811D01*
X49865Y231993D01*
X49847Y232176D01*
X49842Y232193D01*
X49840Y232210D01*
X49783Y232385D01*
X49729Y232561D01*
X49720Y232576D01*
X49715Y232593D01*
X49624Y232753D01*
X49537Y232915D01*
X49526Y232928D01*
X49517Y232944D01*
X49397Y233083D01*
X49279Y233224D01*
X49265Y233235D01*
X49254Y233249D01*
X49109Y233361D01*
X48965Y233476D01*
X48950Y233484D01*
X48936Y233495D01*
X48771Y233577D01*
X48608Y233662D01*
X48591Y233667D01*
X48575Y233675D01*
X48397Y233722D01*
X48221Y233773D01*
X48203Y233775D01*
X48186Y233779D01*
X47856Y233806D01*
X37354Y233806D01*
X28360Y242800D01*
X28340Y242817D01*
X28322Y242837D01*
X28184Y242944D01*
X28049Y243055D01*
X28025Y243067D01*
X28004Y243084D01*
X27847Y243162D01*
X27693Y243244D01*
X27668Y243251D01*
X27643Y243263D01*
X27474Y243309D01*
X27307Y243358D01*
X27281Y243361D01*
X27255Y243368D01*
X26924Y243395D01*
X22796Y243395D01*
X18455Y245193D01*
X17737Y245911D01*
X17716Y245928D01*
X17699Y245949D01*
X17561Y246055D01*
X17425Y246166D01*
X17402Y246179D01*
X17381Y246195D01*
X17224Y246273D01*
X17070Y246355D01*
X17044Y246363D01*
X17020Y246375D01*
X16851Y246420D01*
X16684Y246470D01*
X16657Y246472D01*
X16631Y246479D01*
X16301Y246506D01*
X2031Y246506D01*
X2031Y257545D01*
X2029Y257571D01*
X2031Y257598D01*
X2009Y257772D01*
X1991Y257945D01*
X1984Y257971D01*
X1980Y257998D01*
X1925Y258163D01*
X1873Y258330D01*
X1860Y258354D01*
X1852Y258379D01*
X1765Y258531D01*
X1681Y258684D01*
X1664Y258705D01*
X1651Y258728D01*
X1436Y258981D01*
X1094Y259323D01*
X1094Y270902D01*
X1436Y271244D01*
X1453Y271265D01*
X1474Y271282D01*
X1581Y271420D01*
X1691Y271555D01*
X1704Y271579D01*
X1720Y271600D01*
X1798Y271757D01*
X1880Y271911D01*
X1888Y271937D01*
X1900Y271961D01*
X1945Y272130D01*
X1995Y272297D01*
X1997Y272324D01*
X2004Y272350D01*
X2031Y272680D01*
X2031Y287338D01*
X2030Y287346D01*
X2031Y287355D01*
X2010Y287549D01*
X1991Y287738D01*
X1989Y287747D01*
X1988Y287756D01*
X1929Y287940D01*
X1873Y288123D01*
X1869Y288131D01*
X1866Y288139D01*
X1773Y288308D01*
X1681Y288477D01*
X1676Y288484D01*
X1671Y288492D01*
X1547Y288639D01*
X1424Y288786D01*
X1417Y288792D01*
X1411Y288799D01*
X1259Y288918D01*
X1110Y289039D01*
X1102Y289043D01*
X1095Y289048D01*
X922Y289136D01*
X753Y289224D01*
X744Y289227D01*
X736Y289231D01*
X550Y289283D01*
X366Y289336D01*
X357Y289336D01*
X348Y289339D01*
X155Y289353D01*
X-36Y289368D01*
X-44Y289367D01*
X-53Y289368D01*
X-246Y289344D01*
X-435Y289322D01*
X-444Y289319D01*
X-453Y289318D01*
X-635Y289256D01*
X-818Y289197D01*
X-826Y289192D01*
X-834Y289189D01*
X-1001Y289093D01*
X-1169Y288999D01*
X-1176Y288993D01*
X-1183Y288989D01*
X-1436Y288774D01*
X-2429Y287781D01*
X-50800Y287781D01*
X-50818Y287779D01*
X-50836Y287781D01*
X-51018Y287760D01*
X-51201Y287741D01*
X-51218Y287736D01*
X-51235Y287734D01*
X-51410Y287677D01*
X-51586Y287623D01*
X-51601Y287615D01*
X-51618Y287609D01*
X-51778Y287519D01*
X-51940Y287431D01*
X-51953Y287420D01*
X-51969Y287411D01*
X-52108Y287291D01*
X-52249Y287174D01*
X-52260Y287160D01*
X-52274Y287148D01*
X-52386Y287003D01*
X-52501Y286860D01*
X-52509Y286844D01*
X-52520Y286830D01*
X-52602Y286665D01*
X-52687Y286503D01*
X-52692Y286486D01*
X-52700Y286470D01*
X-52747Y286291D01*
X-52798Y286116D01*
X-52800Y286098D01*
X-52804Y286081D01*
X-52831Y285750D01*
X-52831Y245316D01*
X-74461Y223686D01*
X-74478Y223666D01*
X-74499Y223648D01*
X-74606Y223510D01*
X-74716Y223375D01*
X-74729Y223351D01*
X-74745Y223330D01*
X-74823Y223173D01*
X-74905Y223019D01*
X-74913Y222994D01*
X-74925Y222970D01*
X-74970Y222800D01*
X-75020Y222633D01*
X-75022Y222607D01*
X-75029Y222581D01*
X-75056Y222250D01*
X-75056Y177800D01*
X-75054Y177773D01*
X-75056Y177747D01*
X-75034Y177573D01*
X-75016Y177399D01*
X-75009Y177374D01*
X-75005Y177347D01*
X-74950Y177182D01*
X-74898Y177014D01*
X-74885Y176991D01*
X-74877Y176966D01*
X-74790Y176814D01*
X-74706Y176660D01*
X-74689Y176640D01*
X-74676Y176617D01*
X-74461Y176364D01*
X-74080Y175983D01*
X-74060Y175966D01*
X-74042Y175945D01*
X-73904Y175838D01*
X-73769Y175728D01*
X-73745Y175715D01*
X-73724Y175699D01*
X-73567Y175621D01*
X-73413Y175539D01*
X-73388Y175531D01*
X-73363Y175519D01*
X-73194Y175474D01*
X-73027Y175424D01*
X-73001Y175422D01*
X-72975Y175415D01*
X-72644Y175388D01*
X28621Y175388D01*
X28633Y175374D01*
X28771Y175267D01*
X28907Y175156D01*
X28930Y175144D01*
X28951Y175127D01*
X29108Y175049D01*
X29262Y174967D01*
X29288Y174960D01*
X29312Y174948D01*
X29481Y174903D01*
X29648Y174853D01*
X29675Y174850D01*
X29701Y174843D01*
X30031Y174816D01*
X39688Y174816D01*
X39705Y174818D01*
X39723Y174817D01*
X39905Y174838D01*
X40088Y174856D01*
X40105Y174861D01*
X40123Y174863D01*
X40297Y174920D01*
X40473Y174974D01*
X40489Y174983D01*
X40506Y174988D01*
X40666Y175079D01*
X40827Y175166D01*
X40841Y175177D01*
X40856Y175186D01*
X40996Y175306D01*
X41136Y175424D01*
X41148Y175438D01*
X41161Y175449D01*
X41274Y175594D01*
X41389Y175738D01*
X41397Y175753D01*
X41408Y175767D01*
X41490Y175932D01*
X41574Y176095D01*
X41579Y176112D01*
X41587Y176128D01*
X41635Y176306D01*
X41686Y176482D01*
X41687Y176500D01*
X41692Y176517D01*
X41719Y176847D01*
X41719Y178170D01*
X41716Y178196D01*
X41718Y178223D01*
X41696Y178397D01*
X41679Y178570D01*
X41671Y178596D01*
X41668Y178623D01*
X41612Y178788D01*
X41561Y178955D01*
X41548Y178979D01*
X41539Y179004D01*
X41452Y179156D01*
X41369Y179309D01*
X41352Y179330D01*
X41338Y179353D01*
X41124Y179606D01*
X40782Y179948D01*
X40782Y201052D01*
X41124Y201394D01*
X41141Y201415D01*
X41161Y201432D01*
X41268Y201570D01*
X41274Y201578D01*
X41494Y201764D01*
X41898Y202168D01*
X45198Y202168D01*
X45229Y202171D01*
X45260Y202169D01*
X45429Y202191D01*
X45598Y202208D01*
X45628Y202217D01*
X45659Y202221D01*
X45975Y202323D01*
X46494Y202538D01*
X47856Y202538D01*
X47873Y202540D01*
X47891Y202538D01*
X48073Y202559D01*
X48256Y202578D01*
X48273Y202583D01*
X48291Y202585D01*
X48465Y202642D01*
X48641Y202696D01*
X48657Y202704D01*
X48674Y202710D01*
X48834Y202800D01*
X48995Y202888D01*
X49009Y202899D01*
X49024Y202908D01*
X49164Y203028D01*
X49304Y203145D01*
X49316Y203159D01*
X49329Y203171D01*
X49442Y203316D01*
X49557Y203459D01*
X49565Y203475D01*
X49576Y203489D01*
X49658Y203654D01*
X49742Y203816D01*
X49747Y203833D01*
X49755Y203849D01*
X49803Y204028D01*
X49854Y204203D01*
X49855Y204221D01*
X49860Y204238D01*
X49887Y204569D01*
X49887Y209920D01*
X49907Y210164D01*
X49907Y211277D01*
X51023Y212393D01*
X65102Y212393D01*
X66218Y211277D01*
X66218Y210164D01*
X66221Y210138D01*
X66219Y210111D01*
X66241Y209937D01*
X66258Y209764D01*
X66266Y209738D01*
X66269Y209712D01*
X66325Y209546D01*
X66376Y209379D01*
X66389Y209355D01*
X66398Y209330D01*
X66485Y209178D01*
X66568Y209025D01*
X66585Y209004D01*
X66598Y208981D01*
X66813Y208728D01*
X68195Y207346D01*
X68195Y207322D01*
X68198Y207295D01*
X68196Y207268D01*
X68218Y207095D01*
X68235Y206921D01*
X68243Y206896D01*
X68246Y206869D01*
X68302Y206703D01*
X68353Y206536D01*
X68366Y206513D01*
X68375Y206487D01*
X68462Y206336D01*
X68545Y206182D01*
X68562Y206162D01*
X68576Y206138D01*
X68790Y205885D01*
X69841Y204834D01*
X70707Y202744D01*
X70707Y200481D01*
X69841Y198391D01*
X68241Y196791D01*
X67913Y196655D01*
X67912Y196654D01*
X67485Y196477D01*
X67466Y196467D01*
X67444Y196460D01*
X67288Y196372D01*
X67130Y196287D01*
X67113Y196273D01*
X67094Y196262D01*
X66958Y196145D01*
X66820Y196031D01*
X66806Y196014D01*
X66789Y195999D01*
X66679Y195858D01*
X66566Y195718D01*
X66556Y195698D01*
X66542Y195681D01*
X66462Y195520D01*
X66379Y195362D01*
X66373Y195340D01*
X66363Y195320D01*
X66316Y195147D01*
X66266Y194975D01*
X66264Y194953D01*
X66258Y194932D01*
X66231Y194601D01*
X66231Y158004D01*
X66176Y157948D01*
X66159Y157928D01*
X66138Y157910D01*
X66031Y157772D01*
X65921Y157637D01*
X65908Y157613D01*
X65892Y157592D01*
X65814Y157435D01*
X65732Y157281D01*
X65724Y157256D01*
X65712Y157231D01*
X65667Y157062D01*
X65617Y156895D01*
X65615Y156869D01*
X65608Y156843D01*
X65581Y156512D01*
X65581Y156136D01*
X64464Y155019D01*
X64088Y155019D01*
X64061Y155017D01*
X64035Y155019D01*
X63861Y154997D01*
X63687Y154979D01*
X63662Y154972D01*
X63635Y154968D01*
X63470Y154913D01*
X63302Y154861D01*
X63279Y154848D01*
X63254Y154840D01*
X63102Y154753D01*
X62948Y154669D01*
X62928Y154652D01*
X62905Y154639D01*
X62652Y154424D01*
X62064Y153836D01*
X62047Y153816D01*
X62027Y153798D01*
X61919Y153660D01*
X61809Y153525D01*
X61796Y153501D01*
X61780Y153480D01*
X61702Y153323D01*
X61620Y153169D01*
X61612Y153144D01*
X61600Y153120D01*
X61555Y152950D01*
X61505Y152783D01*
X61503Y152757D01*
X61496Y152731D01*
X61469Y152400D01*
X61469Y95250D01*
X61471Y95232D01*
X61469Y95214D01*
X61490Y95032D01*
X61509Y94849D01*
X61514Y94832D01*
X61516Y94815D01*
X61573Y94640D01*
X61627Y94464D01*
X61635Y94449D01*
X61641Y94432D01*
X61731Y94272D01*
X61819Y94110D01*
X61830Y94097D01*
X61839Y94081D01*
X61959Y93942D01*
X62076Y93801D01*
X62090Y93790D01*
X62102Y93777D01*
X62247Y93664D01*
X62390Y93549D01*
X62406Y93541D01*
X62420Y93530D01*
X62585Y93448D01*
X62747Y93363D01*
X62764Y93358D01*
X62781Y93350D01*
X62959Y93303D01*
X63134Y93252D01*
X63152Y93250D01*
X63169Y93246D01*
X63500Y93219D01*
X74613Y93219D01*
X74630Y93221D01*
G37*
G36*
X-67572Y319D02*
X-67572Y319D01*
X-67544Y316D01*
X-67476Y339D01*
X-67405Y353D01*
X-67382Y369D01*
X-67355Y378D01*
X-67300Y425D01*
X-67241Y465D01*
X-67226Y489D01*
X-67205Y508D01*
X-67173Y572D01*
X-67134Y633D01*
X-67129Y661D01*
X-67117Y686D01*
X-67108Y788D01*
X-67101Y829D01*
X-67103Y839D01*
X-67102Y852D01*
X-67159Y1567D01*
X-31241Y1567D01*
X-31098Y1581D01*
X-30955Y1587D01*
X-30898Y1601D01*
X-30840Y1607D01*
X-30703Y1649D01*
X-30564Y1683D01*
X-30511Y1708D01*
X-30455Y1725D01*
X-30329Y1794D01*
X-30199Y1854D01*
X-30152Y1889D01*
X-30101Y1917D01*
X-29991Y2009D01*
X-29876Y2094D01*
X-29837Y2137D01*
X-29792Y2175D01*
X-29702Y2286D01*
X-29606Y2393D01*
X-29576Y2443D01*
X-29539Y2489D01*
X-29474Y2616D01*
X-29400Y2739D01*
X-29381Y2794D01*
X-29354Y2846D01*
X-29314Y2984D01*
X-29267Y3119D01*
X-29256Y3185D01*
X-29243Y3233D01*
X-29236Y3315D01*
X-29215Y3447D01*
X-29207Y3560D01*
X-29208Y3637D01*
X-29201Y3713D01*
X-29213Y3838D01*
X-29216Y3963D01*
X-29233Y4037D01*
X-29241Y4114D01*
X-29278Y4234D01*
X-29291Y4291D01*
X-29118Y5048D01*
X-29109Y5114D01*
X-29073Y5348D01*
X-29015Y6114D01*
X-29007Y6123D01*
X-28949Y6234D01*
X-28882Y6340D01*
X-28855Y6411D01*
X-28819Y6479D01*
X-28770Y6634D01*
X-28739Y6716D01*
X-28733Y6752D01*
X-28719Y6795D01*
X-28471Y7883D01*
X-28461Y7959D01*
X-28442Y8033D01*
X-28436Y8158D01*
X-28421Y8282D01*
X-28426Y8359D01*
X-28422Y8435D01*
X-28441Y8559D01*
X-28445Y8617D01*
X-28161Y9340D01*
X-28143Y9405D01*
X-28072Y9630D01*
X-27901Y10379D01*
X-27892Y10387D01*
X-27817Y10488D01*
X-27736Y10583D01*
X-27698Y10649D01*
X-27653Y10711D01*
X-27581Y10857D01*
X-27538Y10933D01*
X-27527Y10968D01*
X-27507Y11009D01*
X-27099Y12047D01*
X-27078Y12121D01*
X-27049Y12191D01*
X-27024Y12314D01*
X-26990Y12435D01*
X-26984Y12511D01*
X-26969Y12586D01*
X-26969Y12711D01*
X-26964Y12770D01*
X-26576Y13442D01*
X-26548Y13504D01*
X-26444Y13716D01*
X-26164Y14431D01*
X-26153Y14437D01*
X-26065Y14526D01*
X-25970Y14607D01*
X-25923Y14668D01*
X-25868Y14722D01*
X-25776Y14856D01*
X-25722Y14925D01*
X-25706Y14957D01*
X-25680Y14995D01*
X-25122Y15961D01*
X-25090Y16030D01*
X-25051Y16096D01*
X-25008Y16213D01*
X-24956Y16327D01*
X-24939Y16402D01*
X-24913Y16474D01*
X-24894Y16598D01*
X-24881Y16655D01*
X-24397Y17262D01*
X-24360Y17319D01*
X-24226Y17513D01*
X-23842Y18178D01*
X-23831Y18183D01*
X-23730Y18257D01*
X-23624Y18324D01*
X-23568Y18377D01*
X-23506Y18422D01*
X-23395Y18541D01*
X-23331Y18601D01*
X-23311Y18630D01*
X-23279Y18664D01*
X-22584Y19536D01*
X-22542Y19600D01*
X-22493Y19658D01*
X-22433Y19768D01*
X-22365Y19874D01*
X-22337Y19945D01*
X-22300Y20012D01*
X-22263Y20132D01*
X-22242Y20186D01*
X-21672Y20715D01*
X-21628Y20765D01*
X-21466Y20937D01*
X-20987Y21537D01*
X-20975Y21541D01*
X-20865Y21599D01*
X-20750Y21649D01*
X-20687Y21693D01*
X-20619Y21729D01*
X-20491Y21829D01*
X-20419Y21879D01*
X-20395Y21905D01*
X-20358Y21934D01*
X-19541Y22692D01*
X-19490Y22750D01*
X-19433Y22800D01*
X-19357Y22900D01*
X-19274Y22994D01*
X-19236Y23060D01*
X-19190Y23121D01*
X-19135Y23234D01*
X-19106Y23285D01*
X-18464Y23722D01*
X-18413Y23765D01*
X-18227Y23912D01*
X-17664Y24434D01*
X-17652Y24436D01*
X-17534Y24477D01*
X-17412Y24509D01*
X-17344Y24543D01*
X-17272Y24568D01*
X-17130Y24649D01*
X-17051Y24688D01*
X-17023Y24709D01*
X-16983Y24732D01*
X-16062Y25360D01*
X-16003Y25410D01*
X-15939Y25451D01*
X-15849Y25539D01*
X-15753Y25619D01*
X-15705Y25679D01*
X-15650Y25732D01*
X-15580Y25836D01*
X-15543Y25881D01*
X-14843Y26218D01*
X-14786Y26253D01*
X-14580Y26370D01*
X-13946Y26803D01*
X-13934Y26803D01*
X-13811Y26826D01*
X-13686Y26840D01*
X-13613Y26863D01*
X-13538Y26877D01*
X-13386Y26936D01*
X-13303Y26962D01*
X-13271Y26980D01*
X-13228Y26996D01*
X-12223Y27480D01*
X-12158Y27520D01*
X-12088Y27552D01*
X-11987Y27624D01*
X-11880Y27690D01*
X-11824Y27742D01*
X-11762Y27787D01*
X-11676Y27878D01*
X-11633Y27918D01*
X-10891Y28147D01*
X-10829Y28173D01*
X-10608Y28258D01*
X-9917Y28591D01*
X-9905Y28589D01*
X-9779Y28594D01*
X-9654Y28589D01*
X-9579Y28601D01*
X-9502Y28604D01*
X-9343Y28639D01*
X-9257Y28653D01*
X-9223Y28665D01*
X-9178Y28675D01*
X-8112Y29004D01*
X-8042Y29034D01*
X-7968Y29055D01*
X-7857Y29112D01*
X-7741Y29160D01*
X-7678Y29203D01*
X-7610Y29238D01*
X-7512Y29316D01*
X-7463Y29349D01*
X-6695Y29465D01*
X-6630Y29481D01*
X-6399Y29532D01*
X-5666Y29759D01*
X-5654Y29755D01*
X-5530Y29741D01*
X-5407Y29717D01*
X-5330Y29718D01*
X-5254Y29710D01*
X-5091Y29721D01*
X-5004Y29721D01*
X-4969Y29729D01*
X-4923Y29732D01*
X-3820Y29898D01*
X-3746Y29917D01*
X-3670Y29927D01*
X-3551Y29967D01*
X-3430Y29997D01*
X-3361Y30031D01*
X-3288Y30055D01*
X-3180Y30117D01*
X-3127Y30143D01*
X-2350Y30143D01*
X-2283Y30149D01*
X-2047Y30165D01*
X-1288Y30280D01*
X-1277Y30274D01*
X-1156Y30242D01*
X-1038Y30200D01*
X-962Y30190D01*
X-888Y30170D01*
X-725Y30156D01*
X-639Y30144D01*
X-604Y30146D01*
X-558Y30143D01*
X558Y30143D01*
X634Y30150D01*
X710Y30148D01*
X834Y30170D01*
X958Y30183D01*
X1031Y30205D01*
X1107Y30218D01*
X1223Y30264D01*
X1279Y30281D01*
X1977Y30176D01*
X2146Y30168D01*
X2315Y30154D01*
X2347Y30157D01*
X2379Y30156D01*
X2547Y30181D01*
X2715Y30201D01*
X2745Y30210D01*
X2777Y30215D01*
X2937Y30273D01*
X3098Y30325D01*
X3126Y30341D01*
X3156Y30352D01*
X3301Y30440D01*
X3448Y30523D01*
X3473Y30544D01*
X3500Y30561D01*
X3625Y30676D01*
X3753Y30786D01*
X3773Y30812D01*
X3796Y30833D01*
X3896Y30971D01*
X4000Y31105D01*
X4014Y31133D01*
X4033Y31159D01*
X4103Y31313D01*
X4179Y31465D01*
X4187Y31496D01*
X4201Y31525D01*
X4240Y31690D01*
X4284Y31854D01*
X4287Y31890D01*
X4293Y31917D01*
X4296Y32003D01*
X4311Y32185D01*
X4311Y42063D01*
X4309Y42081D01*
X4310Y42099D01*
X4289Y42281D01*
X4271Y42464D01*
X4266Y42481D01*
X4264Y42498D01*
X4207Y42673D01*
X4153Y42849D01*
X4144Y42864D01*
X4139Y42881D01*
X4048Y43041D01*
X3961Y43203D01*
X3950Y43216D01*
X3941Y43232D01*
X3821Y43371D01*
X3703Y43512D01*
X3689Y43523D01*
X3678Y43537D01*
X3533Y43649D01*
X3389Y43764D01*
X3374Y43772D01*
X3360Y43783D01*
X3195Y43865D01*
X3032Y43950D01*
X3015Y43955D01*
X2999Y43963D01*
X2821Y44010D01*
X2645Y44061D01*
X2627Y44063D01*
X2610Y44067D01*
X2280Y44094D01*
X-7130Y44094D01*
X-7157Y44092D01*
X-7183Y44094D01*
X-7357Y44072D01*
X-7531Y44054D01*
X-7556Y44047D01*
X-7583Y44043D01*
X-7749Y43988D01*
X-7916Y43936D01*
X-7939Y43923D01*
X-7965Y43915D01*
X-8116Y43828D01*
X-8270Y43744D01*
X-8290Y43727D01*
X-8313Y43714D01*
X-8566Y43499D01*
X-12925Y39141D01*
X-16389Y39141D01*
X-16415Y39139D01*
X-16442Y39141D01*
X-16616Y39119D01*
X-16789Y39101D01*
X-16815Y39094D01*
X-16841Y39090D01*
X-17007Y39035D01*
X-17174Y38983D01*
X-17198Y38970D01*
X-17223Y38962D01*
X-17375Y38875D01*
X-17528Y38791D01*
X-17549Y38774D01*
X-17572Y38761D01*
X-17825Y38546D01*
X-31051Y25320D01*
X-31105Y25291D01*
X-31125Y25274D01*
X-31149Y25261D01*
X-31402Y25046D01*
X-32199Y24249D01*
X-34289Y23383D01*
X-34397Y23383D01*
X-34415Y23381D01*
X-34433Y23383D01*
X-34615Y23361D01*
X-34798Y23343D01*
X-34815Y23338D01*
X-34833Y23336D01*
X-35007Y23279D01*
X-35183Y23225D01*
X-35198Y23216D01*
X-35215Y23211D01*
X-35376Y23120D01*
X-35537Y23033D01*
X-35550Y23022D01*
X-35566Y23013D01*
X-35705Y22893D01*
X-35846Y22775D01*
X-35857Y22761D01*
X-35871Y22750D01*
X-35983Y22605D01*
X-36098Y22462D01*
X-36107Y22446D01*
X-36118Y22432D01*
X-36200Y22267D01*
X-36284Y22104D01*
X-36289Y22087D01*
X-36297Y22071D01*
X-36345Y21893D01*
X-36395Y21717D01*
X-36397Y21700D01*
X-36401Y21682D01*
X-36429Y21352D01*
X-36429Y21244D01*
X-37294Y19153D01*
X-38894Y17553D01*
X-40985Y16687D01*
X-43248Y16687D01*
X-45338Y17553D01*
X-46938Y19153D01*
X-47804Y21244D01*
X-47804Y23506D01*
X-46938Y25597D01*
X-46656Y25879D01*
X-46639Y25899D01*
X-46619Y25917D01*
X-46512Y26055D01*
X-46401Y26190D01*
X-46389Y26214D01*
X-46372Y26235D01*
X-46294Y26392D01*
X-46213Y26546D01*
X-46205Y26571D01*
X-46193Y26595D01*
X-46147Y26765D01*
X-46098Y26932D01*
X-46095Y26958D01*
X-46088Y26984D01*
X-46061Y27315D01*
X-46061Y33478D01*
X-39828Y39711D01*
X-35830Y39711D01*
X-35804Y39714D01*
X-35777Y39712D01*
X-35603Y39734D01*
X-35430Y39751D01*
X-35404Y39759D01*
X-35378Y39763D01*
X-35212Y39818D01*
X-35045Y39869D01*
X-35021Y39882D01*
X-34996Y39891D01*
X-34844Y39978D01*
X-34691Y40061D01*
X-34670Y40078D01*
X-34647Y40092D01*
X-34394Y40306D01*
X-31269Y43431D01*
X-31252Y43452D01*
X-31232Y43469D01*
X-31125Y43607D01*
X-31014Y43743D01*
X-31002Y43766D01*
X-30985Y43787D01*
X-30907Y43944D01*
X-30825Y44098D01*
X-30818Y44124D01*
X-30806Y44148D01*
X-30760Y44317D01*
X-30711Y44484D01*
X-30708Y44511D01*
X-30701Y44537D01*
X-30674Y44868D01*
X-30674Y46464D01*
X-30677Y46491D01*
X-30675Y46517D01*
X-30697Y46691D01*
X-30698Y46705D01*
X-30698Y50743D01*
X-30674Y51036D01*
X-30674Y52289D01*
X-29558Y53406D01*
X22351Y53406D01*
X22368Y53408D01*
X22386Y53406D01*
X22568Y53427D01*
X22751Y53446D01*
X22768Y53451D01*
X22786Y53453D01*
X22960Y53510D01*
X23136Y53564D01*
X23152Y53572D01*
X23169Y53578D01*
X23329Y53668D01*
X23490Y53756D01*
X23504Y53767D01*
X23519Y53776D01*
X23659Y53896D01*
X23799Y54013D01*
X23811Y54027D01*
X23824Y54039D01*
X23937Y54184D01*
X24052Y54327D01*
X24060Y54343D01*
X24071Y54357D01*
X24153Y54522D01*
X24237Y54684D01*
X24242Y54701D01*
X24250Y54717D01*
X24298Y54896D01*
X24349Y55071D01*
X24350Y55089D01*
X24355Y55106D01*
X24382Y55437D01*
X24382Y81411D01*
X24379Y81437D01*
X24381Y81464D01*
X24359Y81638D01*
X24342Y81811D01*
X24334Y81837D01*
X24331Y81863D01*
X24275Y82029D01*
X24224Y82196D01*
X24211Y82220D01*
X24202Y82245D01*
X24115Y82397D01*
X24032Y82550D01*
X24015Y82571D01*
X24002Y82594D01*
X23812Y82818D01*
X23812Y96568D01*
X23824Y96579D01*
X23931Y96717D01*
X24042Y96852D01*
X24054Y96876D01*
X24071Y96897D01*
X24149Y97054D01*
X24231Y97208D01*
X24238Y97233D01*
X24250Y97257D01*
X24296Y97427D01*
X24345Y97594D01*
X24348Y97620D01*
X24355Y97646D01*
X24382Y97977D01*
X24382Y109663D01*
X24380Y109681D01*
X24381Y109699D01*
X24360Y109881D01*
X24342Y110064D01*
X24337Y110081D01*
X24335Y110098D01*
X24278Y110273D01*
X24224Y110449D01*
X24215Y110464D01*
X24210Y110481D01*
X24119Y110641D01*
X24032Y110803D01*
X24021Y110816D01*
X24012Y110832D01*
X23892Y110971D01*
X23774Y111112D01*
X23760Y111123D01*
X23749Y111137D01*
X23604Y111249D01*
X23460Y111364D01*
X23445Y111372D01*
X23431Y111383D01*
X23266Y111465D01*
X23103Y111550D01*
X23086Y111555D01*
X23070Y111563D01*
X22892Y111610D01*
X22716Y111661D01*
X22698Y111663D01*
X22681Y111667D01*
X22351Y111694D01*
X-31876Y111694D01*
X-31893Y111692D01*
X-31911Y111694D01*
X-32093Y111673D01*
X-32276Y111654D01*
X-32293Y111649D01*
X-32311Y111647D01*
X-32485Y111590D01*
X-32661Y111536D01*
X-32677Y111528D01*
X-32694Y111522D01*
X-32854Y111432D01*
X-33015Y111344D01*
X-33029Y111333D01*
X-33044Y111324D01*
X-33184Y111204D01*
X-33324Y111087D01*
X-33336Y111073D01*
X-33349Y111061D01*
X-33462Y110916D01*
X-33577Y110773D01*
X-33585Y110757D01*
X-33596Y110743D01*
X-33678Y110578D01*
X-33762Y110416D01*
X-33767Y110399D01*
X-33775Y110383D01*
X-33823Y110204D01*
X-33874Y110029D01*
X-33875Y110011D01*
X-33880Y109994D01*
X-33907Y109663D01*
X-33907Y82762D01*
X-35183Y81486D01*
X-35194Y81472D01*
X-35208Y81460D01*
X-35322Y81316D01*
X-35438Y81174D01*
X-35446Y81159D01*
X-35457Y81145D01*
X-35540Y80980D01*
X-35626Y80819D01*
X-35631Y80802D01*
X-35639Y80786D01*
X-35689Y80608D01*
X-35741Y80433D01*
X-35743Y80415D01*
X-35747Y80398D01*
X-35761Y80215D01*
X-35777Y80032D01*
X-35776Y80014D01*
X-35777Y79996D01*
X-35754Y79814D01*
X-35734Y79631D01*
X-35729Y79614D01*
X-35726Y79597D01*
X-35668Y79423D01*
X-35613Y79248D01*
X-35604Y79232D01*
X-35598Y79215D01*
X-35507Y79056D01*
X-35418Y78895D01*
X-35406Y78882D01*
X-35397Y78866D01*
X-35183Y78613D01*
X-33907Y77337D01*
X-33907Y57755D01*
X-35023Y56638D01*
X-36276Y56638D01*
X-36303Y56636D01*
X-36330Y56638D01*
X-36504Y56616D01*
X-36517Y56614D01*
X-42469Y56614D01*
X-42496Y56612D01*
X-42522Y56614D01*
X-42696Y56592D01*
X-42870Y56574D01*
X-42895Y56567D01*
X-42922Y56563D01*
X-43087Y56508D01*
X-43255Y56456D01*
X-43278Y56443D01*
X-43303Y56435D01*
X-43455Y56348D01*
X-43609Y56264D01*
X-43629Y56247D01*
X-43652Y56234D01*
X-43905Y56019D01*
X-44324Y55600D01*
X-44341Y55580D01*
X-44362Y55562D01*
X-44469Y55424D01*
X-44579Y55289D01*
X-44592Y55265D01*
X-44608Y55244D01*
X-44686Y55087D01*
X-44768Y54933D01*
X-44776Y54908D01*
X-44788Y54883D01*
X-44833Y54714D01*
X-44883Y54547D01*
X-44885Y54521D01*
X-44892Y54495D01*
X-44919Y54164D01*
X-44919Y42923D01*
X-46036Y41807D01*
X-52695Y41807D01*
X-52708Y41805D01*
X-52722Y41807D01*
X-52908Y41786D01*
X-53096Y41767D01*
X-53108Y41763D01*
X-53122Y41761D01*
X-53300Y41704D01*
X-53480Y41649D01*
X-53492Y41642D01*
X-53505Y41638D01*
X-53669Y41546D01*
X-53834Y41457D01*
X-53845Y41448D01*
X-53857Y41442D01*
X-54000Y41319D01*
X-54144Y41199D01*
X-54152Y41189D01*
X-54162Y41180D01*
X-54278Y41032D01*
X-54396Y40885D01*
X-54402Y40873D01*
X-54411Y40863D01*
X-54495Y40695D01*
X-54582Y40528D01*
X-54585Y40515D01*
X-54591Y40503D01*
X-54641Y40321D01*
X-54693Y40141D01*
X-54694Y40128D01*
X-54698Y40115D01*
X-54710Y39928D01*
X-54726Y39740D01*
X-54724Y39727D01*
X-54725Y39713D01*
X-54701Y39527D01*
X-54679Y39340D01*
X-54675Y39327D01*
X-54673Y39314D01*
X-54637Y39203D01*
X-54637Y36894D01*
X-55503Y34804D01*
X-57103Y33204D01*
X-59194Y32338D01*
X-61456Y32338D01*
X-63547Y33204D01*
X-65147Y34804D01*
X-66013Y36894D01*
X-66013Y39216D01*
X-65962Y39383D01*
X-65961Y39397D01*
X-65957Y39410D01*
X-65942Y39598D01*
X-65924Y39784D01*
X-65925Y39798D01*
X-65924Y39811D01*
X-65946Y39998D01*
X-65965Y40185D01*
X-65969Y40198D01*
X-65971Y40211D01*
X-66029Y40390D01*
X-66085Y40569D01*
X-66092Y40581D01*
X-66096Y40594D01*
X-66188Y40758D01*
X-66279Y40922D01*
X-66287Y40933D01*
X-66294Y40944D01*
X-66417Y41087D01*
X-66538Y41230D01*
X-66548Y41239D01*
X-66557Y41249D01*
X-66705Y41364D01*
X-66852Y41481D01*
X-66864Y41488D01*
X-66875Y41496D01*
X-67044Y41580D01*
X-67211Y41665D01*
X-67223Y41669D01*
X-67236Y41675D01*
X-67419Y41724D01*
X-67598Y41775D01*
X-67611Y41776D01*
X-67624Y41780D01*
X-67955Y41807D01*
X-74614Y41807D01*
X-75731Y42923D01*
X-75731Y55502D01*
X-75009Y56224D01*
X-75003Y56231D01*
X-74996Y56236D01*
X-74875Y56387D01*
X-74754Y56535D01*
X-74750Y56543D01*
X-74744Y56550D01*
X-74656Y56720D01*
X-74565Y56891D01*
X-74563Y56900D01*
X-74559Y56907D01*
X-74506Y57092D01*
X-74450Y57277D01*
X-74450Y57286D01*
X-74447Y57294D01*
X-74432Y57483D01*
X-74414Y57678D01*
X-74415Y57687D01*
X-74414Y57696D01*
X-74436Y57884D01*
X-74457Y58078D01*
X-74460Y58087D01*
X-74461Y58095D01*
X-74521Y58277D01*
X-74579Y58462D01*
X-74583Y58470D01*
X-74586Y58478D01*
X-74680Y58645D01*
X-74774Y58814D01*
X-74780Y58821D01*
X-74784Y58829D01*
X-74909Y58974D01*
X-75034Y59121D01*
X-75041Y59127D01*
X-75047Y59134D01*
X-75198Y59250D01*
X-75350Y59371D01*
X-75358Y59375D01*
X-75365Y59380D01*
X-75536Y59465D01*
X-75709Y59553D01*
X-75718Y59556D01*
X-75726Y59560D01*
X-75911Y59609D01*
X-76097Y59661D01*
X-76106Y59662D01*
X-76114Y59664D01*
X-76445Y59691D01*
X-91680Y59691D01*
X-91707Y59689D01*
X-91733Y59691D01*
X-91907Y59669D01*
X-92081Y59651D01*
X-92106Y59644D01*
X-92133Y59640D01*
X-92298Y59585D01*
X-92466Y59533D01*
X-92489Y59520D01*
X-92515Y59512D01*
X-92666Y59425D01*
X-92820Y59341D01*
X-92840Y59324D01*
X-92863Y59311D01*
X-93116Y59096D01*
X-99884Y52329D01*
X-99904Y52305D01*
X-99927Y52284D01*
X-100031Y52149D01*
X-100139Y52017D01*
X-100154Y51990D01*
X-100173Y51965D01*
X-100324Y51670D01*
X-101305Y49302D01*
X-102905Y47702D01*
X-104996Y46836D01*
X-107258Y46836D01*
X-108355Y47290D01*
X-108491Y47331D01*
X-108624Y47380D01*
X-108683Y47389D01*
X-108741Y47407D01*
X-108882Y47420D01*
X-109022Y47442D01*
X-109082Y47439D01*
X-109142Y47445D01*
X-109283Y47430D01*
X-109424Y47424D01*
X-109482Y47409D01*
X-109542Y47403D01*
X-109677Y47361D01*
X-109815Y47327D01*
X-109869Y47301D01*
X-109926Y47283D01*
X-110051Y47215D01*
X-110179Y47155D01*
X-110227Y47119D01*
X-110280Y47090D01*
X-110388Y46999D01*
X-110502Y46914D01*
X-110542Y46869D01*
X-110588Y46831D01*
X-110676Y46720D01*
X-110771Y46615D01*
X-110801Y46563D01*
X-110839Y46516D01*
X-110903Y46390D01*
X-110976Y46268D01*
X-110995Y46211D01*
X-111023Y46158D01*
X-111061Y46021D01*
X-111108Y45888D01*
X-111116Y45828D01*
X-111132Y45771D01*
X-111143Y45629D01*
X-111163Y45489D01*
X-111159Y45429D01*
X-111163Y45369D01*
X-111146Y45228D01*
X-111138Y45087D01*
X-111122Y45029D01*
X-111115Y44969D01*
X-111070Y44835D01*
X-111034Y44698D01*
X-111004Y44636D01*
X-110988Y44587D01*
X-110948Y44516D01*
X-110892Y44398D01*
X-95686Y18061D01*
X-96314Y17764D01*
X-96336Y17747D01*
X-96363Y17737D01*
X-96415Y17688D01*
X-96473Y17645D01*
X-96487Y17620D01*
X-96508Y17600D01*
X-96537Y17535D01*
X-96573Y17473D01*
X-96576Y17445D01*
X-96588Y17418D01*
X-96589Y17346D01*
X-96598Y17276D01*
X-96590Y17248D01*
X-96591Y17219D01*
X-96555Y17125D01*
X-96544Y17084D01*
X-96537Y17076D01*
X-96533Y17063D01*
X-87033Y563D01*
X-86981Y505D01*
X-86935Y442D01*
X-86916Y431D01*
X-86901Y414D01*
X-86831Y381D01*
X-86764Y341D01*
X-86740Y337D01*
X-86722Y328D01*
X-86677Y326D01*
X-86600Y313D01*
X-67600Y313D01*
X-67572Y319D01*
G37*
G36*
X-106763Y95257D02*
X-106763Y95257D01*
X-106694Y95257D01*
X-106564Y95282D01*
X-106433Y95299D01*
X-106367Y95321D01*
X-106299Y95334D01*
X-106177Y95385D01*
X-106051Y95427D01*
X-105991Y95462D01*
X-105927Y95488D01*
X-105817Y95562D01*
X-105702Y95628D01*
X-105641Y95680D01*
X-105592Y95713D01*
X-105538Y95767D01*
X-105449Y95842D01*
X-95477Y105815D01*
X-95471Y105822D01*
X-95464Y105828D01*
X-95344Y105977D01*
X-95222Y106127D01*
X-95217Y106135D01*
X-95212Y106142D01*
X-95123Y106313D01*
X-95033Y106482D01*
X-95030Y106491D01*
X-95026Y106499D01*
X-94974Y106682D01*
X-94918Y106868D01*
X-94917Y106877D01*
X-94915Y106886D01*
X-94899Y107075D01*
X-94882Y107269D01*
X-94883Y107278D01*
X-94882Y107287D01*
X-94904Y107476D01*
X-94925Y107670D01*
X-94928Y107678D01*
X-94929Y107687D01*
X-94988Y107869D01*
X-95047Y108053D01*
X-95051Y108061D01*
X-95054Y108070D01*
X-95149Y108238D01*
X-95242Y108406D01*
X-95247Y108412D01*
X-95252Y108420D01*
X-95378Y108566D01*
X-95502Y108713D01*
X-95509Y108718D01*
X-95515Y108725D01*
X-95666Y108842D01*
X-95818Y108962D01*
X-95826Y108966D01*
X-95833Y108972D01*
X-96005Y109057D01*
X-96177Y109145D01*
X-96185Y109147D01*
X-96194Y109151D01*
X-96380Y109201D01*
X-96565Y109253D01*
X-96574Y109253D01*
X-96582Y109256D01*
X-96649Y109261D01*
X-107759Y120372D01*
X-107773Y120383D01*
X-107785Y120396D01*
X-107929Y120510D01*
X-108071Y120627D01*
X-108087Y120635D01*
X-108101Y120646D01*
X-108265Y120729D01*
X-108427Y120815D01*
X-108444Y120820D01*
X-108460Y120828D01*
X-108637Y120878D01*
X-108813Y120930D01*
X-108830Y120932D01*
X-108848Y120936D01*
X-109031Y120950D01*
X-109214Y120966D01*
X-109231Y120964D01*
X-109249Y120966D01*
X-109431Y120943D01*
X-109614Y120923D01*
X-109631Y120918D01*
X-109649Y120915D01*
X-109822Y120857D01*
X-109998Y120802D01*
X-110013Y120793D01*
X-110030Y120787D01*
X-110189Y120696D01*
X-110350Y120607D01*
X-110364Y120595D01*
X-110379Y120586D01*
X-110632Y120372D01*
X-112079Y118924D01*
X-115580Y117474D01*
X-119370Y117474D01*
X-122871Y118924D01*
X-125551Y121604D01*
X-127001Y125105D01*
X-127001Y128895D01*
X-125551Y132396D01*
X-122871Y135076D01*
X-121151Y135788D01*
X-119779Y136356D01*
X-119767Y136363D01*
X-119754Y136367D01*
X-119590Y136458D01*
X-119424Y136547D01*
X-119413Y136555D01*
X-119402Y136562D01*
X-119259Y136683D01*
X-119113Y136803D01*
X-119105Y136813D01*
X-119095Y136822D01*
X-118978Y136970D01*
X-118860Y137116D01*
X-118853Y137127D01*
X-118845Y137138D01*
X-118760Y137306D01*
X-118673Y137472D01*
X-118669Y137485D01*
X-118663Y137497D01*
X-118612Y137679D01*
X-118560Y137859D01*
X-118558Y137872D01*
X-118555Y137885D01*
X-118541Y138073D01*
X-118525Y138260D01*
X-118526Y138273D01*
X-118525Y138286D01*
X-118549Y138473D01*
X-118570Y138660D01*
X-118574Y138672D01*
X-118576Y138686D01*
X-118636Y138863D01*
X-118693Y139043D01*
X-118700Y139055D01*
X-118704Y139067D01*
X-118798Y139231D01*
X-118890Y139395D01*
X-118898Y139405D01*
X-118905Y139416D01*
X-119120Y139669D01*
X-120905Y141454D01*
X-120905Y142153D01*
X-120907Y142175D01*
X-120905Y142197D01*
X-120927Y142375D01*
X-120945Y142553D01*
X-120951Y142575D01*
X-120954Y142597D01*
X-121010Y142767D01*
X-121063Y142938D01*
X-121073Y142958D01*
X-121080Y142979D01*
X-121169Y143135D01*
X-121255Y143292D01*
X-121269Y143310D01*
X-121280Y143329D01*
X-121397Y143464D01*
X-121512Y143602D01*
X-121530Y143616D01*
X-121544Y143632D01*
X-121686Y143742D01*
X-121826Y143854D01*
X-121846Y143864D01*
X-121864Y143878D01*
X-122159Y144029D01*
X-122871Y144324D01*
X-125189Y146643D01*
X-125203Y146654D01*
X-125215Y146668D01*
X-125359Y146782D01*
X-125501Y146898D01*
X-125517Y146906D01*
X-125531Y146917D01*
X-125695Y147001D01*
X-125857Y147087D01*
X-125874Y147092D01*
X-125890Y147100D01*
X-126067Y147149D01*
X-126242Y147201D01*
X-126260Y147203D01*
X-126277Y147208D01*
X-126461Y147221D01*
X-126643Y147238D01*
X-126661Y147236D01*
X-126679Y147237D01*
X-126861Y147214D01*
X-127044Y147194D01*
X-127061Y147189D01*
X-127078Y147187D01*
X-127252Y147128D01*
X-127428Y147073D01*
X-127443Y147064D01*
X-127460Y147059D01*
X-127619Y146967D01*
X-127780Y146878D01*
X-127794Y146866D01*
X-127809Y146858D01*
X-128062Y146643D01*
X-129211Y145494D01*
X-141789Y145494D01*
X-142906Y146611D01*
X-142906Y158189D01*
X-141789Y159306D01*
X-129211Y159306D01*
X-128062Y158157D01*
X-128048Y158146D01*
X-128037Y158132D01*
X-127892Y158018D01*
X-127750Y157902D01*
X-127735Y157894D01*
X-127721Y157883D01*
X-127557Y157799D01*
X-127395Y157713D01*
X-127378Y157708D01*
X-127362Y157700D01*
X-127185Y157651D01*
X-127009Y157599D01*
X-126991Y157597D01*
X-126974Y157592D01*
X-126791Y157579D01*
X-126608Y157562D01*
X-126590Y157564D01*
X-126572Y157563D01*
X-126390Y157586D01*
X-126208Y157606D01*
X-126191Y157611D01*
X-126173Y157613D01*
X-125999Y157672D01*
X-125824Y157727D01*
X-125808Y157736D01*
X-125791Y157741D01*
X-125632Y157833D01*
X-125471Y157922D01*
X-125458Y157933D01*
X-125442Y157942D01*
X-125189Y158157D01*
X-122871Y160476D01*
X-119370Y161926D01*
X-115580Y161926D01*
X-112664Y160718D01*
X-112651Y160714D01*
X-112640Y160708D01*
X-112460Y160656D01*
X-112279Y160601D01*
X-112266Y160600D01*
X-112253Y160596D01*
X-112065Y160581D01*
X-111878Y160563D01*
X-111865Y160565D01*
X-111851Y160564D01*
X-111664Y160586D01*
X-111478Y160605D01*
X-111465Y160609D01*
X-111452Y160611D01*
X-111272Y160669D01*
X-111093Y160725D01*
X-111082Y160731D01*
X-111069Y160735D01*
X-110904Y160828D01*
X-110740Y160918D01*
X-110730Y160927D01*
X-110718Y160933D01*
X-110576Y161056D01*
X-110432Y161177D01*
X-110424Y161188D01*
X-110413Y161196D01*
X-110298Y161345D01*
X-110181Y161492D01*
X-110175Y161504D01*
X-110167Y161515D01*
X-110083Y161683D01*
X-109997Y161850D01*
X-109993Y161863D01*
X-109987Y161875D01*
X-109938Y162057D01*
X-109887Y162238D01*
X-109886Y162251D01*
X-109883Y162264D01*
X-109856Y162595D01*
X-109856Y167605D01*
X-109857Y167619D01*
X-109856Y167632D01*
X-109877Y167818D01*
X-109896Y168006D01*
X-109900Y168019D01*
X-109901Y168032D01*
X-109959Y168211D01*
X-110014Y168391D01*
X-110020Y168403D01*
X-110024Y168416D01*
X-110116Y168580D01*
X-110206Y168745D01*
X-110214Y168755D01*
X-110221Y168767D01*
X-110343Y168910D01*
X-110463Y169054D01*
X-110474Y169063D01*
X-110482Y169073D01*
X-110630Y169189D01*
X-110777Y169307D01*
X-110789Y169313D01*
X-110799Y169321D01*
X-110968Y169406D01*
X-111134Y169492D01*
X-111147Y169496D01*
X-111159Y169502D01*
X-111340Y169551D01*
X-111521Y169604D01*
X-111535Y169605D01*
X-111548Y169608D01*
X-111736Y169621D01*
X-111923Y169636D01*
X-111936Y169635D01*
X-111949Y169636D01*
X-112137Y169611D01*
X-112322Y169589D01*
X-112335Y169585D01*
X-112348Y169584D01*
X-112664Y169482D01*
X-115580Y168274D01*
X-119370Y168274D01*
X-122871Y169724D01*
X-125551Y172404D01*
X-127001Y175905D01*
X-127001Y179695D01*
X-125551Y183196D01*
X-122871Y185876D01*
X-119370Y187326D01*
X-115580Y187326D01*
X-112664Y186118D01*
X-112651Y186114D01*
X-112640Y186108D01*
X-112460Y186056D01*
X-112279Y186001D01*
X-112266Y186000D01*
X-112253Y185996D01*
X-112065Y185981D01*
X-111878Y185963D01*
X-111865Y185965D01*
X-111851Y185964D01*
X-111664Y185986D01*
X-111478Y186005D01*
X-111465Y186009D01*
X-111452Y186011D01*
X-111272Y186069D01*
X-111093Y186125D01*
X-111082Y186131D01*
X-111069Y186135D01*
X-110904Y186228D01*
X-110740Y186318D01*
X-110730Y186327D01*
X-110718Y186333D01*
X-110576Y186456D01*
X-110432Y186577D01*
X-110424Y186588D01*
X-110413Y186596D01*
X-110298Y186745D01*
X-110181Y186892D01*
X-110175Y186904D01*
X-110167Y186915D01*
X-110083Y187083D01*
X-109997Y187250D01*
X-109993Y187263D01*
X-109987Y187275D01*
X-109938Y187457D01*
X-109887Y187638D01*
X-109886Y187651D01*
X-109883Y187664D01*
X-109856Y187995D01*
X-109856Y188405D01*
X-109858Y188432D01*
X-109856Y188458D01*
X-109878Y188632D01*
X-109896Y188806D01*
X-109903Y188831D01*
X-109907Y188858D01*
X-109962Y189023D01*
X-110014Y189191D01*
X-110027Y189214D01*
X-110035Y189239D01*
X-110122Y189391D01*
X-110206Y189545D01*
X-110223Y189565D01*
X-110236Y189588D01*
X-110451Y189841D01*
X-117742Y197133D01*
X-117759Y197163D01*
X-117804Y197217D01*
X-117842Y197277D01*
X-117933Y197372D01*
X-118016Y197472D01*
X-118072Y197517D01*
X-118121Y197568D01*
X-118228Y197642D01*
X-118330Y197724D01*
X-118393Y197757D01*
X-118451Y197798D01*
X-118571Y197850D01*
X-118687Y197910D01*
X-118755Y197930D01*
X-118820Y197958D01*
X-118948Y197985D01*
X-119074Y198021D01*
X-119145Y198027D01*
X-119214Y198042D01*
X-119345Y198044D01*
X-119476Y198054D01*
X-119546Y198046D01*
X-119617Y198047D01*
X-119745Y198023D01*
X-119848Y198011D01*
X-119906Y198013D01*
X-119981Y198025D01*
X-120106Y198021D01*
X-120231Y198025D01*
X-120307Y198013D01*
X-120384Y198010D01*
X-120543Y197975D01*
X-120629Y197961D01*
X-120663Y197949D01*
X-120707Y197939D01*
X-121775Y197609D01*
X-121846Y197579D01*
X-121919Y197558D01*
X-122031Y197501D01*
X-122146Y197453D01*
X-122210Y197410D01*
X-122278Y197375D01*
X-122376Y197297D01*
X-122424Y197264D01*
X-123192Y197148D01*
X-123257Y197131D01*
X-123488Y197080D01*
X-124222Y196853D01*
X-124233Y196857D01*
X-124358Y196871D01*
X-124481Y196895D01*
X-124558Y196894D01*
X-124634Y196903D01*
X-124796Y196891D01*
X-124884Y196891D01*
X-124919Y196883D01*
X-124965Y196880D01*
X-126070Y196713D01*
X-126144Y196694D01*
X-126220Y196685D01*
X-126339Y196645D01*
X-126460Y196614D01*
X-126529Y196581D01*
X-126601Y196556D01*
X-126710Y196494D01*
X-126763Y196468D01*
X-127539Y196468D01*
X-127606Y196461D01*
X-127842Y196445D01*
X-128601Y196331D01*
X-128612Y196336D01*
X-128733Y196369D01*
X-128851Y196410D01*
X-128927Y196421D01*
X-129001Y196440D01*
X-129164Y196454D01*
X-129250Y196466D01*
X-129286Y196464D01*
X-129332Y196467D01*
X-130449Y196467D01*
X-130525Y196460D01*
X-130602Y196461D01*
X-130726Y196440D01*
X-130850Y196427D01*
X-130923Y196405D01*
X-130999Y196391D01*
X-131115Y196346D01*
X-131171Y196328D01*
X-131939Y196444D01*
X-132006Y196447D01*
X-132242Y196467D01*
X-133010Y196466D01*
X-133020Y196473D01*
X-133134Y196523D01*
X-133245Y196582D01*
X-133319Y196604D01*
X-133389Y196635D01*
X-133548Y196672D01*
X-133631Y196697D01*
X-133667Y196700D01*
X-133712Y196711D01*
X-134817Y196877D01*
X-134893Y196881D01*
X-134969Y196894D01*
X-135094Y196891D01*
X-135219Y196897D01*
X-135295Y196886D01*
X-135371Y196884D01*
X-135493Y196856D01*
X-135551Y196847D01*
X-136294Y197076D01*
X-136359Y197089D01*
X-136590Y197143D01*
X-137349Y197258D01*
X-137358Y197266D01*
X-137464Y197333D01*
X-137565Y197407D01*
X-137634Y197440D01*
X-137699Y197480D01*
X-137850Y197541D01*
X-137929Y197578D01*
X-137964Y197587D01*
X-138007Y197604D01*
X-139075Y197933D01*
X-139149Y197948D01*
X-139222Y197972D01*
X-139347Y197988D01*
X-139469Y198013D01*
X-139546Y198013D01*
X-139622Y198022D01*
X-139746Y198013D01*
X-139805Y198013D01*
X-140505Y198350D01*
X-140568Y198373D01*
X-140788Y198461D01*
X-141522Y198687D01*
X-141529Y198696D01*
X-141624Y198778D01*
X-141713Y198867D01*
X-141776Y198909D01*
X-141834Y198959D01*
X-141975Y199042D01*
X-142048Y199090D01*
X-142081Y199104D01*
X-142120Y199127D01*
X-142234Y199182D01*
X-142369Y199231D01*
X-142500Y199287D01*
X-142557Y199299D01*
X-142612Y199319D01*
X-142754Y199341D01*
X-142894Y199370D01*
X-142952Y199371D01*
X-143010Y199380D01*
X-143153Y199373D01*
X-143296Y199374D01*
X-143354Y199363D01*
X-143413Y199361D01*
X-143551Y199326D01*
X-143692Y199299D01*
X-143746Y199277D01*
X-143803Y199262D01*
X-143932Y199201D01*
X-144065Y199147D01*
X-144113Y199114D01*
X-144166Y199089D01*
X-144281Y199003D01*
X-144400Y198924D01*
X-144442Y198883D01*
X-144488Y198847D01*
X-144584Y198741D01*
X-144685Y198640D01*
X-144723Y198585D01*
X-144757Y198547D01*
X-144798Y198476D01*
X-144874Y198367D01*
X-162808Y167303D01*
X-163416Y167723D01*
X-163443Y167735D01*
X-163465Y167753D01*
X-163534Y167774D01*
X-163599Y167801D01*
X-163628Y167802D01*
X-163656Y167810D01*
X-163727Y167802D01*
X-163798Y167802D01*
X-163825Y167791D01*
X-163854Y167788D01*
X-163916Y167753D01*
X-163981Y167725D01*
X-164002Y167704D01*
X-164027Y167690D01*
X-164090Y167613D01*
X-164120Y167582D01*
X-164124Y167572D01*
X-164133Y167562D01*
X-173633Y151062D01*
X-173657Y150989D01*
X-173688Y150918D01*
X-173688Y150895D01*
X-173696Y150873D01*
X-173690Y150796D01*
X-173691Y150719D01*
X-173681Y150695D01*
X-173680Y150675D01*
X-173659Y150635D01*
X-173640Y150583D01*
X-173639Y150578D01*
X-173637Y150576D01*
X-173633Y150563D01*
X-164133Y134063D01*
X-164114Y134042D01*
X-164101Y134015D01*
X-164048Y133968D01*
X-164001Y133914D01*
X-163975Y133902D01*
X-163954Y133882D01*
X-163886Y133859D01*
X-163822Y133828D01*
X-163793Y133827D01*
X-163766Y133818D01*
X-163694Y133822D01*
X-163623Y133819D01*
X-163596Y133829D01*
X-163567Y133831D01*
X-163477Y133874D01*
X-163437Y133888D01*
X-163429Y133896D01*
X-163416Y133902D01*
X-162808Y134322D01*
X-144874Y103258D01*
X-144790Y103142D01*
X-144714Y103021D01*
X-144673Y102979D01*
X-144639Y102931D01*
X-144534Y102834D01*
X-144435Y102730D01*
X-144387Y102697D01*
X-144344Y102657D01*
X-144222Y102582D01*
X-144105Y102500D01*
X-144051Y102477D01*
X-144001Y102446D01*
X-143867Y102397D01*
X-143736Y102340D01*
X-143678Y102327D01*
X-143623Y102307D01*
X-143482Y102285D01*
X-143342Y102255D01*
X-143283Y102254D01*
X-143225Y102245D01*
X-143083Y102252D01*
X-142939Y102250D01*
X-142882Y102261D01*
X-142823Y102263D01*
X-142685Y102298D01*
X-142544Y102324D01*
X-142481Y102348D01*
X-142432Y102360D01*
X-142358Y102396D01*
X-142234Y102443D01*
X-142120Y102498D01*
X-142055Y102538D01*
X-141985Y102569D01*
X-141884Y102642D01*
X-141777Y102708D01*
X-141721Y102760D01*
X-141658Y102804D01*
X-141573Y102896D01*
X-141530Y102936D01*
X-140788Y103164D01*
X-140726Y103191D01*
X-140505Y103275D01*
X-139813Y103608D01*
X-139801Y103606D01*
X-139676Y103611D01*
X-139551Y103606D01*
X-139475Y103618D01*
X-139399Y103621D01*
X-139239Y103656D01*
X-139153Y103670D01*
X-139120Y103682D01*
X-139075Y103692D01*
X-138007Y104021D01*
X-137936Y104051D01*
X-137862Y104072D01*
X-137751Y104129D01*
X-137636Y104177D01*
X-137572Y104220D01*
X-137504Y104255D01*
X-137406Y104333D01*
X-137358Y104366D01*
X-136590Y104482D01*
X-136524Y104498D01*
X-136294Y104549D01*
X-135560Y104775D01*
X-135548Y104771D01*
X-135424Y104757D01*
X-135301Y104734D01*
X-135224Y104734D01*
X-135148Y104726D01*
X-134985Y104737D01*
X-134898Y104738D01*
X-134863Y104745D01*
X-134817Y104748D01*
X-133712Y104914D01*
X-133638Y104933D01*
X-133562Y104943D01*
X-133443Y104983D01*
X-133322Y105013D01*
X-133253Y105047D01*
X-133180Y105071D01*
X-133071Y105133D01*
X-133019Y105159D01*
X-132242Y105158D01*
X-132175Y105165D01*
X-131939Y105181D01*
X-131180Y105295D01*
X-131169Y105290D01*
X-131048Y105257D01*
X-130930Y105216D01*
X-130854Y105205D01*
X-130780Y105185D01*
X-130618Y105172D01*
X-130531Y105160D01*
X-130495Y105162D01*
X-130449Y105158D01*
X-129332Y105157D01*
X-129255Y105165D01*
X-129179Y105163D01*
X-129056Y105185D01*
X-128931Y105197D01*
X-128858Y105220D01*
X-128782Y105233D01*
X-128666Y105279D01*
X-128610Y105296D01*
X-127842Y105180D01*
X-127774Y105176D01*
X-127539Y105157D01*
X-126771Y105157D01*
X-126761Y105150D01*
X-126646Y105099D01*
X-126536Y105041D01*
X-126463Y105019D01*
X-126393Y104988D01*
X-126234Y104951D01*
X-126150Y104926D01*
X-126114Y104923D01*
X-126070Y104912D01*
X-124964Y104745D01*
X-124888Y104741D01*
X-124813Y104728D01*
X-124687Y104731D01*
X-124562Y104725D01*
X-124487Y104736D01*
X-124410Y104738D01*
X-124288Y104766D01*
X-124230Y104774D01*
X-123488Y104545D01*
X-123422Y104532D01*
X-123192Y104477D01*
X-122433Y104363D01*
X-122424Y104354D01*
X-122318Y104288D01*
X-122217Y104213D01*
X-122148Y104180D01*
X-122083Y104140D01*
X-121932Y104079D01*
X-121853Y104042D01*
X-121818Y104033D01*
X-121775Y104016D01*
X-120707Y103686D01*
X-120632Y103671D01*
X-120560Y103647D01*
X-120436Y103631D01*
X-120313Y103606D01*
X-120236Y103606D01*
X-120160Y103597D01*
X-120036Y103606D01*
X-119977Y103606D01*
X-119277Y103268D01*
X-119214Y103245D01*
X-118995Y103157D01*
X-118261Y102931D01*
X-118253Y102921D01*
X-118159Y102839D01*
X-118070Y102751D01*
X-118007Y102708D01*
X-117949Y102658D01*
X-117808Y102576D01*
X-117735Y102527D01*
X-117702Y102513D01*
X-117663Y102490D01*
X-116656Y102005D01*
X-116584Y101979D01*
X-116516Y101944D01*
X-116395Y101910D01*
X-116277Y101867D01*
X-116202Y101855D01*
X-116128Y101835D01*
X-116003Y101825D01*
X-115945Y101816D01*
X-115304Y101379D01*
X-115245Y101346D01*
X-115041Y101227D01*
X-114349Y100893D01*
X-114343Y100883D01*
X-114262Y100788D01*
X-114188Y100687D01*
X-114131Y100635D01*
X-114081Y100577D01*
X-113954Y100474D01*
X-113890Y100416D01*
X-113859Y100397D01*
X-113823Y100368D01*
X-112900Y99738D01*
X-112833Y99702D01*
X-112771Y99657D01*
X-112656Y99606D01*
X-112546Y99546D01*
X-112473Y99523D01*
X-112404Y99491D01*
X-112282Y99463D01*
X-112226Y99446D01*
X-111656Y98917D01*
X-111603Y98877D01*
X-111419Y98728D01*
X-110785Y98295D01*
X-110781Y98284D01*
X-110714Y98178D01*
X-110656Y98067D01*
X-110607Y98008D01*
X-110567Y97943D01*
X-110457Y97823D01*
X-110402Y97755D01*
X-110374Y97732D01*
X-110343Y97698D01*
X-109524Y96937D01*
X-109463Y96891D01*
X-109408Y96838D01*
X-109303Y96770D01*
X-109203Y96694D01*
X-109134Y96661D01*
X-109070Y96619D01*
X-108953Y96573D01*
X-108901Y96548D01*
X-108474Y96013D01*
X-108382Y95918D01*
X-108297Y95818D01*
X-108242Y95774D01*
X-108193Y95724D01*
X-108084Y95650D01*
X-107981Y95568D01*
X-107919Y95536D01*
X-107861Y95497D01*
X-107740Y95445D01*
X-107622Y95386D01*
X-107555Y95367D01*
X-107491Y95340D01*
X-107361Y95313D01*
X-107234Y95278D01*
X-107164Y95272D01*
X-107096Y95258D01*
X-106964Y95258D01*
X-106832Y95248D01*
X-106763Y95257D01*
G37*
G36*
X86676Y329D02*
X86676Y329D01*
X86754Y337D01*
X86773Y348D01*
X86795Y353D01*
X86859Y397D01*
X86927Y435D01*
X86943Y454D01*
X86959Y465D01*
X86983Y503D01*
X87033Y563D01*
X96533Y17063D01*
X96542Y17091D01*
X96558Y17114D01*
X96573Y17184D01*
X96596Y17252D01*
X96593Y17281D01*
X96599Y17309D01*
X96586Y17379D01*
X96580Y17450D01*
X96567Y17476D01*
X96561Y17504D01*
X96521Y17563D01*
X96488Y17627D01*
X96466Y17645D01*
X96450Y17669D01*
X96367Y17726D01*
X96335Y17753D01*
X96324Y17756D01*
X96314Y17764D01*
X95686Y18061D01*
X113619Y49121D01*
X113678Y49252D01*
X113745Y49380D01*
X113761Y49436D01*
X113785Y49488D01*
X113817Y49628D01*
X113857Y49767D01*
X113862Y49824D01*
X113875Y49881D01*
X113879Y50025D01*
X113891Y50168D01*
X113884Y50225D01*
X113886Y50283D01*
X113861Y50425D01*
X113845Y50568D01*
X113827Y50623D01*
X113817Y50680D01*
X113765Y50814D01*
X113721Y50951D01*
X113692Y51001D01*
X113672Y51055D01*
X113594Y51176D01*
X113524Y51302D01*
X113486Y51346D01*
X113455Y51395D01*
X113355Y51498D01*
X113261Y51607D01*
X113210Y51649D01*
X113175Y51685D01*
X113107Y51732D01*
X113003Y51816D01*
X112915Y51876D01*
X112848Y51912D01*
X112786Y51957D01*
X112672Y52008D01*
X112561Y52068D01*
X112488Y52091D01*
X112419Y52122D01*
X112297Y52150D01*
X112241Y52168D01*
X111671Y52696D01*
X111618Y52737D01*
X111434Y52885D01*
X110799Y53317D01*
X110795Y53329D01*
X110728Y53435D01*
X110670Y53546D01*
X110622Y53605D01*
X110581Y53670D01*
X110471Y53790D01*
X110416Y53858D01*
X110388Y53881D01*
X110357Y53915D01*
X109537Y54675D01*
X109476Y54721D01*
X109422Y54774D01*
X109316Y54842D01*
X109216Y54918D01*
X109148Y54951D01*
X109083Y54992D01*
X108966Y55038D01*
X108914Y55064D01*
X108430Y55671D01*
X108382Y55719D01*
X108223Y55893D01*
X108157Y55954D01*
X108013Y56064D01*
X107871Y56176D01*
X107853Y56185D01*
X107836Y56198D01*
X107673Y56276D01*
X107512Y56358D01*
X107492Y56364D01*
X107474Y56373D01*
X107299Y56418D01*
X107124Y56466D01*
X107103Y56468D01*
X107084Y56473D01*
X106904Y56483D01*
X106722Y56496D01*
X106702Y56493D01*
X106682Y56494D01*
X106503Y56468D01*
X106323Y56445D01*
X106304Y56439D01*
X106283Y56436D01*
X106113Y56375D01*
X105941Y56317D01*
X105924Y56307D01*
X105904Y56300D01*
X105749Y56207D01*
X105592Y56116D01*
X105575Y56102D01*
X105560Y56092D01*
X105503Y56040D01*
X105339Y55902D01*
X82399Y32961D01*
X79795Y30357D01*
X26705Y30357D01*
X24101Y32961D01*
X19639Y37423D01*
X19632Y37429D01*
X19626Y37436D01*
X19477Y37556D01*
X19327Y37678D01*
X19319Y37683D01*
X19312Y37688D01*
X19142Y37777D01*
X18972Y37867D01*
X18963Y37870D01*
X18955Y37874D01*
X18770Y37927D01*
X18586Y37982D01*
X18577Y37983D01*
X18568Y37985D01*
X18377Y38001D01*
X18185Y38018D01*
X18176Y38017D01*
X18167Y38018D01*
X17978Y37996D01*
X17784Y37975D01*
X17776Y37972D01*
X17767Y37971D01*
X17585Y37912D01*
X17401Y37853D01*
X17393Y37849D01*
X17384Y37846D01*
X17216Y37751D01*
X17048Y37658D01*
X17042Y37653D01*
X17034Y37648D01*
X16888Y37522D01*
X16741Y37398D01*
X16736Y37391D01*
X16729Y37385D01*
X16612Y37234D01*
X16492Y37082D01*
X16488Y37074D01*
X16482Y37067D01*
X16397Y36895D01*
X16309Y36723D01*
X16307Y36715D01*
X16303Y36707D01*
X16253Y36521D01*
X16201Y36335D01*
X16201Y36326D01*
X16198Y36318D01*
X16171Y35987D01*
X16171Y35802D01*
X16174Y35776D01*
X16172Y35749D01*
X16194Y35575D01*
X16211Y35402D01*
X16219Y35376D01*
X16222Y35349D01*
X16278Y35184D01*
X16329Y35017D01*
X16342Y34993D01*
X16351Y34968D01*
X16438Y34816D01*
X16521Y34663D01*
X16538Y34642D01*
X16551Y34619D01*
X16766Y34366D01*
X37312Y13820D01*
X37312Y13639D01*
X37314Y13612D01*
X37312Y13585D01*
X37334Y13412D01*
X37352Y13238D01*
X37359Y13213D01*
X37363Y13186D01*
X37418Y13020D01*
X37470Y12853D01*
X37483Y12830D01*
X37491Y12804D01*
X37578Y12653D01*
X37661Y12499D01*
X37679Y12479D01*
X37692Y12455D01*
X37907Y12202D01*
X38704Y11405D01*
X39570Y9315D01*
X39570Y7052D01*
X38691Y4931D01*
X38645Y4873D01*
X38522Y4723D01*
X38518Y4715D01*
X38512Y4708D01*
X38424Y4540D01*
X38333Y4368D01*
X38331Y4359D01*
X38327Y4351D01*
X38274Y4168D01*
X38218Y3982D01*
X38218Y3973D01*
X38215Y3964D01*
X38199Y3773D01*
X38182Y3581D01*
X38183Y3572D01*
X38182Y3563D01*
X38204Y3374D01*
X38225Y3181D01*
X38228Y3172D01*
X38229Y3163D01*
X38289Y2980D01*
X38347Y2797D01*
X38351Y2789D01*
X38354Y2780D01*
X38449Y2611D01*
X38542Y2444D01*
X38547Y2438D01*
X38552Y2430D01*
X38678Y2284D01*
X38802Y2137D01*
X38809Y2132D01*
X38815Y2125D01*
X38967Y2007D01*
X39118Y1888D01*
X39126Y1884D01*
X39133Y1878D01*
X39307Y1792D01*
X39477Y1705D01*
X39486Y1703D01*
X39494Y1699D01*
X39681Y1649D01*
X39865Y1597D01*
X39874Y1597D01*
X39882Y1594D01*
X40213Y1567D01*
X67159Y1567D01*
X67102Y852D01*
X67106Y824D01*
X67101Y796D01*
X67118Y726D01*
X67126Y655D01*
X67141Y630D01*
X67147Y603D01*
X67190Y545D01*
X67226Y482D01*
X67248Y465D01*
X67265Y442D01*
X67327Y406D01*
X67384Y362D01*
X67412Y355D01*
X67436Y341D01*
X67536Y324D01*
X67577Y314D01*
X67587Y315D01*
X67600Y313D01*
X86600Y313D01*
X86676Y329D01*
G37*
G36*
X143153Y102252D02*
X143153Y102252D01*
X143296Y102251D01*
X143354Y102262D01*
X143413Y102264D01*
X143551Y102299D01*
X143692Y102326D01*
X143746Y102348D01*
X143803Y102363D01*
X143932Y102424D01*
X144065Y102478D01*
X144113Y102511D01*
X144166Y102536D01*
X144281Y102622D01*
X144400Y102701D01*
X144442Y102742D01*
X144488Y102777D01*
X144584Y102884D01*
X144685Y102985D01*
X144723Y103040D01*
X144757Y103078D01*
X144798Y103149D01*
X144874Y103258D01*
X162808Y134322D01*
X163416Y133902D01*
X163443Y133890D01*
X163465Y133872D01*
X163534Y133852D01*
X163599Y133824D01*
X163628Y133823D01*
X163656Y133815D01*
X163727Y133823D01*
X163798Y133823D01*
X163825Y133834D01*
X163854Y133837D01*
X163916Y133873D01*
X163981Y133900D01*
X164002Y133921D01*
X164027Y133935D01*
X164090Y134012D01*
X164120Y134043D01*
X164124Y134053D01*
X164133Y134063D01*
X173633Y150563D01*
X173643Y150595D01*
X173652Y150608D01*
X173656Y150633D01*
X173657Y150636D01*
X173688Y150707D01*
X173688Y150730D01*
X173696Y150752D01*
X173690Y150829D01*
X173691Y150906D01*
X173681Y150930D01*
X173680Y150950D01*
X173659Y150990D01*
X173633Y151062D01*
X164133Y167562D01*
X164114Y167583D01*
X164101Y167610D01*
X164048Y167657D01*
X164001Y167711D01*
X163975Y167723D01*
X163954Y167743D01*
X163886Y167766D01*
X163822Y167797D01*
X163793Y167798D01*
X163766Y167807D01*
X163694Y167803D01*
X163623Y167806D01*
X163596Y167796D01*
X163567Y167794D01*
X163477Y167751D01*
X163437Y167737D01*
X163429Y167729D01*
X163416Y167723D01*
X162808Y167303D01*
X155610Y179771D01*
X155567Y179831D01*
X155532Y179895D01*
X155450Y179994D01*
X155375Y180098D01*
X155321Y180148D01*
X155274Y180204D01*
X155174Y180285D01*
X155080Y180372D01*
X155018Y180411D01*
X154961Y180457D01*
X154847Y180516D01*
X154737Y180583D01*
X154668Y180608D01*
X154603Y180642D01*
X154480Y180678D01*
X154359Y180722D01*
X154287Y180733D01*
X154216Y180754D01*
X154088Y180764D01*
X153961Y180784D01*
X153888Y180780D01*
X153815Y180786D01*
X153687Y180771D01*
X153559Y180766D01*
X153488Y180748D01*
X153415Y180739D01*
X153293Y180700D01*
X153168Y180669D01*
X153102Y180637D01*
X153032Y180615D01*
X152921Y180551D01*
X152804Y180497D01*
X152746Y180453D01*
X152682Y180417D01*
X152585Y180333D01*
X152482Y180256D01*
X152433Y180201D01*
X152377Y180154D01*
X152299Y180052D01*
X152213Y179956D01*
X152175Y179893D01*
X152130Y179835D01*
X152073Y179721D01*
X152008Y179610D01*
X151984Y179541D01*
X151951Y179475D01*
X151918Y179351D01*
X151876Y179230D01*
X151866Y179157D01*
X151847Y179086D01*
X151833Y178917D01*
X151821Y178831D01*
X151823Y178798D01*
X151819Y178755D01*
X151819Y139032D01*
X149216Y136428D01*
X149215Y136428D01*
X120578Y107790D01*
X120476Y107665D01*
X120369Y107545D01*
X120348Y107510D01*
X120323Y107478D01*
X120247Y107336D01*
X120166Y107197D01*
X120153Y107159D01*
X120134Y107123D01*
X120088Y106969D01*
X120036Y106816D01*
X120031Y106776D01*
X120019Y106737D01*
X120005Y106577D01*
X119984Y106417D01*
X119987Y106376D01*
X119983Y106336D01*
X120000Y106176D01*
X120011Y106015D01*
X120022Y105976D01*
X120026Y105936D01*
X120075Y105782D01*
X120117Y105627D01*
X120136Y105591D01*
X120148Y105552D01*
X120226Y105411D01*
X120298Y105267D01*
X120323Y105235D01*
X120343Y105199D01*
X120447Y105077D01*
X120546Y104950D01*
X120577Y104923D01*
X120603Y104892D01*
X120730Y104793D01*
X120852Y104688D01*
X120887Y104668D01*
X120919Y104643D01*
X121063Y104570D01*
X121203Y104491D01*
X121242Y104479D01*
X121278Y104460D01*
X121433Y104417D01*
X121586Y104368D01*
X121627Y104363D01*
X121666Y104352D01*
X121827Y104341D01*
X121986Y104323D01*
X122032Y104326D01*
X122067Y104323D01*
X122154Y104334D01*
X122318Y104345D01*
X123192Y104477D01*
X123257Y104494D01*
X123488Y104545D01*
X124222Y104772D01*
X124233Y104768D01*
X124358Y104754D01*
X124481Y104730D01*
X124558Y104731D01*
X124634Y104722D01*
X124796Y104734D01*
X124884Y104734D01*
X124919Y104742D01*
X124965Y104745D01*
X126070Y104912D01*
X126144Y104931D01*
X126220Y104940D01*
X126339Y104980D01*
X126460Y105011D01*
X126529Y105044D01*
X126601Y105069D01*
X126710Y105131D01*
X126763Y105157D01*
X127539Y105157D01*
X127606Y105164D01*
X127842Y105180D01*
X128601Y105294D01*
X128612Y105289D01*
X128733Y105257D01*
X128851Y105215D01*
X128927Y105204D01*
X129001Y105184D01*
X129164Y105171D01*
X129250Y105159D01*
X129286Y105161D01*
X129332Y105157D01*
X130449Y105158D01*
X130525Y105165D01*
X130602Y105164D01*
X130726Y105185D01*
X130850Y105198D01*
X130923Y105220D01*
X130999Y105234D01*
X131115Y105279D01*
X131171Y105297D01*
X131939Y105181D01*
X132006Y105178D01*
X132242Y105158D01*
X133010Y105159D01*
X133020Y105152D01*
X133135Y105102D01*
X133245Y105043D01*
X133319Y105021D01*
X133389Y104990D01*
X133548Y104953D01*
X133631Y104928D01*
X133667Y104925D01*
X133712Y104914D01*
X134817Y104748D01*
X134893Y104744D01*
X134969Y104731D01*
X135094Y104734D01*
X135219Y104728D01*
X135295Y104739D01*
X135371Y104741D01*
X135493Y104769D01*
X135551Y104778D01*
X136294Y104549D01*
X136359Y104536D01*
X136590Y104482D01*
X137349Y104367D01*
X137358Y104359D01*
X137464Y104292D01*
X137564Y104218D01*
X137634Y104185D01*
X137699Y104145D01*
X137850Y104084D01*
X137929Y104047D01*
X137964Y104038D01*
X138007Y104021D01*
X139075Y103692D01*
X139150Y103677D01*
X139222Y103653D01*
X139347Y103637D01*
X139469Y103612D01*
X139546Y103612D01*
X139622Y103603D01*
X139746Y103612D01*
X139805Y103612D01*
X140505Y103275D01*
X140568Y103252D01*
X140788Y103164D01*
X141522Y102938D01*
X141529Y102929D01*
X141624Y102847D01*
X141712Y102758D01*
X141776Y102716D01*
X141834Y102666D01*
X141975Y102583D01*
X142047Y102535D01*
X142081Y102521D01*
X142120Y102498D01*
X142234Y102443D01*
X142369Y102394D01*
X142500Y102338D01*
X142557Y102326D01*
X142612Y102306D01*
X142754Y102284D01*
X142894Y102255D01*
X142952Y102254D01*
X143010Y102245D01*
X143153Y102252D01*
G37*
G36*
X131941Y198380D02*
X131941Y198380D01*
X131984Y198379D01*
X135977Y198979D01*
X136007Y198990D01*
X136050Y198996D01*
X139909Y200185D01*
X139937Y200200D01*
X139978Y200212D01*
X143616Y201963D01*
X143638Y201979D01*
X143664Y201989D01*
X143717Y202039D01*
X143775Y202083D01*
X143788Y202106D01*
X143808Y202125D01*
X143838Y202192D01*
X143874Y202255D01*
X143877Y202282D01*
X143888Y202307D01*
X143889Y202380D01*
X143898Y202453D01*
X143890Y202479D01*
X143890Y202506D01*
X143854Y202605D01*
X143842Y202644D01*
X143836Y202651D01*
X143832Y202662D01*
X116832Y249462D01*
X116814Y249482D01*
X116803Y249507D01*
X116749Y249556D01*
X116701Y249611D01*
X116676Y249623D01*
X116656Y249641D01*
X116587Y249665D01*
X116521Y249697D01*
X116494Y249698D01*
X116469Y249707D01*
X116396Y249702D01*
X116323Y249706D01*
X116297Y249696D01*
X116270Y249695D01*
X116174Y249651D01*
X116136Y249636D01*
X116129Y249630D01*
X116119Y249625D01*
X112782Y247352D01*
X112760Y247329D01*
X112724Y247305D01*
X109763Y244560D01*
X109744Y244534D01*
X109712Y244505D01*
X107194Y241349D01*
X107179Y241321D01*
X107152Y241288D01*
X105132Y237791D01*
X105122Y237761D01*
X105099Y237724D01*
X103623Y233966D01*
X103618Y233935D01*
X103601Y233895D01*
X102701Y229959D01*
X102701Y229927D01*
X102690Y229885D01*
X102387Y225859D01*
X102390Y225835D01*
X102387Y225815D01*
X102389Y225806D01*
X102387Y225784D01*
X102688Y221758D01*
X102696Y221727D01*
X102699Y221684D01*
X103596Y217747D01*
X103609Y217718D01*
X103618Y217676D01*
X105092Y213917D01*
X105109Y213890D01*
X105124Y213849D01*
X107142Y210352D01*
X107163Y210328D01*
X107184Y210290D01*
X109700Y207133D01*
X109725Y207112D01*
X109751Y207078D01*
X112710Y204331D01*
X112737Y204314D01*
X112768Y204284D01*
X116104Y202009D01*
X116133Y201996D01*
X116168Y201971D01*
X119806Y200218D01*
X119836Y200211D01*
X119875Y200191D01*
X123733Y199000D01*
X123765Y198997D01*
X123806Y198983D01*
X127798Y198380D01*
X127830Y198382D01*
X127872Y198374D01*
X131910Y198373D01*
X131941Y198380D01*
G37*
G36*
X-127872Y198374D02*
X-127872Y198374D01*
X-127841Y198381D01*
X-127798Y198380D01*
X-123806Y198983D01*
X-123776Y198994D01*
X-123733Y199000D01*
X-119875Y200191D01*
X-119847Y200206D01*
X-119806Y200218D01*
X-116168Y201971D01*
X-116143Y201991D01*
X-116104Y202009D01*
X-112768Y204284D01*
X-112746Y204307D01*
X-112710Y204331D01*
X-109751Y207078D01*
X-109732Y207104D01*
X-109700Y207133D01*
X-107184Y210290D01*
X-107169Y210319D01*
X-107142Y210352D01*
X-105124Y213849D01*
X-105114Y213880D01*
X-105092Y213917D01*
X-103618Y217676D01*
X-103612Y217707D01*
X-103596Y217747D01*
X-102699Y221684D01*
X-102698Y221716D01*
X-102688Y221758D01*
X-102387Y225784D01*
X-102391Y225816D01*
X-102390Y225832D01*
X-102387Y225848D01*
X-102388Y225852D01*
X-102387Y225859D01*
X-102690Y229885D01*
X-102699Y229916D01*
X-102701Y229959D01*
X-103601Y233895D01*
X-103614Y233924D01*
X-103623Y233966D01*
X-105099Y237724D01*
X-105117Y237751D01*
X-105132Y237791D01*
X-107152Y241288D01*
X-107173Y241311D01*
X-107194Y241349D01*
X-109712Y244505D01*
X-109737Y244526D01*
X-109763Y244560D01*
X-112724Y247305D01*
X-112751Y247322D01*
X-112782Y247352D01*
X-116119Y249625D01*
X-116144Y249636D01*
X-116165Y249653D01*
X-116235Y249674D01*
X-116302Y249702D01*
X-116330Y249702D01*
X-116356Y249710D01*
X-116428Y249702D01*
X-116501Y249701D01*
X-116526Y249691D01*
X-116553Y249688D01*
X-116617Y249652D01*
X-116684Y249623D01*
X-116703Y249604D01*
X-116726Y249590D01*
X-116794Y249509D01*
X-116822Y249480D01*
X-116825Y249471D01*
X-116832Y249462D01*
X-143832Y202662D01*
X-143841Y202636D01*
X-143857Y202614D01*
X-143872Y202543D01*
X-143896Y202473D01*
X-143893Y202446D01*
X-143899Y202420D01*
X-143886Y202348D01*
X-143880Y202275D01*
X-143867Y202251D01*
X-143862Y202224D01*
X-143822Y202164D01*
X-143788Y202099D01*
X-143767Y202081D01*
X-143752Y202059D01*
X-143666Y201998D01*
X-143635Y201972D01*
X-143626Y201969D01*
X-143616Y201963D01*
X-139978Y200212D01*
X-139947Y200204D01*
X-139909Y200185D01*
X-136050Y198996D01*
X-136018Y198993D01*
X-135977Y198979D01*
X-131984Y198379D01*
X-131953Y198380D01*
X-131910Y198373D01*
X-127872Y198374D01*
G37*
G36*
X116428Y51923D02*
X116428Y51923D01*
X116501Y51924D01*
X116526Y51934D01*
X116553Y51937D01*
X116617Y51973D01*
X116684Y52002D01*
X116703Y52021D01*
X116726Y52035D01*
X116794Y52116D01*
X116822Y52145D01*
X116825Y52154D01*
X116832Y52163D01*
X143832Y98963D01*
X143841Y98989D01*
X143857Y99011D01*
X143872Y99082D01*
X143896Y99152D01*
X143893Y99179D01*
X143899Y99205D01*
X143886Y99277D01*
X143880Y99350D01*
X143867Y99374D01*
X143862Y99401D01*
X143822Y99462D01*
X143788Y99526D01*
X143767Y99544D01*
X143752Y99566D01*
X143666Y99627D01*
X143635Y99653D01*
X143626Y99656D01*
X143616Y99662D01*
X139978Y101413D01*
X139947Y101421D01*
X139909Y101440D01*
X136050Y102629D01*
X136018Y102632D01*
X135977Y102646D01*
X131984Y103246D01*
X131953Y103245D01*
X131910Y103252D01*
X127872Y103251D01*
X127841Y103244D01*
X127798Y103245D01*
X123806Y102642D01*
X123776Y102631D01*
X123733Y102625D01*
X119875Y101434D01*
X119847Y101419D01*
X119806Y101407D01*
X116168Y99654D01*
X116143Y99634D01*
X116104Y99616D01*
X112768Y97341D01*
X112746Y97318D01*
X112710Y97294D01*
X109751Y94547D01*
X109732Y94521D01*
X109700Y94492D01*
X107184Y91335D01*
X107169Y91306D01*
X107142Y91273D01*
X105124Y87776D01*
X105114Y87745D01*
X105092Y87708D01*
X103618Y83949D01*
X103612Y83918D01*
X103596Y83878D01*
X102699Y79941D01*
X102698Y79909D01*
X102688Y79867D01*
X102387Y75841D01*
X102391Y75809D01*
X102387Y75766D01*
X102690Y71740D01*
X102699Y71709D01*
X102701Y71666D01*
X103601Y67730D01*
X103614Y67701D01*
X103623Y67659D01*
X105099Y63901D01*
X105117Y63874D01*
X105132Y63834D01*
X107152Y60338D01*
X107173Y60314D01*
X107194Y60276D01*
X109712Y57120D01*
X109737Y57100D01*
X109763Y57065D01*
X112724Y54320D01*
X112751Y54303D01*
X112782Y54273D01*
X116119Y52000D01*
X116144Y51989D01*
X116165Y51972D01*
X116235Y51951D01*
X116302Y51923D01*
X116330Y51923D01*
X116356Y51915D01*
X116428Y51923D01*
G37*
G36*
X-116396Y51923D02*
X-116396Y51923D01*
X-116323Y51919D01*
X-116297Y51929D01*
X-116270Y51930D01*
X-116174Y51974D01*
X-116136Y51989D01*
X-116129Y51995D01*
X-116119Y52000D01*
X-112782Y54273D01*
X-112760Y54296D01*
X-112724Y54320D01*
X-109763Y57065D01*
X-109744Y57091D01*
X-109712Y57120D01*
X-107194Y60276D01*
X-107179Y60304D01*
X-107152Y60338D01*
X-105132Y63834D01*
X-105122Y63864D01*
X-105099Y63901D01*
X-103623Y67659D01*
X-103618Y67690D01*
X-103601Y67730D01*
X-102701Y71666D01*
X-102701Y71698D01*
X-102690Y71740D01*
X-102387Y75766D01*
X-102391Y75798D01*
X-102387Y75841D01*
X-102688Y79867D01*
X-102696Y79898D01*
X-102699Y79941D01*
X-103596Y83878D01*
X-103609Y83907D01*
X-103618Y83949D01*
X-105092Y87708D01*
X-105109Y87735D01*
X-105124Y87776D01*
X-107142Y91273D01*
X-107163Y91297D01*
X-107184Y91335D01*
X-109700Y94492D01*
X-109725Y94513D01*
X-109751Y94547D01*
X-112710Y97294D01*
X-112737Y97311D01*
X-112768Y97341D01*
X-116104Y99616D01*
X-116133Y99629D01*
X-116168Y99654D01*
X-119806Y101407D01*
X-119836Y101414D01*
X-119875Y101434D01*
X-123733Y102625D01*
X-123765Y102628D01*
X-123806Y102642D01*
X-127798Y103245D01*
X-127830Y103243D01*
X-127872Y103251D01*
X-131910Y103252D01*
X-131941Y103246D01*
X-131984Y103246D01*
X-135977Y102646D01*
X-136007Y102635D01*
X-136050Y102629D01*
X-139909Y101440D01*
X-139937Y101425D01*
X-139978Y101413D01*
X-143616Y99662D01*
X-143638Y99646D01*
X-143664Y99636D01*
X-143717Y99586D01*
X-143775Y99542D01*
X-143788Y99519D01*
X-143808Y99500D01*
X-143838Y99433D01*
X-143874Y99370D01*
X-143877Y99343D01*
X-143888Y99318D01*
X-143889Y99245D01*
X-143898Y99172D01*
X-143890Y99146D01*
X-143890Y99119D01*
X-143854Y99020D01*
X-143842Y98981D01*
X-143836Y98974D01*
X-143832Y98963D01*
X-116832Y52163D01*
X-116814Y52143D01*
X-116803Y52118D01*
X-116749Y52069D01*
X-116701Y52014D01*
X-116676Y52002D01*
X-116656Y51984D01*
X-116587Y51960D01*
X-116521Y51928D01*
X-116494Y51927D01*
X-116469Y51918D01*
X-116396Y51923D01*
G37*
G36*
X27027Y319D02*
X27027Y319D01*
X27054Y316D01*
X27123Y338D01*
X27195Y353D01*
X27217Y368D01*
X27243Y377D01*
X27299Y424D01*
X27359Y465D01*
X27373Y488D01*
X27394Y506D01*
X27427Y571D01*
X27466Y633D01*
X27470Y660D01*
X27482Y684D01*
X27492Y789D01*
X27499Y829D01*
X27497Y838D01*
X27498Y850D01*
X27196Y4874D01*
X27188Y4905D01*
X27185Y4948D01*
X26287Y8882D01*
X26274Y8911D01*
X26265Y8953D01*
X24791Y12710D01*
X24774Y12737D01*
X24759Y12777D01*
X22741Y16272D01*
X22720Y16296D01*
X22699Y16333D01*
X20183Y19488D01*
X20158Y19509D01*
X20132Y19543D01*
X17174Y22288D01*
X17147Y22304D01*
X17115Y22334D01*
X13781Y24608D01*
X13752Y24620D01*
X13717Y24645D01*
X10081Y26396D01*
X10050Y26404D01*
X10011Y26423D01*
X6155Y27613D01*
X6124Y27616D01*
X6082Y27629D01*
X2092Y28231D01*
X2060Y28229D01*
X2018Y28236D01*
X-2018Y28236D01*
X-2049Y28230D01*
X-2092Y28231D01*
X-6082Y27629D01*
X-6112Y27618D01*
X-6155Y27613D01*
X-10011Y26423D01*
X-10039Y26408D01*
X-10081Y26396D01*
X-13717Y24645D01*
X-13742Y24626D01*
X-13781Y24608D01*
X-17115Y22334D01*
X-17138Y22312D01*
X-17174Y22288D01*
X-20132Y19543D01*
X-20151Y19517D01*
X-20183Y19488D01*
X-22699Y16333D01*
X-22713Y16305D01*
X-22741Y16272D01*
X-24759Y12777D01*
X-24769Y12747D01*
X-24791Y12710D01*
X-26265Y8953D01*
X-26271Y8922D01*
X-26287Y8882D01*
X-27185Y4948D01*
X-27186Y4916D01*
X-27196Y4874D01*
X-27498Y850D01*
X-27494Y823D01*
X-27499Y796D01*
X-27482Y725D01*
X-27473Y653D01*
X-27459Y629D01*
X-27453Y603D01*
X-27410Y544D01*
X-27373Y481D01*
X-27351Y464D01*
X-27335Y442D01*
X-27272Y405D01*
X-27214Y361D01*
X-27187Y355D01*
X-27164Y341D01*
X-27060Y323D01*
X-27021Y314D01*
X-27011Y315D01*
X-27000Y313D01*
X27000Y313D01*
X27027Y319D01*
G37*
G36*
X27165Y83467D02*
X27165Y83467D01*
X27264Y83470D01*
X27294Y83479D01*
X33203Y83479D01*
X33302Y83491D01*
X33401Y83494D01*
X33459Y83511D01*
X33519Y83519D01*
X33611Y83555D01*
X33706Y83583D01*
X33758Y83613D01*
X33815Y83636D01*
X33895Y83694D01*
X33980Y83744D01*
X34055Y83810D01*
X34072Y83822D01*
X34080Y83832D01*
X34101Y83850D01*
X40166Y89915D01*
X42547Y92296D01*
X54956Y92296D01*
X55074Y92311D01*
X55192Y92318D01*
X55231Y92331D01*
X55271Y92336D01*
X55382Y92380D01*
X55495Y92417D01*
X55529Y92438D01*
X55567Y92453D01*
X55663Y92523D01*
X55764Y92587D01*
X55791Y92616D01*
X55824Y92640D01*
X55900Y92732D01*
X55982Y92818D01*
X56001Y92854D01*
X56027Y92885D01*
X56078Y92993D01*
X56135Y93097D01*
X56145Y93136D01*
X56162Y93173D01*
X56185Y93289D01*
X56215Y93405D01*
X56218Y93465D01*
X56222Y93485D01*
X56221Y93505D01*
X56225Y93565D01*
X56225Y94694D01*
X56735Y95927D01*
X56738Y95935D01*
X56742Y95944D01*
X56780Y96089D01*
X56819Y96233D01*
X56819Y96243D01*
X56822Y96252D01*
X56832Y96412D01*
X56832Y141288D01*
X56817Y141406D01*
X56809Y141524D01*
X56797Y141563D01*
X56792Y141603D01*
X56748Y141714D01*
X56711Y141827D01*
X56690Y141861D01*
X56675Y141899D01*
X56605Y141995D01*
X56541Y142096D01*
X56512Y142123D01*
X56488Y142156D01*
X56396Y142232D01*
X56310Y142314D01*
X56274Y142333D01*
X56243Y142359D01*
X56135Y142410D01*
X56031Y142467D01*
X55992Y142477D01*
X55955Y142494D01*
X55839Y142517D01*
X55723Y142547D01*
X55663Y142550D01*
X55643Y142554D01*
X55623Y142553D01*
X55563Y142557D01*
X42863Y142557D01*
X42744Y142542D01*
X42626Y142534D01*
X42587Y142522D01*
X42547Y142517D01*
X42436Y142473D01*
X42323Y142436D01*
X42289Y142415D01*
X42251Y142400D01*
X42155Y142330D01*
X42054Y142266D01*
X42027Y142237D01*
X41994Y142213D01*
X41918Y142121D01*
X41836Y142035D01*
X41817Y141999D01*
X41791Y141968D01*
X41740Y141860D01*
X41683Y141756D01*
X41673Y141717D01*
X41656Y141680D01*
X41633Y141564D01*
X41603Y141448D01*
X41600Y141388D01*
X41596Y141368D01*
X41597Y141348D01*
X41593Y141288D01*
X41593Y102126D01*
X35987Y96519D01*
X26988Y96519D01*
X26869Y96504D01*
X26751Y96497D01*
X26712Y96484D01*
X26672Y96479D01*
X26561Y96436D01*
X26448Y96399D01*
X26414Y96377D01*
X26376Y96362D01*
X26280Y96293D01*
X26179Y96229D01*
X26152Y96199D01*
X26119Y96176D01*
X26043Y96084D01*
X25961Y95997D01*
X25942Y95962D01*
X25916Y95931D01*
X25865Y95823D01*
X25808Y95719D01*
X25798Y95679D01*
X25781Y95643D01*
X25758Y95526D01*
X25728Y95411D01*
X25725Y95351D01*
X25721Y95331D01*
X25722Y95310D01*
X25718Y95250D01*
X25718Y84724D01*
X25733Y84606D01*
X25741Y84487D01*
X25753Y84449D01*
X25758Y84408D01*
X25802Y84298D01*
X25839Y84185D01*
X25860Y84150D01*
X25875Y84113D01*
X25945Y84017D01*
X26009Y83916D01*
X26038Y83888D01*
X26062Y83855D01*
X26154Y83779D01*
X26240Y83698D01*
X26276Y83678D01*
X26307Y83653D01*
X26415Y83602D01*
X26519Y83544D01*
X26558Y83534D01*
X26595Y83517D01*
X26711Y83495D01*
X26827Y83465D01*
X26887Y83461D01*
X26907Y83457D01*
X26927Y83459D01*
X26988Y83455D01*
X27067Y83455D01*
X27165Y83467D01*
G37*
G36*
X-100790Y61899D02*
X-100790Y61899D01*
X-100776Y61898D01*
X-100592Y61924D01*
X-100405Y61948D01*
X-100392Y61952D01*
X-100378Y61954D01*
X-100200Y62017D01*
X-100024Y62076D01*
X-100011Y62083D01*
X-99998Y62088D01*
X-99837Y62184D01*
X-99675Y62277D01*
X-99663Y62287D01*
X-99652Y62294D01*
X-99602Y62339D01*
X-99422Y62492D01*
X-97967Y63947D01*
X-95363Y66551D01*
X-69279Y66551D01*
X-69253Y66553D01*
X-69226Y66551D01*
X-69052Y66573D01*
X-68879Y66591D01*
X-68853Y66598D01*
X-68826Y66602D01*
X-68661Y66657D01*
X-68494Y66709D01*
X-68470Y66722D01*
X-68445Y66730D01*
X-68293Y66817D01*
X-68140Y66901D01*
X-68119Y66918D01*
X-68096Y66931D01*
X-67843Y67146D01*
X-67033Y67955D01*
X-67016Y67976D01*
X-66996Y67994D01*
X-66889Y68132D01*
X-66778Y68267D01*
X-66766Y68291D01*
X-66749Y68312D01*
X-66671Y68469D01*
X-66589Y68623D01*
X-66582Y68648D01*
X-66570Y68672D01*
X-66524Y68842D01*
X-66475Y69009D01*
X-66472Y69035D01*
X-66465Y69061D01*
X-66438Y69392D01*
X-66438Y74446D01*
X-65010Y75874D01*
X-62730Y78154D01*
X-62724Y78161D01*
X-62718Y78166D01*
X-62597Y78316D01*
X-62475Y78465D01*
X-62471Y78473D01*
X-62465Y78480D01*
X-62377Y78650D01*
X-62286Y78821D01*
X-62284Y78830D01*
X-62280Y78837D01*
X-62227Y79021D01*
X-62172Y79207D01*
X-62171Y79216D01*
X-62168Y79224D01*
X-62153Y79415D01*
X-62135Y79608D01*
X-62136Y79617D01*
X-62136Y79626D01*
X-62158Y79815D01*
X-62179Y80008D01*
X-62181Y80017D01*
X-62182Y80025D01*
X-62242Y80207D01*
X-62300Y80392D01*
X-62304Y80400D01*
X-62307Y80408D01*
X-62402Y80577D01*
X-62495Y80744D01*
X-62501Y80751D01*
X-62505Y80759D01*
X-62631Y80905D01*
X-62755Y81051D01*
X-62763Y81057D01*
X-62768Y81064D01*
X-62920Y81181D01*
X-63071Y81301D01*
X-63079Y81305D01*
X-63086Y81310D01*
X-63259Y81396D01*
X-63430Y81483D01*
X-63439Y81486D01*
X-63447Y81490D01*
X-63633Y81540D01*
X-63818Y81591D01*
X-63827Y81592D01*
X-63836Y81594D01*
X-64166Y81621D01*
X-77331Y81621D01*
X-77357Y81619D01*
X-77384Y81621D01*
X-77558Y81599D01*
X-77731Y81581D01*
X-77757Y81574D01*
X-77783Y81570D01*
X-77949Y81515D01*
X-78116Y81463D01*
X-78140Y81450D01*
X-78165Y81442D01*
X-78317Y81355D01*
X-78470Y81271D01*
X-78491Y81254D01*
X-78514Y81241D01*
X-78767Y81026D01*
X-79378Y80415D01*
X-81469Y79549D01*
X-83731Y79549D01*
X-85822Y80415D01*
X-87422Y82015D01*
X-87577Y82390D01*
X-87588Y82410D01*
X-87595Y82431D01*
X-87683Y82587D01*
X-87767Y82745D01*
X-87782Y82762D01*
X-87793Y82782D01*
X-87910Y82917D01*
X-88024Y83056D01*
X-88041Y83070D01*
X-88056Y83087D01*
X-88197Y83196D01*
X-88336Y83309D01*
X-88356Y83320D01*
X-88374Y83333D01*
X-88534Y83413D01*
X-88693Y83496D01*
X-88714Y83503D01*
X-88734Y83513D01*
X-88908Y83559D01*
X-89079Y83609D01*
X-89102Y83611D01*
X-89123Y83617D01*
X-89454Y83644D01*
X-92427Y83644D01*
X-93543Y84761D01*
X-93543Y93144D01*
X-93544Y93153D01*
X-93543Y93162D01*
X-93564Y93355D01*
X-93583Y93545D01*
X-93586Y93553D01*
X-93587Y93562D01*
X-93645Y93747D01*
X-93701Y93930D01*
X-93706Y93937D01*
X-93708Y93946D01*
X-93801Y94114D01*
X-93893Y94284D01*
X-93899Y94291D01*
X-93903Y94298D01*
X-94028Y94445D01*
X-94151Y94593D01*
X-94158Y94598D01*
X-94164Y94605D01*
X-94315Y94725D01*
X-94465Y94845D01*
X-94472Y94849D01*
X-94479Y94855D01*
X-94652Y94943D01*
X-94822Y95031D01*
X-94830Y95033D01*
X-94838Y95037D01*
X-95025Y95089D01*
X-95209Y95142D01*
X-95218Y95143D01*
X-95226Y95145D01*
X-95419Y95159D01*
X-95610Y95175D01*
X-95619Y95174D01*
X-95628Y95175D01*
X-95820Y95150D01*
X-96010Y95128D01*
X-96018Y95125D01*
X-96027Y95124D01*
X-96209Y95063D01*
X-96393Y95003D01*
X-96401Y94999D01*
X-96409Y94996D01*
X-96576Y94900D01*
X-96743Y94805D01*
X-96750Y94800D01*
X-96758Y94795D01*
X-97011Y94580D01*
X-102315Y89277D01*
X-102418Y89150D01*
X-102527Y89027D01*
X-102546Y88994D01*
X-102570Y88965D01*
X-102646Y88821D01*
X-102729Y88678D01*
X-102743Y88638D01*
X-102758Y88609D01*
X-102783Y88526D01*
X-102840Y88366D01*
X-102855Y88312D01*
X-102865Y88252D01*
X-102873Y88223D01*
X-102874Y88214D01*
X-102889Y88164D01*
X-102900Y88039D01*
X-102920Y87915D01*
X-102917Y87839D01*
X-102924Y87763D01*
X-102910Y87638D01*
X-102906Y87513D01*
X-102888Y87438D01*
X-102879Y87363D01*
X-102832Y87206D01*
X-102812Y87121D01*
X-102797Y87089D01*
X-102784Y87045D01*
X-102376Y86005D01*
X-102341Y85937D01*
X-102315Y85865D01*
X-102250Y85758D01*
X-102192Y85646D01*
X-102145Y85586D01*
X-102105Y85521D01*
X-102020Y85429D01*
X-101984Y85383D01*
X-101811Y84626D01*
X-101789Y84562D01*
X-101722Y84336D01*
X-101441Y83621D01*
X-101444Y83609D01*
X-101449Y83484D01*
X-101463Y83359D01*
X-101457Y83283D01*
X-101460Y83207D01*
X-101437Y83045D01*
X-101429Y82958D01*
X-101419Y82924D01*
X-101413Y82878D01*
X-101164Y81788D01*
X-101140Y81716D01*
X-101125Y81641D01*
X-101076Y81526D01*
X-101036Y81407D01*
X-100998Y81340D01*
X-100969Y81270D01*
X-100898Y81166D01*
X-100869Y81116D01*
X-100811Y80341D01*
X-100799Y80275D01*
X-100766Y80041D01*
X-100595Y79292D01*
X-100600Y79281D01*
X-100623Y79158D01*
X-100656Y79037D01*
X-100661Y78960D01*
X-100675Y78885D01*
X-100677Y78722D01*
X-100682Y78635D01*
X-100677Y78599D01*
X-100678Y78553D01*
X-100595Y77439D01*
X-100581Y77363D01*
X-100578Y77287D01*
X-100547Y77166D01*
X-100525Y77042D01*
X-100497Y76971D01*
X-100478Y76897D01*
X-100424Y76784D01*
X-100403Y76729D01*
X-100461Y75955D01*
X-100459Y75887D01*
X-100461Y75651D01*
X-100404Y74885D01*
X-100410Y74875D01*
X-100452Y74757D01*
X-100502Y74642D01*
X-100518Y74567D01*
X-100544Y74495D01*
X-100569Y74334D01*
X-100588Y74249D01*
X-100588Y74213D01*
X-100596Y74167D01*
X-100680Y73053D01*
X-100678Y72976D01*
X-100685Y72900D01*
X-100673Y72776D01*
X-100670Y72650D01*
X-100653Y72576D01*
X-100645Y72500D01*
X-100609Y72380D01*
X-100596Y72323D01*
X-100769Y71566D01*
X-100777Y71499D01*
X-100814Y71265D01*
X-100872Y70500D01*
X-100879Y70490D01*
X-100938Y70380D01*
X-101005Y70274D01*
X-101032Y70202D01*
X-101068Y70135D01*
X-101117Y69979D01*
X-101148Y69897D01*
X-101154Y69862D01*
X-101168Y69818D01*
X-101417Y68729D01*
X-101427Y68653D01*
X-101446Y68579D01*
X-101452Y68454D01*
X-101468Y68329D01*
X-101462Y68253D01*
X-101466Y68177D01*
X-101447Y68053D01*
X-101443Y67994D01*
X-101727Y67271D01*
X-101745Y67206D01*
X-101817Y66981D01*
X-101988Y66233D01*
X-101997Y66224D01*
X-102071Y66124D01*
X-102153Y66029D01*
X-102191Y65962D01*
X-102236Y65901D01*
X-102308Y65754D01*
X-102351Y65678D01*
X-102362Y65644D01*
X-102382Y65603D01*
X-102749Y64671D01*
X-102799Y64491D01*
X-102853Y64311D01*
X-102854Y64297D01*
X-102858Y64283D01*
X-102872Y64098D01*
X-102889Y63910D01*
X-102888Y63896D01*
X-102889Y63882D01*
X-102866Y63697D01*
X-102846Y63510D01*
X-102842Y63496D01*
X-102840Y63482D01*
X-102781Y63305D01*
X-102724Y63126D01*
X-102717Y63113D01*
X-102713Y63100D01*
X-102620Y62937D01*
X-102530Y62774D01*
X-102520Y62763D01*
X-102513Y62750D01*
X-102390Y62609D01*
X-102269Y62467D01*
X-102258Y62458D01*
X-102248Y62447D01*
X-102100Y62333D01*
X-101953Y62217D01*
X-101940Y62211D01*
X-101929Y62202D01*
X-101761Y62120D01*
X-101594Y62035D01*
X-101580Y62031D01*
X-101568Y62025D01*
X-101387Y61977D01*
X-101206Y61927D01*
X-101192Y61926D01*
X-101178Y61922D01*
X-100993Y61911D01*
X-100805Y61897D01*
X-100790Y61899D01*
G37*
%LPC*%
G36*
X-62220Y200024D02*
X-62220Y200024D01*
X-65721Y201474D01*
X-68401Y204154D01*
X-69851Y207655D01*
X-69851Y211445D01*
X-68401Y214946D01*
X-65721Y217626D01*
X-62220Y219076D01*
X-58430Y219076D01*
X-54929Y217626D01*
X-52249Y214946D01*
X-50799Y211445D01*
X-50799Y207655D01*
X-52249Y204154D01*
X-54929Y201474D01*
X-58430Y200024D01*
X-62220Y200024D01*
G37*
%LPD*%
%LPC*%
G36*
X13980Y200024D02*
X13980Y200024D01*
X10479Y201474D01*
X7799Y204154D01*
X6349Y207655D01*
X6349Y211445D01*
X7799Y214946D01*
X10479Y217626D01*
X13980Y219076D01*
X17770Y219076D01*
X21271Y217626D01*
X23951Y214946D01*
X25401Y211445D01*
X25401Y207655D01*
X23951Y204154D01*
X21271Y201474D01*
X17770Y200024D01*
X13980Y200024D01*
G37*
%LPD*%
%LPC*%
G36*
X-36820Y200024D02*
X-36820Y200024D01*
X-40321Y201474D01*
X-43001Y204154D01*
X-44451Y207655D01*
X-44451Y211445D01*
X-43001Y214946D01*
X-40321Y217626D01*
X-36820Y219076D01*
X-33030Y219076D01*
X-29529Y217626D01*
X-26849Y214946D01*
X-25399Y211445D01*
X-25399Y207655D01*
X-26849Y204154D01*
X-29529Y201474D01*
X-33030Y200024D01*
X-36820Y200024D01*
G37*
%LPD*%
%LPC*%
G36*
X-11420Y200024D02*
X-11420Y200024D01*
X-14921Y201474D01*
X-17601Y204154D01*
X-19051Y207655D01*
X-19051Y211445D01*
X-17601Y214946D01*
X-14921Y217626D01*
X-11420Y219076D01*
X-7630Y219076D01*
X-4129Y217626D01*
X-1449Y214946D01*
X1Y211445D01*
X1Y207655D01*
X-1449Y204154D01*
X-4129Y201474D01*
X-7630Y200024D01*
X-11420Y200024D01*
G37*
%LPD*%
D10*
X52388Y59438D03*
X52388Y71438D03*
X52388Y83437D03*
D11*
X114300Y155575D03*
D12*
X-135500Y135400D03*
X-135500Y152400D03*
D13*
X-51825Y49213D03*
X-68825Y49213D03*
X75638Y149225D03*
X92638Y149225D03*
D12*
X50238Y98425D03*
X67238Y98425D03*
X50238Y107950D03*
X67238Y107950D03*
D13*
X-71438Y91050D03*
X-71438Y74050D03*
D14*
X49238Y119063D03*
X68238Y119063D03*
X49238Y133350D03*
X68238Y133350D03*
D15*
X-84138Y92050D03*
X-84138Y73050D03*
D16*
X-117475Y177800D03*
X-117475Y152400D03*
X-117475Y127000D03*
D17*
X29038Y110057D03*
X29038Y105056D03*
X29038Y100054D03*
X29038Y95053D03*
X29038Y90052D03*
X29038Y85051D03*
X29038Y80049D03*
X29038Y75048D03*
X29038Y70047D03*
X29038Y65046D03*
X29038Y60044D03*
X29038Y55043D03*
D18*
X22745Y48750D03*
X17744Y48750D03*
X12742Y48750D03*
X7741Y48750D03*
X2740Y48750D03*
X-2262Y48750D03*
X-7264Y48750D03*
X-12265Y48750D03*
X-17266Y48750D03*
X-22267Y48750D03*
X-27269Y48750D03*
X-32270Y48750D03*
D17*
X-38563Y55043D03*
X-38563Y60044D03*
X-38563Y65046D03*
X-38563Y70047D03*
X-38563Y75048D03*
X-38563Y80049D03*
X-38563Y85051D03*
X-38563Y90052D03*
X-38563Y95053D03*
X-38563Y100054D03*
X-38563Y105056D03*
X-38563Y110057D03*
D18*
X-32270Y116350D03*
X-27269Y116350D03*
X-22267Y116350D03*
X-17266Y116350D03*
X-12265Y116350D03*
X-7264Y116350D03*
X-2262Y116350D03*
X2740Y116350D03*
X7741Y116350D03*
X12742Y116350D03*
X17744Y116350D03*
X22745Y116350D03*
D19*
X-4763Y82550D03*
D20*
X48063Y226988D03*
X53063Y226988D03*
X58063Y226988D03*
X63063Y226988D03*
X63063Y207988D03*
X58063Y207988D03*
X53063Y207988D03*
X48063Y207988D03*
D21*
X55563Y217488D03*
D12*
X48188Y195263D03*
X31188Y195263D03*
X48188Y185738D03*
X31188Y185738D03*
X58175Y171450D03*
X75175Y171450D03*
X58175Y161925D03*
X75175Y161925D03*
X64063Y241300D03*
X47063Y241300D03*
X8500Y265113D03*
X-8500Y265113D03*
D13*
X-81525Y139700D03*
X-64525Y139700D03*
X-51363Y139700D03*
X-34363Y139700D03*
X-19613Y139700D03*
X-2613Y139700D03*
X29138Y139700D03*
X12138Y139700D03*
D22*
X82600Y293913D03*
X165200Y150813D03*
X82600Y7713D03*
X-82600Y7713D03*
X-165200Y150813D03*
X-82600Y293913D03*
X123900Y222313D03*
X123900Y79313D03*
X0Y7713D03*
X-123900Y79313D03*
X-123900Y222313D03*
D23*
X25146Y255207D02*
X25146Y275019D01*
X-25146Y275019D02*
X-25146Y255207D01*
D13*
X114300Y170888D03*
X114300Y187888D03*
D16*
X-60325Y158750D03*
X-34925Y158750D03*
X-9525Y158750D03*
X15875Y158750D03*
X15875Y209550D03*
X15875Y184150D03*
X-9525Y209550D03*
X-9525Y184150D03*
X-34925Y209550D03*
X-34925Y184150D03*
X-60325Y209550D03*
X-60325Y184150D03*
D24*
X-77139Y85051D02*
X-38563Y85051D01*
X-77139Y85051D02*
X-81769Y89681D01*
X-84138Y92050D01*
D25*
X-82600Y90513D01*
X-82600Y85237D01*
D26*
X-82600Y85237D03*
D24*
X-80400Y91050D02*
X-71438Y91050D01*
X-80400Y91050D02*
X-81769Y89681D01*
X-76964Y80049D02*
X-81681Y75331D01*
X-82375Y74638D01*
X-76964Y80049D02*
X-38563Y80049D01*
D26*
X-104775Y103188D03*
X-93663Y46038D03*
X0Y34925D03*
X36513Y22225D03*
D27*
X51025Y7713D01*
D26*
X133647Y110749D03*
D27*
X165200Y146592D02*
X165200Y150813D01*
D26*
X107950Y131763D03*
X-69850Y36513D03*
X-123825Y192088D03*
X-107950Y252413D03*
D25*
X-93638Y73050D02*
X-84138Y73050D01*
X-93638Y73050D02*
X-93663Y73025D01*
D26*
X-93663Y73025D03*
D24*
X-80400Y74050D02*
X-71438Y74050D01*
X-80400Y74050D02*
X-81681Y75331D01*
D26*
X105974Y48014D03*
D27*
X105974Y41664D01*
D28*
X-38260Y80352D02*
X-38563Y80049D01*
X-32323Y82550D02*
X-4763Y82550D01*
X-34521Y80352D02*
X-38260Y80352D01*
X-34521Y80352D02*
X-32323Y82550D01*
D26*
X46038Y127000D03*
D28*
X53063Y200138D02*
X53063Y207988D01*
X53063Y200138D02*
X48188Y195263D01*
X48188Y185738D01*
X65020Y206030D02*
X63063Y207988D01*
X65020Y206030D02*
X65020Y201613D01*
D26*
X65020Y201613D03*
D28*
X63063Y226988D02*
X65088Y229013D01*
X65088Y230613D01*
D26*
X65088Y230613D03*
X46038Y136525D03*
X46038Y117475D03*
X47625Y196850D03*
X47625Y188913D03*
D28*
X48188Y195263D02*
X47625Y195825D01*
X47625Y196850D01*
D26*
X61913Y93563D03*
D24*
X57216Y88866D02*
X43967Y88866D01*
X57216Y88866D02*
X61913Y93563D01*
X35150Y80049D02*
X29038Y80049D01*
X35150Y80049D02*
X43967Y88866D01*
D28*
X62376Y93563D02*
X67238Y98425D01*
X62376Y93563D02*
X61913Y93563D01*
D24*
X-60325Y40713D02*
X-68825Y49213D01*
X-60325Y40713D02*
X-60325Y38026D01*
D26*
X-60325Y38026D03*
D24*
X29038Y65046D02*
X36554Y65046D01*
X41959Y59642D02*
X41959Y56017D01*
X44001Y53975D01*
X41959Y59642D02*
X36554Y65046D01*
X117475Y127000D02*
X117475Y152400D01*
X114300Y155575D01*
X117475Y127000D02*
X87313Y96838D01*
X87313Y80513D01*
X60774Y53975D01*
X44001Y53975D01*
D25*
X114300Y155575D02*
X114300Y170888D01*
D24*
X-117475Y152400D02*
X-117475Y142875D01*
X-92266Y117666D01*
D25*
X-117475Y152400D02*
X-135500Y152400D01*
D24*
X-46171Y117666D02*
X-38563Y110057D01*
X-46171Y117666D02*
X-92266Y117666D01*
X29038Y70047D02*
X39491Y70047D01*
X50100Y59438D02*
X52388Y59438D01*
X50100Y59438D02*
X39491Y70047D01*
X34521Y75096D02*
X34473Y75048D01*
X34521Y75096D02*
X42197Y75096D01*
X50538Y83437D02*
X52388Y83437D01*
X50538Y83437D02*
X42197Y75096D01*
X34473Y75048D02*
X29038Y75048D01*
X-38563Y105056D02*
X-38587Y105080D01*
X-44250Y105080D01*
X-51882Y112713D01*
X-95250Y112713D02*
X-109538Y127000D01*
X-117475Y127000D01*
X-95250Y112713D02*
X-51882Y112713D01*
D26*
X98452Y64731D03*
D24*
X26624Y48750D02*
X22745Y48750D01*
X26624Y48750D02*
X36258Y39116D01*
X72837Y39116D01*
X98452Y64731D01*
X123900Y79313D02*
X78374Y33787D01*
X17744Y44169D02*
X17744Y48750D01*
X17744Y44169D02*
X28126Y33787D01*
X78374Y33787D01*
D26*
X-106768Y201207D03*
D24*
X-12313Y116398D02*
X-12265Y116350D01*
X-44250Y129408D02*
X-46086Y127572D01*
X-87313Y127572D01*
X-44250Y129408D02*
X-19221Y129408D01*
X-12313Y122500D02*
X-12313Y116398D01*
X-12313Y122500D02*
X-19221Y129408D01*
X-87313Y127572D02*
X-100622Y140881D01*
X-100622Y195061D02*
X-106768Y201207D01*
X-100622Y195061D02*
X-100622Y140881D01*
X-44035Y122619D02*
X-42198Y124455D01*
X-17338Y120520D02*
X-17338Y116422D01*
X-17266Y116350D01*
X-44035Y122619D02*
X-90214Y122619D01*
X-42198Y124455D02*
X-21272Y124455D01*
X-17338Y120520D01*
X-90214Y122619D02*
X-106426Y138831D01*
X-113979Y212392D02*
X-123900Y222313D01*
X-113979Y212392D02*
X-113979Y198220D01*
X-106426Y190667D01*
X-106426Y138831D01*
X-94463Y101979D02*
X-117129Y79313D01*
X-123900Y79313D01*
X-63009Y92688D02*
X-63009Y97970D01*
X-63009Y92688D02*
X-60325Y90004D01*
X-63009Y97970D02*
X-67017Y101979D01*
X-60325Y90004D02*
X-38611Y90004D01*
X-38563Y90052D01*
X-67017Y101979D02*
X-94463Y101979D01*
X-104540Y52524D02*
X-106127Y52524D01*
X-104540Y52524D02*
X-93942Y63121D01*
D26*
X-106127Y52524D03*
D24*
X-63009Y73025D02*
X-60986Y75048D01*
X-63009Y73025D02*
X-63009Y67130D01*
X-67017Y63121D01*
X-93942Y63121D01*
X-60986Y75048D02*
X-38563Y75048D01*
D26*
X33882Y8184D03*
D24*
X33882Y12400D01*
X12742Y33540D02*
X12742Y48750D01*
X12742Y33540D02*
X33882Y12400D01*
X7741Y15453D02*
X7741Y48750D01*
X7741Y15453D02*
X0Y7713D01*
X29038Y60044D02*
X34112Y60044D01*
X37006Y57150D01*
X37006Y53966D01*
X41949Y49022D01*
X142766Y144354D02*
X142766Y183517D01*
X134829Y191455D01*
D26*
X134829Y191455D03*
D24*
X62826Y49022D02*
X41949Y49022D01*
X93102Y94689D02*
X142766Y144354D01*
X93102Y79298D02*
X62826Y49022D01*
X93102Y79298D02*
X93102Y94689D01*
X39898Y44069D02*
X29038Y54929D01*
X29038Y55043D01*
X39898Y44069D02*
X66294Y44069D01*
X148390Y188092D02*
X138113Y198369D01*
X138113Y207032D01*
X136653Y209560D01*
X123900Y222313D01*
X148390Y188092D02*
X148390Y140452D01*
X98055Y75830D02*
X66294Y44069D01*
X98055Y75830D02*
X98055Y90117D01*
X148390Y140452D01*
D25*
X-81525Y139700D02*
X-81525Y164538D01*
X-74613Y171450D01*
X-47625Y171450D01*
X-22225Y171450D01*
X26988Y171450D01*
X29138Y169300D02*
X29138Y139700D01*
X29138Y169300D02*
X28575Y169863D01*
X26988Y171450D01*
X-19613Y139700D02*
X-22225Y142313D01*
X-22225Y171450D01*
X-47625Y143438D02*
X-51363Y139700D01*
X-47625Y143438D02*
X-47625Y171450D01*
D28*
X58063Y171562D02*
X58063Y207988D01*
X58063Y171562D02*
X58175Y171450D01*
X58175Y168275D02*
X58175Y161925D01*
X58175Y168275D02*
X58175Y171450D01*
D29*
X56588Y169863D02*
X28575Y169863D01*
X56588Y169863D02*
X58175Y168275D01*
D28*
X53063Y235300D02*
X47063Y241300D01*
X53063Y235300D02*
X53063Y226988D01*
X58063Y235300D02*
X64063Y241300D01*
X58063Y235300D02*
X58063Y226988D01*
D25*
X25146Y265113D02*
X8500Y265113D01*
D24*
X-38563Y60044D02*
X-44731Y60044D01*
X-51825Y52950D02*
X-51825Y49213D01*
X-51825Y52950D02*
X-44731Y60044D01*
D25*
X15875Y143438D02*
X15875Y158750D01*
X15875Y143438D02*
X12138Y139700D01*
X-60325Y143900D02*
X-60325Y158750D01*
X-60325Y143900D02*
X-64525Y139700D01*
X-34925Y140263D02*
X-34925Y158750D01*
X-34925Y140263D02*
X-34363Y139700D01*
X-9525Y146613D02*
X-9525Y158750D01*
X-9525Y146613D02*
X-2613Y139700D01*
D26*
X-57589Y102749D03*
D24*
X-54894Y100054D01*
X-38563Y100054D01*
D26*
X-50800Y66675D03*
D24*
X-44290Y66675D01*
X-42733Y65118D01*
X-38635Y65118D01*
X-38563Y65046D01*
D26*
X-42116Y22375D03*
D24*
X-42632Y26084D02*
X-42632Y32058D01*
X-38408Y36282D01*
X-42116Y25568D02*
X-42116Y22375D01*
X-42116Y25568D02*
X-42632Y26084D01*
X-38408Y36282D02*
X-33568Y36282D01*
X-27196Y42655D01*
X-27196Y48677D01*
X-27269Y48750D01*
D26*
X-35421Y29071D03*
D24*
X-32151Y29071D01*
X-14345Y42571D02*
X-12337Y44580D01*
X-12337Y48678D01*
X-12265Y48750D01*
X-18651Y42571D02*
X-32151Y29071D01*
X-18651Y42571D02*
X-14345Y42571D01*
M02*
