G04 EAGLE Gerber RS-274X export*
G75*
%MOMM*%
%FSLAX34Y34*%
%LPD*%
%INSilkscreen Bottom*%
%IPPOS*%
%AMOC8*
5,1,8,0,0,1.08239X$1,22.5*%
G01*
%ADD10C,0.152400*%
%ADD11C,0.101600*%
%ADD12C,0.254000*%
%ADD13C,0.076200*%
%ADD14C,0.406400*%
%ADD15C,0.050800*%

G36*
X-44893Y78019D02*
X-44893Y78019D01*
X-44890Y78018D01*
X-44847Y78038D01*
X-44804Y78056D01*
X-44803Y78058D01*
X-44801Y78059D01*
X-44768Y78144D01*
X-44768Y81954D01*
X-44769Y81956D01*
X-44768Y81958D01*
X-44788Y82001D01*
X-44807Y82045D01*
X-44809Y82045D01*
X-44810Y82047D01*
X-44895Y82080D01*
X-47435Y82080D01*
X-47437Y82079D01*
X-47439Y82080D01*
X-47482Y82060D01*
X-47525Y82042D01*
X-47526Y82040D01*
X-47528Y82039D01*
X-47561Y81954D01*
X-47561Y78144D01*
X-47560Y78142D01*
X-47561Y78140D01*
X-47541Y78097D01*
X-47522Y78053D01*
X-47520Y78053D01*
X-47519Y78051D01*
X-47435Y78018D01*
X-44895Y78018D01*
X-44893Y78019D01*
G37*
G36*
X37912Y63016D02*
X37912Y63016D01*
X37914Y63015D01*
X37957Y63035D01*
X38000Y63053D01*
X38001Y63055D01*
X38003Y63056D01*
X38036Y63141D01*
X38036Y66951D01*
X38035Y66953D01*
X38036Y66955D01*
X38016Y66998D01*
X37997Y67042D01*
X37995Y67042D01*
X37994Y67044D01*
X37910Y67077D01*
X35370Y67077D01*
X35368Y67076D01*
X35365Y67077D01*
X35322Y67057D01*
X35279Y67039D01*
X35278Y67037D01*
X35276Y67036D01*
X35243Y66951D01*
X35243Y63141D01*
X35244Y63139D01*
X35243Y63137D01*
X35263Y63094D01*
X35282Y63050D01*
X35284Y63050D01*
X35285Y63048D01*
X35370Y63015D01*
X37910Y63015D01*
X37912Y63016D01*
G37*
G36*
X-10358Y39753D02*
X-10358Y39753D01*
X-10355Y39752D01*
X-10312Y39772D01*
X-10269Y39790D01*
X-10268Y39792D01*
X-10266Y39793D01*
X-10233Y39878D01*
X-10233Y42418D01*
X-10234Y42420D01*
X-10233Y42422D01*
X-10253Y42465D01*
X-10272Y42509D01*
X-10274Y42509D01*
X-10275Y42511D01*
X-10360Y42544D01*
X-14170Y42544D01*
X-14172Y42543D01*
X-14174Y42544D01*
X-14217Y42524D01*
X-14260Y42506D01*
X-14261Y42504D01*
X-14263Y42503D01*
X-14296Y42418D01*
X-14296Y39878D01*
X-14295Y39876D01*
X-14296Y39874D01*
X-14276Y39831D01*
X-14257Y39787D01*
X-14255Y39787D01*
X-14254Y39785D01*
X-14170Y39752D01*
X-10360Y39752D01*
X-10358Y39753D01*
G37*
D10*
X110363Y218250D02*
X110363Y236030D01*
X105424Y236030D01*
X105284Y236028D01*
X105145Y236022D01*
X105005Y236012D01*
X104866Y235998D01*
X104727Y235981D01*
X104589Y235959D01*
X104452Y235933D01*
X104315Y235904D01*
X104179Y235871D01*
X104045Y235834D01*
X103911Y235793D01*
X103779Y235748D01*
X103647Y235699D01*
X103518Y235647D01*
X103390Y235592D01*
X103263Y235532D01*
X103138Y235469D01*
X103015Y235403D01*
X102894Y235333D01*
X102775Y235260D01*
X102658Y235183D01*
X102544Y235103D01*
X102431Y235020D01*
X102321Y234934D01*
X102214Y234844D01*
X102109Y234752D01*
X102007Y234657D01*
X101907Y234559D01*
X101810Y234458D01*
X101716Y234354D01*
X101626Y234248D01*
X101538Y234139D01*
X101453Y234028D01*
X101372Y233914D01*
X101293Y233799D01*
X101218Y233681D01*
X101147Y233561D01*
X101079Y233438D01*
X101014Y233315D01*
X100953Y233189D01*
X100895Y233061D01*
X100841Y232933D01*
X100791Y232802D01*
X100744Y232670D01*
X100701Y232537D01*
X100662Y232403D01*
X100627Y232268D01*
X100596Y232132D01*
X100568Y231994D01*
X100545Y231857D01*
X100525Y231718D01*
X100509Y231579D01*
X100497Y231440D01*
X100489Y231301D01*
X100485Y231161D01*
X100485Y231021D01*
X100489Y230881D01*
X100497Y230742D01*
X100509Y230603D01*
X100525Y230464D01*
X100545Y230325D01*
X100568Y230188D01*
X100596Y230050D01*
X100627Y229914D01*
X100662Y229779D01*
X100701Y229645D01*
X100744Y229512D01*
X100791Y229380D01*
X100841Y229249D01*
X100895Y229121D01*
X100953Y228993D01*
X101014Y228867D01*
X101079Y228744D01*
X101147Y228621D01*
X101218Y228501D01*
X101293Y228383D01*
X101372Y228268D01*
X101453Y228154D01*
X101538Y228043D01*
X101626Y227934D01*
X101716Y227828D01*
X101810Y227724D01*
X101907Y227623D01*
X102007Y227525D01*
X102109Y227430D01*
X102214Y227338D01*
X102321Y227248D01*
X102431Y227162D01*
X102544Y227079D01*
X102658Y226999D01*
X102775Y226922D01*
X102894Y226849D01*
X103015Y226779D01*
X103138Y226713D01*
X103263Y226650D01*
X103390Y226590D01*
X103518Y226535D01*
X103647Y226483D01*
X103779Y226434D01*
X103911Y226389D01*
X104045Y226348D01*
X104179Y226311D01*
X104315Y226278D01*
X104452Y226249D01*
X104589Y226223D01*
X104727Y226201D01*
X104866Y226184D01*
X105005Y226170D01*
X105145Y226160D01*
X105284Y226154D01*
X105424Y226152D01*
X110363Y226152D01*
X94368Y232078D02*
X89429Y236030D01*
X89429Y218250D01*
X94368Y218250D02*
X84490Y218250D01*
X138268Y107266D02*
X138268Y101339D01*
X134811Y96894D01*
X138268Y101339D02*
X141725Y96894D01*
X138268Y101339D02*
X132835Y103315D01*
X138268Y101339D02*
X143701Y103315D01*
X125142Y94425D02*
X125142Y112205D01*
X120204Y112205D01*
X120064Y112203D01*
X119925Y112197D01*
X119785Y112187D01*
X119646Y112173D01*
X119507Y112156D01*
X119369Y112134D01*
X119232Y112108D01*
X119095Y112079D01*
X118959Y112046D01*
X118825Y112009D01*
X118691Y111968D01*
X118559Y111923D01*
X118427Y111874D01*
X118298Y111822D01*
X118170Y111767D01*
X118043Y111707D01*
X117918Y111644D01*
X117795Y111578D01*
X117674Y111508D01*
X117555Y111435D01*
X117438Y111358D01*
X117324Y111278D01*
X117211Y111195D01*
X117101Y111109D01*
X116994Y111019D01*
X116889Y110927D01*
X116787Y110832D01*
X116687Y110734D01*
X116590Y110633D01*
X116496Y110529D01*
X116406Y110423D01*
X116318Y110314D01*
X116233Y110203D01*
X116152Y110089D01*
X116073Y109974D01*
X115998Y109856D01*
X115927Y109735D01*
X115859Y109613D01*
X115794Y109490D01*
X115733Y109364D01*
X115675Y109236D01*
X115621Y109108D01*
X115571Y108977D01*
X115524Y108845D01*
X115481Y108712D01*
X115442Y108578D01*
X115407Y108443D01*
X115376Y108307D01*
X115348Y108169D01*
X115325Y108032D01*
X115305Y107893D01*
X115289Y107754D01*
X115277Y107615D01*
X115269Y107476D01*
X115265Y107336D01*
X115265Y107196D01*
X115269Y107056D01*
X115277Y106917D01*
X115289Y106778D01*
X115305Y106639D01*
X115325Y106500D01*
X115348Y106363D01*
X115376Y106225D01*
X115407Y106089D01*
X115442Y105954D01*
X115481Y105820D01*
X115524Y105687D01*
X115571Y105555D01*
X115621Y105424D01*
X115675Y105296D01*
X115733Y105168D01*
X115794Y105042D01*
X115859Y104919D01*
X115927Y104796D01*
X115998Y104676D01*
X116073Y104558D01*
X116152Y104443D01*
X116233Y104329D01*
X116318Y104218D01*
X116406Y104109D01*
X116496Y104003D01*
X116590Y103899D01*
X116687Y103798D01*
X116787Y103700D01*
X116889Y103605D01*
X116994Y103513D01*
X117101Y103423D01*
X117211Y103337D01*
X117324Y103254D01*
X117438Y103174D01*
X117555Y103097D01*
X117674Y103024D01*
X117795Y102954D01*
X117918Y102888D01*
X118043Y102825D01*
X118170Y102765D01*
X118298Y102710D01*
X118427Y102658D01*
X118559Y102609D01*
X118691Y102564D01*
X118825Y102523D01*
X118959Y102486D01*
X119095Y102453D01*
X119232Y102424D01*
X119369Y102398D01*
X119507Y102376D01*
X119646Y102359D01*
X119785Y102345D01*
X119925Y102335D01*
X120064Y102329D01*
X120204Y102327D01*
X125142Y102327D01*
X103715Y112205D02*
X103583Y112203D01*
X103452Y112197D01*
X103320Y112187D01*
X103189Y112174D01*
X103059Y112156D01*
X102929Y112135D01*
X102799Y112110D01*
X102671Y112081D01*
X102543Y112048D01*
X102417Y112011D01*
X102291Y111971D01*
X102167Y111927D01*
X102044Y111879D01*
X101923Y111828D01*
X101803Y111773D01*
X101685Y111715D01*
X101569Y111653D01*
X101455Y111587D01*
X101342Y111519D01*
X101232Y111447D01*
X101124Y111372D01*
X101018Y111293D01*
X100914Y111212D01*
X100813Y111127D01*
X100715Y111040D01*
X100619Y110949D01*
X100526Y110856D01*
X100435Y110760D01*
X100348Y110662D01*
X100263Y110561D01*
X100182Y110457D01*
X100103Y110351D01*
X100028Y110243D01*
X99956Y110133D01*
X99888Y110020D01*
X99822Y109906D01*
X99760Y109790D01*
X99702Y109672D01*
X99647Y109552D01*
X99596Y109431D01*
X99548Y109308D01*
X99504Y109184D01*
X99464Y109058D01*
X99427Y108932D01*
X99394Y108804D01*
X99365Y108676D01*
X99340Y108546D01*
X99319Y108416D01*
X99301Y108286D01*
X99288Y108155D01*
X99278Y108023D01*
X99272Y107892D01*
X99270Y107760D01*
X103715Y112205D02*
X103865Y112203D01*
X104014Y112197D01*
X104163Y112187D01*
X104312Y112174D01*
X104461Y112156D01*
X104609Y112135D01*
X104757Y112109D01*
X104903Y112080D01*
X105049Y112047D01*
X105194Y112010D01*
X105338Y111969D01*
X105481Y111925D01*
X105623Y111877D01*
X105763Y111825D01*
X105902Y111770D01*
X106040Y111711D01*
X106175Y111648D01*
X106310Y111582D01*
X106442Y111512D01*
X106572Y111439D01*
X106701Y111362D01*
X106828Y111282D01*
X106952Y111199D01*
X107074Y111113D01*
X107194Y111023D01*
X107311Y110930D01*
X107426Y110835D01*
X107539Y110736D01*
X107649Y110634D01*
X107756Y110530D01*
X107860Y110423D01*
X107962Y110313D01*
X108060Y110200D01*
X108156Y110085D01*
X108248Y109967D01*
X108338Y109847D01*
X108424Y109725D01*
X108507Y109601D01*
X108587Y109474D01*
X108663Y109346D01*
X108736Y109215D01*
X108806Y109082D01*
X108872Y108948D01*
X108934Y108812D01*
X108993Y108675D01*
X109049Y108536D01*
X109100Y108395D01*
X109148Y108254D01*
X100752Y104303D02*
X100656Y104396D01*
X100564Y104492D01*
X100474Y104591D01*
X100387Y104692D01*
X100303Y104795D01*
X100221Y104900D01*
X100143Y105008D01*
X100068Y105118D01*
X99995Y105230D01*
X99926Y105344D01*
X99860Y105460D01*
X99798Y105578D01*
X99739Y105697D01*
X99683Y105818D01*
X99630Y105941D01*
X99581Y106065D01*
X99536Y106190D01*
X99493Y106317D01*
X99455Y106444D01*
X99420Y106573D01*
X99389Y106702D01*
X99361Y106833D01*
X99337Y106964D01*
X99316Y107096D01*
X99300Y107228D01*
X99287Y107361D01*
X99277Y107494D01*
X99272Y107627D01*
X99270Y107760D01*
X100751Y104302D02*
X109147Y94425D01*
X99270Y94425D01*
X-84490Y217996D02*
X-84490Y235776D01*
X-89429Y235776D01*
X-89569Y235774D01*
X-89708Y235768D01*
X-89848Y235758D01*
X-89987Y235744D01*
X-90126Y235727D01*
X-90264Y235705D01*
X-90401Y235679D01*
X-90538Y235650D01*
X-90674Y235617D01*
X-90808Y235580D01*
X-90942Y235539D01*
X-91074Y235494D01*
X-91206Y235445D01*
X-91335Y235393D01*
X-91463Y235338D01*
X-91590Y235278D01*
X-91715Y235215D01*
X-91838Y235149D01*
X-91959Y235079D01*
X-92078Y235006D01*
X-92195Y234929D01*
X-92309Y234849D01*
X-92422Y234766D01*
X-92532Y234680D01*
X-92639Y234590D01*
X-92744Y234498D01*
X-92846Y234403D01*
X-92946Y234305D01*
X-93043Y234204D01*
X-93137Y234100D01*
X-93227Y233994D01*
X-93315Y233885D01*
X-93400Y233774D01*
X-93481Y233660D01*
X-93560Y233545D01*
X-93635Y233427D01*
X-93706Y233307D01*
X-93774Y233184D01*
X-93839Y233061D01*
X-93900Y232935D01*
X-93958Y232807D01*
X-94012Y232679D01*
X-94062Y232548D01*
X-94109Y232416D01*
X-94152Y232283D01*
X-94191Y232149D01*
X-94226Y232014D01*
X-94257Y231878D01*
X-94285Y231740D01*
X-94308Y231603D01*
X-94328Y231464D01*
X-94344Y231325D01*
X-94356Y231186D01*
X-94364Y231047D01*
X-94368Y230907D01*
X-94368Y230767D01*
X-94364Y230627D01*
X-94356Y230488D01*
X-94344Y230349D01*
X-94328Y230210D01*
X-94308Y230071D01*
X-94285Y229934D01*
X-94257Y229796D01*
X-94226Y229660D01*
X-94191Y229525D01*
X-94152Y229391D01*
X-94109Y229258D01*
X-94062Y229126D01*
X-94012Y228995D01*
X-93958Y228867D01*
X-93900Y228739D01*
X-93839Y228613D01*
X-93774Y228490D01*
X-93706Y228367D01*
X-93635Y228247D01*
X-93560Y228129D01*
X-93481Y228014D01*
X-93400Y227900D01*
X-93315Y227789D01*
X-93227Y227680D01*
X-93137Y227574D01*
X-93043Y227470D01*
X-92946Y227369D01*
X-92846Y227271D01*
X-92744Y227176D01*
X-92639Y227084D01*
X-92532Y226994D01*
X-92422Y226908D01*
X-92309Y226825D01*
X-92195Y226745D01*
X-92078Y226668D01*
X-91959Y226595D01*
X-91838Y226525D01*
X-91715Y226459D01*
X-91590Y226396D01*
X-91463Y226336D01*
X-91335Y226281D01*
X-91206Y226229D01*
X-91074Y226180D01*
X-90942Y226135D01*
X-90808Y226094D01*
X-90674Y226057D01*
X-90538Y226024D01*
X-90401Y225995D01*
X-90264Y225969D01*
X-90126Y225947D01*
X-89987Y225930D01*
X-89848Y225916D01*
X-89708Y225906D01*
X-89569Y225900D01*
X-89429Y225898D01*
X-84490Y225898D01*
X-100485Y217996D02*
X-106412Y217996D01*
X-106536Y217998D01*
X-106660Y218004D01*
X-106784Y218014D01*
X-106907Y218027D01*
X-107030Y218045D01*
X-107152Y218066D01*
X-107274Y218091D01*
X-107395Y218120D01*
X-107514Y218153D01*
X-107633Y218189D01*
X-107750Y218230D01*
X-107866Y218273D01*
X-107981Y218321D01*
X-108094Y218372D01*
X-108206Y218427D01*
X-108315Y218485D01*
X-108423Y218546D01*
X-108529Y218611D01*
X-108633Y218679D01*
X-108734Y218751D01*
X-108834Y218825D01*
X-108930Y218903D01*
X-109025Y218983D01*
X-109117Y219067D01*
X-109206Y219153D01*
X-109292Y219242D01*
X-109376Y219334D01*
X-109456Y219429D01*
X-109534Y219525D01*
X-109608Y219625D01*
X-109680Y219726D01*
X-109748Y219830D01*
X-109813Y219936D01*
X-109874Y220044D01*
X-109932Y220153D01*
X-109987Y220265D01*
X-110038Y220378D01*
X-110086Y220493D01*
X-110129Y220609D01*
X-110170Y220726D01*
X-110206Y220845D01*
X-110239Y220964D01*
X-110268Y221085D01*
X-110293Y221207D01*
X-110314Y221329D01*
X-110332Y221452D01*
X-110345Y221575D01*
X-110355Y221699D01*
X-110361Y221823D01*
X-110363Y221947D01*
X-110363Y223922D01*
X-110361Y224046D01*
X-110355Y224170D01*
X-110345Y224294D01*
X-110332Y224417D01*
X-110314Y224540D01*
X-110293Y224662D01*
X-110268Y224784D01*
X-110239Y224905D01*
X-110206Y225024D01*
X-110170Y225143D01*
X-110129Y225260D01*
X-110086Y225376D01*
X-110038Y225491D01*
X-109987Y225604D01*
X-109932Y225716D01*
X-109874Y225825D01*
X-109813Y225933D01*
X-109748Y226039D01*
X-109680Y226143D01*
X-109608Y226244D01*
X-109534Y226344D01*
X-109456Y226440D01*
X-109376Y226535D01*
X-109292Y226627D01*
X-109206Y226716D01*
X-109117Y226802D01*
X-109025Y226886D01*
X-108930Y226966D01*
X-108834Y227044D01*
X-108734Y227118D01*
X-108633Y227190D01*
X-108529Y227258D01*
X-108423Y227323D01*
X-108315Y227384D01*
X-108206Y227442D01*
X-108094Y227497D01*
X-107981Y227548D01*
X-107866Y227596D01*
X-107750Y227639D01*
X-107633Y227680D01*
X-107514Y227716D01*
X-107395Y227749D01*
X-107274Y227778D01*
X-107152Y227803D01*
X-107030Y227824D01*
X-106907Y227842D01*
X-106784Y227855D01*
X-106660Y227865D01*
X-106536Y227871D01*
X-106412Y227873D01*
X-100485Y227873D01*
X-100485Y235776D01*
X-110363Y235776D01*
X-109890Y111951D02*
X-109890Y94171D01*
X-109890Y111951D02*
X-114829Y111951D01*
X-114969Y111949D01*
X-115108Y111943D01*
X-115248Y111933D01*
X-115387Y111919D01*
X-115526Y111902D01*
X-115664Y111880D01*
X-115801Y111854D01*
X-115938Y111825D01*
X-116074Y111792D01*
X-116208Y111755D01*
X-116342Y111714D01*
X-116474Y111669D01*
X-116606Y111620D01*
X-116735Y111568D01*
X-116863Y111513D01*
X-116990Y111453D01*
X-117115Y111390D01*
X-117238Y111324D01*
X-117359Y111254D01*
X-117478Y111181D01*
X-117595Y111104D01*
X-117709Y111024D01*
X-117822Y110941D01*
X-117932Y110855D01*
X-118039Y110765D01*
X-118144Y110673D01*
X-118246Y110578D01*
X-118346Y110480D01*
X-118443Y110379D01*
X-118537Y110275D01*
X-118627Y110169D01*
X-118715Y110060D01*
X-118800Y109949D01*
X-118881Y109835D01*
X-118960Y109720D01*
X-119035Y109602D01*
X-119106Y109481D01*
X-119174Y109359D01*
X-119239Y109236D01*
X-119300Y109110D01*
X-119358Y108982D01*
X-119412Y108854D01*
X-119462Y108723D01*
X-119509Y108591D01*
X-119552Y108458D01*
X-119591Y108324D01*
X-119626Y108189D01*
X-119657Y108053D01*
X-119685Y107915D01*
X-119708Y107778D01*
X-119728Y107639D01*
X-119744Y107500D01*
X-119756Y107361D01*
X-119764Y107222D01*
X-119768Y107082D01*
X-119768Y106942D01*
X-119764Y106802D01*
X-119756Y106663D01*
X-119744Y106524D01*
X-119728Y106385D01*
X-119708Y106246D01*
X-119685Y106109D01*
X-119657Y105971D01*
X-119626Y105835D01*
X-119591Y105700D01*
X-119552Y105566D01*
X-119509Y105433D01*
X-119462Y105301D01*
X-119412Y105170D01*
X-119358Y105042D01*
X-119300Y104914D01*
X-119239Y104788D01*
X-119174Y104665D01*
X-119106Y104542D01*
X-119035Y104422D01*
X-118960Y104304D01*
X-118881Y104189D01*
X-118800Y104075D01*
X-118715Y103964D01*
X-118627Y103855D01*
X-118537Y103749D01*
X-118443Y103645D01*
X-118346Y103544D01*
X-118246Y103446D01*
X-118144Y103351D01*
X-118039Y103259D01*
X-117932Y103169D01*
X-117822Y103083D01*
X-117709Y103000D01*
X-117595Y102920D01*
X-117478Y102843D01*
X-117359Y102770D01*
X-117238Y102700D01*
X-117115Y102634D01*
X-116990Y102571D01*
X-116863Y102511D01*
X-116735Y102456D01*
X-116606Y102404D01*
X-116474Y102355D01*
X-116342Y102310D01*
X-116208Y102269D01*
X-116074Y102232D01*
X-115938Y102199D01*
X-115801Y102170D01*
X-115664Y102144D01*
X-115526Y102122D01*
X-115387Y102105D01*
X-115248Y102091D01*
X-115108Y102081D01*
X-114969Y102075D01*
X-114829Y102073D01*
X-109890Y102073D01*
X-125885Y98122D02*
X-129836Y111951D01*
X-125885Y98122D02*
X-135763Y98122D01*
X-132800Y102073D02*
X-132800Y94171D01*
X10760Y37338D02*
X10760Y19558D01*
X10760Y37338D02*
X5821Y37338D01*
X5681Y37336D01*
X5542Y37330D01*
X5402Y37320D01*
X5263Y37306D01*
X5124Y37289D01*
X4986Y37267D01*
X4849Y37241D01*
X4712Y37212D01*
X4576Y37179D01*
X4442Y37142D01*
X4308Y37101D01*
X4176Y37056D01*
X4044Y37007D01*
X3915Y36955D01*
X3787Y36900D01*
X3660Y36840D01*
X3535Y36777D01*
X3412Y36711D01*
X3291Y36641D01*
X3172Y36568D01*
X3055Y36491D01*
X2941Y36411D01*
X2828Y36328D01*
X2718Y36242D01*
X2611Y36152D01*
X2506Y36060D01*
X2404Y35965D01*
X2304Y35867D01*
X2207Y35766D01*
X2113Y35662D01*
X2023Y35556D01*
X1935Y35447D01*
X1850Y35336D01*
X1769Y35222D01*
X1690Y35107D01*
X1615Y34989D01*
X1544Y34868D01*
X1476Y34746D01*
X1411Y34623D01*
X1350Y34497D01*
X1292Y34369D01*
X1238Y34241D01*
X1188Y34110D01*
X1141Y33978D01*
X1098Y33845D01*
X1059Y33711D01*
X1024Y33576D01*
X993Y33440D01*
X965Y33302D01*
X942Y33165D01*
X922Y33026D01*
X906Y32887D01*
X894Y32748D01*
X886Y32609D01*
X882Y32469D01*
X882Y32329D01*
X886Y32189D01*
X894Y32050D01*
X906Y31911D01*
X922Y31772D01*
X942Y31633D01*
X965Y31496D01*
X993Y31358D01*
X1024Y31222D01*
X1059Y31087D01*
X1098Y30953D01*
X1141Y30820D01*
X1188Y30688D01*
X1238Y30557D01*
X1292Y30429D01*
X1350Y30301D01*
X1411Y30175D01*
X1476Y30052D01*
X1544Y29929D01*
X1615Y29809D01*
X1690Y29691D01*
X1769Y29576D01*
X1850Y29462D01*
X1935Y29351D01*
X2023Y29242D01*
X2113Y29136D01*
X2207Y29032D01*
X2304Y28931D01*
X2404Y28833D01*
X2506Y28738D01*
X2611Y28646D01*
X2718Y28556D01*
X2828Y28470D01*
X2941Y28387D01*
X3055Y28307D01*
X3172Y28230D01*
X3291Y28157D01*
X3412Y28087D01*
X3535Y28021D01*
X3660Y27958D01*
X3787Y27898D01*
X3915Y27843D01*
X4044Y27791D01*
X4176Y27742D01*
X4308Y27697D01*
X4442Y27656D01*
X4576Y27619D01*
X4712Y27586D01*
X4849Y27557D01*
X4986Y27531D01*
X5124Y27509D01*
X5263Y27492D01*
X5402Y27478D01*
X5542Y27468D01*
X5681Y27462D01*
X5821Y27460D01*
X10760Y27460D01*
X-5235Y19558D02*
X-10174Y19558D01*
X-10314Y19560D01*
X-10453Y19566D01*
X-10593Y19576D01*
X-10732Y19590D01*
X-10871Y19607D01*
X-11009Y19629D01*
X-11146Y19655D01*
X-11283Y19684D01*
X-11419Y19717D01*
X-11553Y19754D01*
X-11687Y19795D01*
X-11819Y19840D01*
X-11951Y19889D01*
X-12080Y19941D01*
X-12208Y19996D01*
X-12335Y20056D01*
X-12460Y20119D01*
X-12583Y20185D01*
X-12704Y20255D01*
X-12823Y20328D01*
X-12940Y20405D01*
X-13054Y20485D01*
X-13167Y20568D01*
X-13277Y20654D01*
X-13384Y20744D01*
X-13489Y20836D01*
X-13591Y20931D01*
X-13691Y21029D01*
X-13788Y21130D01*
X-13882Y21234D01*
X-13972Y21340D01*
X-14060Y21449D01*
X-14145Y21560D01*
X-14226Y21674D01*
X-14305Y21789D01*
X-14380Y21907D01*
X-14451Y22027D01*
X-14519Y22150D01*
X-14584Y22273D01*
X-14645Y22399D01*
X-14703Y22527D01*
X-14757Y22655D01*
X-14807Y22786D01*
X-14854Y22918D01*
X-14897Y23051D01*
X-14936Y23185D01*
X-14971Y23320D01*
X-15002Y23456D01*
X-15030Y23594D01*
X-15053Y23731D01*
X-15073Y23870D01*
X-15089Y24009D01*
X-15101Y24148D01*
X-15109Y24287D01*
X-15113Y24427D01*
X-15113Y24567D01*
X-15109Y24707D01*
X-15101Y24846D01*
X-15089Y24985D01*
X-15073Y25124D01*
X-15053Y25263D01*
X-15030Y25400D01*
X-15002Y25538D01*
X-14971Y25674D01*
X-14936Y25809D01*
X-14897Y25943D01*
X-14854Y26076D01*
X-14807Y26208D01*
X-14757Y26339D01*
X-14703Y26467D01*
X-14645Y26595D01*
X-14584Y26721D01*
X-14519Y26844D01*
X-14451Y26966D01*
X-14380Y27087D01*
X-14305Y27205D01*
X-14226Y27320D01*
X-14145Y27434D01*
X-14060Y27545D01*
X-13972Y27654D01*
X-13882Y27760D01*
X-13788Y27864D01*
X-13691Y27965D01*
X-13591Y28063D01*
X-13489Y28158D01*
X-13384Y28250D01*
X-13277Y28340D01*
X-13167Y28426D01*
X-13054Y28509D01*
X-12940Y28589D01*
X-12823Y28666D01*
X-12704Y28739D01*
X-12583Y28809D01*
X-12460Y28875D01*
X-12335Y28938D01*
X-12208Y28998D01*
X-12080Y29053D01*
X-11951Y29105D01*
X-11819Y29154D01*
X-11687Y29199D01*
X-11553Y29240D01*
X-11419Y29277D01*
X-11283Y29310D01*
X-11146Y29339D01*
X-11009Y29365D01*
X-10871Y29387D01*
X-10732Y29404D01*
X-10593Y29418D01*
X-10453Y29428D01*
X-10314Y29434D01*
X-10174Y29436D01*
X-11162Y37338D02*
X-5235Y37338D01*
X-11162Y37338D02*
X-11286Y37336D01*
X-11410Y37330D01*
X-11534Y37320D01*
X-11657Y37307D01*
X-11780Y37289D01*
X-11902Y37268D01*
X-12024Y37243D01*
X-12145Y37214D01*
X-12264Y37181D01*
X-12383Y37145D01*
X-12500Y37104D01*
X-12616Y37061D01*
X-12731Y37013D01*
X-12844Y36962D01*
X-12956Y36907D01*
X-13065Y36849D01*
X-13173Y36788D01*
X-13279Y36723D01*
X-13383Y36655D01*
X-13484Y36583D01*
X-13584Y36509D01*
X-13680Y36431D01*
X-13775Y36351D01*
X-13867Y36267D01*
X-13956Y36181D01*
X-14042Y36092D01*
X-14126Y36000D01*
X-14206Y35905D01*
X-14284Y35809D01*
X-14358Y35709D01*
X-14430Y35608D01*
X-14498Y35504D01*
X-14563Y35398D01*
X-14624Y35290D01*
X-14682Y35181D01*
X-14737Y35069D01*
X-14788Y34956D01*
X-14836Y34841D01*
X-14879Y34725D01*
X-14920Y34608D01*
X-14956Y34489D01*
X-14989Y34370D01*
X-15018Y34249D01*
X-15043Y34127D01*
X-15064Y34005D01*
X-15082Y33882D01*
X-15095Y33759D01*
X-15105Y33635D01*
X-15111Y33511D01*
X-15113Y33387D01*
X-15111Y33263D01*
X-15105Y33139D01*
X-15095Y33015D01*
X-15082Y32892D01*
X-15064Y32769D01*
X-15043Y32647D01*
X-15018Y32525D01*
X-14989Y32404D01*
X-14956Y32285D01*
X-14920Y32166D01*
X-14879Y32049D01*
X-14836Y31933D01*
X-14788Y31818D01*
X-14737Y31705D01*
X-14682Y31593D01*
X-14624Y31484D01*
X-14563Y31376D01*
X-14498Y31270D01*
X-14430Y31166D01*
X-14358Y31065D01*
X-14284Y30965D01*
X-14206Y30869D01*
X-14126Y30774D01*
X-14042Y30682D01*
X-13956Y30593D01*
X-13867Y30507D01*
X-13775Y30423D01*
X-13680Y30343D01*
X-13584Y30265D01*
X-13484Y30191D01*
X-13383Y30119D01*
X-13279Y30051D01*
X-13173Y29986D01*
X-13065Y29925D01*
X-12956Y29867D01*
X-12844Y29812D01*
X-12731Y29761D01*
X-12616Y29713D01*
X-12500Y29670D01*
X-12383Y29629D01*
X-12264Y29593D01*
X-12145Y29560D01*
X-12024Y29531D01*
X-11902Y29506D01*
X-11780Y29485D01*
X-11657Y29467D01*
X-11534Y29454D01*
X-11410Y29444D01*
X-11286Y29438D01*
X-11162Y29436D01*
X-7211Y29436D01*
X25148Y222885D02*
X25148Y240665D01*
X25148Y232763D02*
X15271Y232763D01*
X15271Y240665D02*
X15271Y222885D01*
X7840Y236714D02*
X2901Y240665D01*
X2901Y222885D01*
X7840Y222885D02*
X-2038Y222885D01*
X-8911Y226836D02*
X-12862Y240665D01*
X-8911Y226836D02*
X-18789Y226836D01*
X-15825Y230787D02*
X-15825Y222885D01*
X-26305Y222885D02*
X-26305Y240665D01*
X-31244Y240665D01*
X-31384Y240663D01*
X-31523Y240657D01*
X-31663Y240647D01*
X-31802Y240633D01*
X-31941Y240616D01*
X-32079Y240594D01*
X-32216Y240568D01*
X-32353Y240539D01*
X-32489Y240506D01*
X-32623Y240469D01*
X-32757Y240428D01*
X-32889Y240383D01*
X-33021Y240334D01*
X-33150Y240282D01*
X-33278Y240227D01*
X-33405Y240167D01*
X-33530Y240104D01*
X-33653Y240038D01*
X-33774Y239968D01*
X-33893Y239895D01*
X-34010Y239818D01*
X-34124Y239738D01*
X-34237Y239655D01*
X-34347Y239569D01*
X-34454Y239479D01*
X-34559Y239387D01*
X-34661Y239292D01*
X-34761Y239194D01*
X-34858Y239093D01*
X-34952Y238989D01*
X-35042Y238883D01*
X-35130Y238774D01*
X-35215Y238663D01*
X-35296Y238549D01*
X-35375Y238434D01*
X-35450Y238316D01*
X-35521Y238196D01*
X-35589Y238073D01*
X-35654Y237950D01*
X-35715Y237824D01*
X-35773Y237696D01*
X-35827Y237568D01*
X-35877Y237437D01*
X-35924Y237305D01*
X-35967Y237172D01*
X-36006Y237038D01*
X-36041Y236903D01*
X-36072Y236767D01*
X-36100Y236629D01*
X-36123Y236492D01*
X-36143Y236353D01*
X-36159Y236214D01*
X-36171Y236075D01*
X-36179Y235936D01*
X-36183Y235796D01*
X-36183Y235656D01*
X-36179Y235516D01*
X-36171Y235377D01*
X-36159Y235238D01*
X-36143Y235099D01*
X-36123Y234960D01*
X-36100Y234823D01*
X-36072Y234685D01*
X-36041Y234549D01*
X-36006Y234414D01*
X-35967Y234280D01*
X-35924Y234147D01*
X-35877Y234015D01*
X-35827Y233884D01*
X-35773Y233756D01*
X-35715Y233628D01*
X-35654Y233502D01*
X-35589Y233379D01*
X-35521Y233256D01*
X-35450Y233136D01*
X-35375Y233018D01*
X-35296Y232903D01*
X-35215Y232789D01*
X-35130Y232678D01*
X-35042Y232569D01*
X-34952Y232463D01*
X-34858Y232359D01*
X-34761Y232258D01*
X-34661Y232160D01*
X-34559Y232065D01*
X-34454Y231973D01*
X-34347Y231883D01*
X-34237Y231797D01*
X-34124Y231714D01*
X-34010Y231634D01*
X-33893Y231557D01*
X-33774Y231484D01*
X-33653Y231414D01*
X-33530Y231348D01*
X-33405Y231285D01*
X-33278Y231225D01*
X-33150Y231170D01*
X-33021Y231118D01*
X-32889Y231069D01*
X-32757Y231024D01*
X-32623Y230983D01*
X-32489Y230946D01*
X-32353Y230913D01*
X-32216Y230884D01*
X-32079Y230858D01*
X-31941Y230836D01*
X-31802Y230819D01*
X-31663Y230805D01*
X-31523Y230795D01*
X-31384Y230789D01*
X-31244Y230787D01*
X-26305Y230787D01*
X-32232Y230787D02*
X-36183Y222885D01*
X-46921Y230787D02*
X-52848Y230787D01*
X-46921Y230787D02*
X-46797Y230789D01*
X-46673Y230795D01*
X-46549Y230805D01*
X-46426Y230818D01*
X-46303Y230836D01*
X-46181Y230857D01*
X-46059Y230882D01*
X-45938Y230911D01*
X-45819Y230944D01*
X-45700Y230980D01*
X-45583Y231021D01*
X-45467Y231064D01*
X-45352Y231112D01*
X-45239Y231163D01*
X-45127Y231218D01*
X-45018Y231276D01*
X-44910Y231337D01*
X-44804Y231402D01*
X-44700Y231470D01*
X-44599Y231542D01*
X-44499Y231616D01*
X-44403Y231694D01*
X-44308Y231774D01*
X-44216Y231858D01*
X-44127Y231944D01*
X-44041Y232033D01*
X-43957Y232125D01*
X-43877Y232220D01*
X-43799Y232316D01*
X-43725Y232416D01*
X-43653Y232517D01*
X-43585Y232621D01*
X-43520Y232727D01*
X-43459Y232835D01*
X-43401Y232944D01*
X-43346Y233056D01*
X-43295Y233169D01*
X-43247Y233284D01*
X-43204Y233400D01*
X-43163Y233517D01*
X-43127Y233636D01*
X-43094Y233755D01*
X-43065Y233876D01*
X-43040Y233998D01*
X-43019Y234120D01*
X-43001Y234243D01*
X-42988Y234366D01*
X-42978Y234490D01*
X-42972Y234614D01*
X-42970Y234738D01*
X-42970Y235726D01*
X-42972Y235866D01*
X-42978Y236005D01*
X-42988Y236145D01*
X-43002Y236284D01*
X-43019Y236423D01*
X-43041Y236561D01*
X-43067Y236698D01*
X-43096Y236835D01*
X-43129Y236971D01*
X-43166Y237105D01*
X-43207Y237239D01*
X-43252Y237371D01*
X-43301Y237503D01*
X-43353Y237632D01*
X-43408Y237760D01*
X-43468Y237887D01*
X-43531Y238012D01*
X-43597Y238135D01*
X-43667Y238256D01*
X-43740Y238375D01*
X-43817Y238492D01*
X-43897Y238606D01*
X-43980Y238719D01*
X-44066Y238829D01*
X-44156Y238936D01*
X-44248Y239041D01*
X-44343Y239143D01*
X-44441Y239243D01*
X-44542Y239340D01*
X-44646Y239434D01*
X-44752Y239524D01*
X-44861Y239612D01*
X-44972Y239697D01*
X-45086Y239778D01*
X-45201Y239857D01*
X-45319Y239932D01*
X-45440Y240003D01*
X-45562Y240071D01*
X-45685Y240136D01*
X-45811Y240197D01*
X-45939Y240255D01*
X-46067Y240309D01*
X-46198Y240359D01*
X-46330Y240406D01*
X-46463Y240449D01*
X-46597Y240488D01*
X-46732Y240523D01*
X-46868Y240554D01*
X-47006Y240582D01*
X-47143Y240605D01*
X-47282Y240625D01*
X-47421Y240641D01*
X-47560Y240653D01*
X-47699Y240661D01*
X-47839Y240665D01*
X-47979Y240665D01*
X-48119Y240661D01*
X-48258Y240653D01*
X-48397Y240641D01*
X-48536Y240625D01*
X-48675Y240605D01*
X-48812Y240582D01*
X-48950Y240554D01*
X-49086Y240523D01*
X-49221Y240488D01*
X-49355Y240449D01*
X-49488Y240406D01*
X-49620Y240359D01*
X-49751Y240309D01*
X-49879Y240255D01*
X-50007Y240197D01*
X-50133Y240136D01*
X-50256Y240071D01*
X-50379Y240003D01*
X-50499Y239932D01*
X-50617Y239857D01*
X-50732Y239778D01*
X-50846Y239697D01*
X-50957Y239612D01*
X-51066Y239524D01*
X-51172Y239434D01*
X-51276Y239340D01*
X-51377Y239243D01*
X-51475Y239143D01*
X-51570Y239041D01*
X-51662Y238936D01*
X-51752Y238829D01*
X-51838Y238719D01*
X-51921Y238606D01*
X-52001Y238492D01*
X-52078Y238375D01*
X-52151Y238256D01*
X-52221Y238135D01*
X-52287Y238012D01*
X-52350Y237887D01*
X-52410Y237760D01*
X-52465Y237632D01*
X-52517Y237503D01*
X-52566Y237371D01*
X-52611Y237239D01*
X-52652Y237105D01*
X-52689Y236971D01*
X-52722Y236835D01*
X-52751Y236698D01*
X-52777Y236561D01*
X-52799Y236423D01*
X-52816Y236284D01*
X-52830Y236145D01*
X-52840Y236005D01*
X-52846Y235866D01*
X-52848Y235726D01*
X-52848Y230787D01*
X-52846Y230593D01*
X-52838Y230399D01*
X-52827Y230206D01*
X-52810Y230012D01*
X-52789Y229820D01*
X-52762Y229628D01*
X-52732Y229436D01*
X-52696Y229245D01*
X-52656Y229056D01*
X-52611Y228867D01*
X-52562Y228679D01*
X-52508Y228493D01*
X-52449Y228308D01*
X-52386Y228125D01*
X-52319Y227943D01*
X-52246Y227763D01*
X-52170Y227585D01*
X-52089Y227408D01*
X-52004Y227234D01*
X-51915Y227062D01*
X-51821Y226892D01*
X-51724Y226725D01*
X-51622Y226559D01*
X-51516Y226397D01*
X-51407Y226237D01*
X-51293Y226080D01*
X-51176Y225925D01*
X-51054Y225774D01*
X-50929Y225626D01*
X-50801Y225480D01*
X-50669Y225338D01*
X-50534Y225199D01*
X-50395Y225064D01*
X-50253Y224932D01*
X-50107Y224804D01*
X-49959Y224679D01*
X-49808Y224557D01*
X-49653Y224440D01*
X-49496Y224326D01*
X-49336Y224217D01*
X-49174Y224111D01*
X-49008Y224009D01*
X-48841Y223912D01*
X-48671Y223818D01*
X-48499Y223729D01*
X-48325Y223644D01*
X-48148Y223563D01*
X-47970Y223487D01*
X-47790Y223414D01*
X-47608Y223347D01*
X-47425Y223284D01*
X-47240Y223225D01*
X-47054Y223171D01*
X-46866Y223122D01*
X-46677Y223077D01*
X-46488Y223037D01*
X-46297Y223001D01*
X-46105Y222971D01*
X-45913Y222944D01*
X-45721Y222923D01*
X-45527Y222906D01*
X-45334Y222895D01*
X-45140Y222887D01*
X-44946Y222885D01*
X-59721Y231775D02*
X-59725Y232125D01*
X-59738Y232474D01*
X-59759Y232823D01*
X-59788Y233172D01*
X-59825Y233520D01*
X-59871Y233867D01*
X-59925Y234212D01*
X-59987Y234556D01*
X-60058Y234899D01*
X-60137Y235240D01*
X-60223Y235579D01*
X-60318Y235915D01*
X-60421Y236250D01*
X-60532Y236581D01*
X-60650Y236911D01*
X-60777Y237237D01*
X-60911Y237560D01*
X-61053Y237879D01*
X-61203Y238196D01*
X-61202Y238195D02*
X-61242Y238308D01*
X-61286Y238418D01*
X-61334Y238528D01*
X-61385Y238636D01*
X-61440Y238741D01*
X-61498Y238846D01*
X-61560Y238948D01*
X-61625Y239048D01*
X-61693Y239146D01*
X-61764Y239242D01*
X-61839Y239335D01*
X-61916Y239426D01*
X-61996Y239514D01*
X-62080Y239599D01*
X-62165Y239682D01*
X-62254Y239762D01*
X-62345Y239839D01*
X-62439Y239913D01*
X-62535Y239984D01*
X-62633Y240052D01*
X-62733Y240116D01*
X-62836Y240178D01*
X-62940Y240235D01*
X-63046Y240290D01*
X-63154Y240341D01*
X-63264Y240388D01*
X-63375Y240432D01*
X-63487Y240472D01*
X-63601Y240508D01*
X-63715Y240541D01*
X-63831Y240570D01*
X-63948Y240595D01*
X-64065Y240616D01*
X-64183Y240634D01*
X-64302Y240647D01*
X-64421Y240657D01*
X-64540Y240663D01*
X-64659Y240665D01*
X-64778Y240663D01*
X-64897Y240657D01*
X-65016Y240647D01*
X-65135Y240634D01*
X-65253Y240616D01*
X-65370Y240595D01*
X-65487Y240570D01*
X-65603Y240541D01*
X-65717Y240508D01*
X-65831Y240472D01*
X-65943Y240432D01*
X-66054Y240388D01*
X-66164Y240341D01*
X-66272Y240290D01*
X-66378Y240235D01*
X-66482Y240178D01*
X-66585Y240116D01*
X-66685Y240052D01*
X-66783Y239984D01*
X-66879Y239913D01*
X-66973Y239839D01*
X-67064Y239762D01*
X-67153Y239682D01*
X-67239Y239599D01*
X-67322Y239514D01*
X-67402Y239426D01*
X-67479Y239335D01*
X-67554Y239242D01*
X-67625Y239146D01*
X-67693Y239048D01*
X-67758Y238948D01*
X-67820Y238846D01*
X-67878Y238741D01*
X-67933Y238635D01*
X-67984Y238528D01*
X-68032Y238418D01*
X-68076Y238308D01*
X-68116Y238195D01*
X-68116Y238196D02*
X-68266Y237879D01*
X-68408Y237560D01*
X-68542Y237237D01*
X-68669Y236911D01*
X-68787Y236581D01*
X-68898Y236250D01*
X-69001Y235915D01*
X-69096Y235579D01*
X-69182Y235240D01*
X-69261Y234899D01*
X-69332Y234556D01*
X-69394Y234212D01*
X-69448Y233867D01*
X-69494Y233520D01*
X-69531Y233172D01*
X-69560Y232823D01*
X-69581Y232474D01*
X-69594Y232125D01*
X-69598Y231775D01*
X-59721Y231775D02*
X-59725Y231425D01*
X-59738Y231076D01*
X-59759Y230727D01*
X-59788Y230378D01*
X-59825Y230030D01*
X-59871Y229683D01*
X-59925Y229338D01*
X-59987Y228994D01*
X-60058Y228651D01*
X-60137Y228310D01*
X-60223Y227971D01*
X-60318Y227635D01*
X-60421Y227300D01*
X-60532Y226969D01*
X-60650Y226640D01*
X-60777Y226313D01*
X-60911Y225990D01*
X-61053Y225671D01*
X-61203Y225355D01*
X-61202Y225355D02*
X-61242Y225242D01*
X-61286Y225132D01*
X-61334Y225022D01*
X-61385Y224914D01*
X-61440Y224808D01*
X-61498Y224704D01*
X-61560Y224602D01*
X-61625Y224502D01*
X-61693Y224404D01*
X-61764Y224308D01*
X-61839Y224215D01*
X-61916Y224124D01*
X-61996Y224036D01*
X-62080Y223951D01*
X-62165Y223868D01*
X-62254Y223788D01*
X-62345Y223711D01*
X-62439Y223637D01*
X-62535Y223566D01*
X-62633Y223498D01*
X-62733Y223434D01*
X-62836Y223372D01*
X-62940Y223314D01*
X-63046Y223260D01*
X-63154Y223209D01*
X-63264Y223162D01*
X-63375Y223118D01*
X-63487Y223078D01*
X-63601Y223042D01*
X-63715Y223009D01*
X-63831Y222980D01*
X-63948Y222955D01*
X-64065Y222934D01*
X-64183Y222916D01*
X-64302Y222903D01*
X-64421Y222893D01*
X-64540Y222887D01*
X-64659Y222885D01*
X-68116Y225355D02*
X-68266Y225671D01*
X-68408Y225990D01*
X-68542Y226313D01*
X-68669Y226640D01*
X-68787Y226969D01*
X-68898Y227300D01*
X-69001Y227635D01*
X-69096Y227971D01*
X-69182Y228310D01*
X-69261Y228651D01*
X-69332Y228994D01*
X-69394Y229338D01*
X-69448Y229683D01*
X-69494Y230030D01*
X-69531Y230378D01*
X-69560Y230727D01*
X-69581Y231076D01*
X-69594Y231425D01*
X-69598Y231775D01*
X-68116Y225355D02*
X-68076Y225242D01*
X-68032Y225132D01*
X-67984Y225022D01*
X-67933Y224915D01*
X-67878Y224809D01*
X-67820Y224704D01*
X-67758Y224602D01*
X-67693Y224502D01*
X-67625Y224404D01*
X-67554Y224308D01*
X-67479Y224215D01*
X-67402Y224124D01*
X-67322Y224036D01*
X-67239Y223951D01*
X-67153Y223868D01*
X-67064Y223788D01*
X-66973Y223711D01*
X-66879Y223637D01*
X-66783Y223566D01*
X-66685Y223498D01*
X-66585Y223434D01*
X-66482Y223372D01*
X-66378Y223315D01*
X-66272Y223260D01*
X-66164Y223209D01*
X-66054Y223162D01*
X-65943Y223118D01*
X-65831Y223078D01*
X-65717Y223042D01*
X-65603Y223009D01*
X-65487Y222980D01*
X-65370Y222955D01*
X-65253Y222934D01*
X-65135Y222916D01*
X-65016Y222903D01*
X-64897Y222893D01*
X-64778Y222887D01*
X-64659Y222885D01*
X-60708Y226836D02*
X-68611Y236714D01*
D11*
X-68298Y280374D02*
X-66612Y281348D01*
X-68298Y280374D02*
X-65053Y274753D01*
X-61680Y276700D01*
X-61680Y276701D02*
X-61595Y276752D01*
X-61512Y276807D01*
X-61431Y276864D01*
X-61352Y276925D01*
X-61276Y276989D01*
X-61202Y277056D01*
X-61131Y277125D01*
X-61062Y277197D01*
X-60996Y277272D01*
X-60934Y277349D01*
X-60874Y277428D01*
X-60817Y277510D01*
X-60764Y277594D01*
X-60713Y277680D01*
X-60666Y277767D01*
X-60623Y277857D01*
X-60583Y277948D01*
X-60546Y278040D01*
X-60513Y278134D01*
X-60484Y278229D01*
X-60458Y278325D01*
X-60436Y278422D01*
X-60418Y278520D01*
X-60403Y278618D01*
X-60392Y278717D01*
X-60385Y278816D01*
X-60382Y278916D01*
X-60383Y279015D01*
X-60387Y279115D01*
X-60396Y279214D01*
X-60408Y279312D01*
X-60423Y279411D01*
X-60443Y279508D01*
X-60466Y279605D01*
X-60493Y279701D01*
X-60524Y279795D01*
X-60558Y279889D01*
X-60596Y279981D01*
X-60637Y280071D01*
X-60682Y280160D01*
X-60730Y280247D01*
X-63975Y285868D01*
X-63976Y285868D02*
X-64027Y285953D01*
X-64082Y286036D01*
X-64139Y286117D01*
X-64200Y286196D01*
X-64264Y286272D01*
X-64331Y286346D01*
X-64400Y286417D01*
X-64472Y286486D01*
X-64547Y286552D01*
X-64624Y286614D01*
X-64703Y286674D01*
X-64785Y286731D01*
X-64869Y286784D01*
X-64955Y286835D01*
X-65042Y286882D01*
X-65132Y286925D01*
X-65223Y286965D01*
X-65315Y287002D01*
X-65409Y287035D01*
X-65504Y287064D01*
X-65600Y287090D01*
X-65697Y287112D01*
X-65795Y287130D01*
X-65893Y287145D01*
X-65992Y287156D01*
X-66091Y287163D01*
X-66191Y287166D01*
X-66290Y287165D01*
X-66390Y287161D01*
X-66489Y287152D01*
X-66587Y287140D01*
X-66686Y287125D01*
X-66783Y287105D01*
X-66880Y287082D01*
X-66976Y287055D01*
X-67070Y287024D01*
X-67164Y286990D01*
X-67256Y286952D01*
X-67346Y286911D01*
X-67435Y286866D01*
X-67522Y286818D01*
X-67522Y286819D02*
X-70895Y284872D01*
X-75832Y282021D02*
X-69990Y271902D01*
X-75612Y268657D02*
X-75832Y282021D01*
X-81454Y278776D02*
X-75612Y268657D01*
X-80549Y265806D02*
X-86391Y275925D01*
X-89201Y274302D01*
X-89202Y274303D02*
X-89299Y274245D01*
X-89394Y274183D01*
X-89487Y274118D01*
X-89577Y274050D01*
X-89665Y273979D01*
X-89751Y273904D01*
X-89834Y273827D01*
X-89914Y273747D01*
X-89991Y273664D01*
X-90066Y273578D01*
X-90137Y273490D01*
X-90205Y273400D01*
X-90270Y273307D01*
X-90332Y273212D01*
X-90390Y273115D01*
X-90445Y273016D01*
X-90496Y272915D01*
X-90544Y272812D01*
X-90589Y272708D01*
X-90629Y272602D01*
X-90666Y272495D01*
X-90699Y272387D01*
X-90729Y272277D01*
X-90754Y272167D01*
X-90776Y272056D01*
X-90793Y271944D01*
X-90807Y271831D01*
X-90817Y271718D01*
X-90823Y271605D01*
X-90825Y271492D01*
X-90823Y271379D01*
X-90817Y271266D01*
X-90807Y271153D01*
X-90793Y271040D01*
X-90776Y270928D01*
X-90754Y270817D01*
X-90729Y270707D01*
X-90699Y270597D01*
X-90666Y270489D01*
X-90629Y270382D01*
X-90589Y270276D01*
X-90544Y270172D01*
X-90496Y270069D01*
X-90445Y269968D01*
X-90390Y269869D01*
X-90389Y269869D02*
X-87793Y265372D01*
X-87793Y265371D02*
X-87735Y265274D01*
X-87673Y265179D01*
X-87608Y265086D01*
X-87540Y264996D01*
X-87469Y264908D01*
X-87394Y264822D01*
X-87317Y264739D01*
X-87237Y264659D01*
X-87154Y264582D01*
X-87068Y264507D01*
X-86980Y264436D01*
X-86890Y264368D01*
X-86797Y264303D01*
X-86702Y264241D01*
X-86605Y264183D01*
X-86506Y264128D01*
X-86405Y264077D01*
X-86302Y264029D01*
X-86198Y263984D01*
X-86092Y263944D01*
X-85985Y263907D01*
X-85877Y263874D01*
X-85767Y263844D01*
X-85657Y263819D01*
X-85546Y263797D01*
X-85434Y263780D01*
X-85321Y263766D01*
X-85208Y263756D01*
X-85095Y263750D01*
X-84982Y263748D01*
X-84869Y263750D01*
X-84756Y263756D01*
X-84643Y263766D01*
X-84530Y263780D01*
X-84418Y263797D01*
X-84307Y263819D01*
X-84197Y263844D01*
X-84087Y263874D01*
X-83979Y263907D01*
X-83872Y263944D01*
X-83766Y263984D01*
X-83662Y264029D01*
X-83559Y264077D01*
X-83458Y264128D01*
X-83359Y264183D01*
X-83359Y264184D02*
X-80549Y265806D01*
X79339Y29549D02*
X81026Y30523D01*
X79339Y29549D02*
X82585Y23928D01*
X85958Y25875D01*
X85957Y25876D02*
X86042Y25927D01*
X86125Y25982D01*
X86206Y26040D01*
X86285Y26100D01*
X86361Y26164D01*
X86435Y26231D01*
X86506Y26300D01*
X86575Y26372D01*
X86641Y26447D01*
X86703Y26524D01*
X86763Y26604D01*
X86820Y26685D01*
X86873Y26769D01*
X86924Y26855D01*
X86971Y26943D01*
X87014Y27032D01*
X87054Y27123D01*
X87091Y27215D01*
X87124Y27309D01*
X87153Y27404D01*
X87179Y27500D01*
X87201Y27597D01*
X87219Y27695D01*
X87234Y27793D01*
X87245Y27892D01*
X87252Y27991D01*
X87255Y28091D01*
X87254Y28190D01*
X87250Y28290D01*
X87241Y28389D01*
X87229Y28488D01*
X87214Y28586D01*
X87194Y28683D01*
X87171Y28780D01*
X87144Y28876D01*
X87113Y28970D01*
X87079Y29064D01*
X87041Y29156D01*
X87000Y29246D01*
X86955Y29335D01*
X86907Y29422D01*
X86908Y29422D02*
X83662Y35043D01*
X83611Y35128D01*
X83556Y35211D01*
X83499Y35292D01*
X83438Y35371D01*
X83374Y35447D01*
X83307Y35521D01*
X83238Y35592D01*
X83166Y35661D01*
X83091Y35727D01*
X83014Y35789D01*
X82935Y35849D01*
X82853Y35906D01*
X82769Y35959D01*
X82683Y36010D01*
X82596Y36057D01*
X82506Y36100D01*
X82415Y36140D01*
X82323Y36177D01*
X82229Y36210D01*
X82134Y36239D01*
X82038Y36265D01*
X81941Y36287D01*
X81843Y36305D01*
X81745Y36320D01*
X81646Y36331D01*
X81547Y36338D01*
X81447Y36341D01*
X81348Y36340D01*
X81248Y36336D01*
X81149Y36327D01*
X81051Y36315D01*
X80952Y36300D01*
X80855Y36280D01*
X80758Y36257D01*
X80662Y36230D01*
X80568Y36199D01*
X80474Y36165D01*
X80382Y36127D01*
X80292Y36086D01*
X80203Y36041D01*
X80116Y35993D01*
X80116Y35994D02*
X76743Y34047D01*
X71806Y31196D02*
X77648Y21077D01*
X72026Y17832D02*
X71806Y31196D01*
X66184Y27951D02*
X72026Y17832D01*
X67089Y14981D02*
X61247Y25100D01*
X58436Y23477D01*
X58436Y23478D02*
X58339Y23420D01*
X58244Y23358D01*
X58151Y23293D01*
X58061Y23225D01*
X57973Y23154D01*
X57887Y23079D01*
X57804Y23002D01*
X57724Y22922D01*
X57647Y22839D01*
X57572Y22753D01*
X57501Y22665D01*
X57433Y22575D01*
X57368Y22482D01*
X57306Y22387D01*
X57248Y22290D01*
X57193Y22191D01*
X57142Y22090D01*
X57094Y21987D01*
X57049Y21883D01*
X57009Y21777D01*
X56972Y21670D01*
X56939Y21562D01*
X56909Y21452D01*
X56884Y21342D01*
X56862Y21231D01*
X56845Y21119D01*
X56831Y21006D01*
X56821Y20893D01*
X56815Y20780D01*
X56813Y20667D01*
X56815Y20554D01*
X56821Y20441D01*
X56831Y20328D01*
X56845Y20215D01*
X56862Y20103D01*
X56884Y19992D01*
X56909Y19882D01*
X56939Y19772D01*
X56972Y19664D01*
X57009Y19557D01*
X57049Y19451D01*
X57094Y19347D01*
X57141Y19244D01*
X57193Y19143D01*
X57248Y19044D01*
X59845Y14547D01*
X59845Y14546D02*
X59903Y14449D01*
X59965Y14354D01*
X60030Y14261D01*
X60098Y14171D01*
X60169Y14083D01*
X60244Y13997D01*
X60321Y13914D01*
X60401Y13834D01*
X60484Y13757D01*
X60570Y13682D01*
X60658Y13611D01*
X60748Y13543D01*
X60841Y13478D01*
X60936Y13416D01*
X61033Y13358D01*
X61132Y13303D01*
X61233Y13252D01*
X61336Y13204D01*
X61440Y13159D01*
X61546Y13119D01*
X61653Y13082D01*
X61761Y13049D01*
X61871Y13019D01*
X61981Y12994D01*
X62092Y12972D01*
X62204Y12955D01*
X62317Y12941D01*
X62430Y12931D01*
X62543Y12925D01*
X62656Y12923D01*
X62769Y12925D01*
X62882Y12931D01*
X62995Y12941D01*
X63108Y12955D01*
X63220Y12972D01*
X63331Y12994D01*
X63441Y13019D01*
X63551Y13049D01*
X63659Y13082D01*
X63766Y13119D01*
X63872Y13159D01*
X63976Y13204D01*
X64079Y13252D01*
X64180Y13303D01*
X64279Y13358D01*
X64278Y13359D02*
X67089Y14981D01*
X145112Y143023D02*
X145112Y144971D01*
X138621Y144971D01*
X138621Y141076D01*
X138623Y140977D01*
X138629Y140877D01*
X138638Y140778D01*
X138651Y140680D01*
X138668Y140582D01*
X138689Y140484D01*
X138714Y140388D01*
X138742Y140293D01*
X138774Y140199D01*
X138809Y140106D01*
X138848Y140014D01*
X138891Y139924D01*
X138936Y139836D01*
X138986Y139749D01*
X139038Y139665D01*
X139094Y139582D01*
X139152Y139502D01*
X139214Y139424D01*
X139279Y139349D01*
X139347Y139276D01*
X139417Y139206D01*
X139490Y139138D01*
X139565Y139073D01*
X139643Y139011D01*
X139723Y138953D01*
X139806Y138897D01*
X139890Y138845D01*
X139977Y138795D01*
X140065Y138750D01*
X140155Y138707D01*
X140247Y138668D01*
X140340Y138633D01*
X140434Y138601D01*
X140529Y138573D01*
X140625Y138548D01*
X140723Y138527D01*
X140821Y138510D01*
X140919Y138497D01*
X141018Y138488D01*
X141118Y138482D01*
X141217Y138480D01*
X141217Y138479D02*
X147708Y138479D01*
X147708Y138480D02*
X147807Y138482D01*
X147907Y138488D01*
X148006Y138497D01*
X148104Y138510D01*
X148202Y138527D01*
X148300Y138548D01*
X148396Y138573D01*
X148491Y138601D01*
X148585Y138633D01*
X148678Y138668D01*
X148770Y138707D01*
X148860Y138750D01*
X148948Y138795D01*
X149035Y138845D01*
X149119Y138897D01*
X149202Y138953D01*
X149282Y139011D01*
X149360Y139073D01*
X149435Y139138D01*
X149508Y139206D01*
X149578Y139276D01*
X149646Y139349D01*
X149711Y139424D01*
X149773Y139502D01*
X149831Y139582D01*
X149887Y139665D01*
X149939Y139749D01*
X149989Y139836D01*
X150034Y139924D01*
X150077Y140014D01*
X150116Y140106D01*
X150151Y140198D01*
X150183Y140293D01*
X150211Y140388D01*
X150236Y140484D01*
X150257Y140582D01*
X150274Y140680D01*
X150287Y140778D01*
X150296Y140877D01*
X150302Y140977D01*
X150304Y141076D01*
X150305Y141076D02*
X150305Y144971D01*
X150305Y150671D02*
X138621Y150671D01*
X138621Y157163D02*
X150305Y150671D01*
X150305Y157163D02*
X138621Y157163D01*
X138621Y162863D02*
X150305Y162863D01*
X150305Y166109D01*
X150303Y166222D01*
X150297Y166335D01*
X150287Y166448D01*
X150273Y166561D01*
X150256Y166673D01*
X150234Y166784D01*
X150209Y166894D01*
X150179Y167004D01*
X150146Y167112D01*
X150109Y167219D01*
X150069Y167325D01*
X150024Y167429D01*
X149976Y167532D01*
X149925Y167633D01*
X149870Y167732D01*
X149812Y167829D01*
X149750Y167924D01*
X149685Y168017D01*
X149617Y168107D01*
X149546Y168195D01*
X149471Y168281D01*
X149394Y168364D01*
X149314Y168444D01*
X149231Y168521D01*
X149145Y168596D01*
X149057Y168667D01*
X148967Y168735D01*
X148874Y168800D01*
X148779Y168862D01*
X148682Y168920D01*
X148583Y168975D01*
X148482Y169026D01*
X148379Y169074D01*
X148275Y169119D01*
X148169Y169159D01*
X148062Y169196D01*
X147954Y169229D01*
X147844Y169259D01*
X147734Y169284D01*
X147623Y169306D01*
X147511Y169323D01*
X147398Y169337D01*
X147285Y169347D01*
X147172Y169353D01*
X147059Y169355D01*
X141866Y169355D01*
X141753Y169353D01*
X141640Y169347D01*
X141527Y169337D01*
X141414Y169323D01*
X141302Y169306D01*
X141191Y169284D01*
X141081Y169259D01*
X140971Y169229D01*
X140863Y169196D01*
X140756Y169159D01*
X140650Y169119D01*
X140546Y169074D01*
X140443Y169026D01*
X140342Y168975D01*
X140243Y168920D01*
X140146Y168862D01*
X140051Y168800D01*
X139958Y168735D01*
X139868Y168667D01*
X139780Y168596D01*
X139694Y168521D01*
X139611Y168444D01*
X139531Y168364D01*
X139454Y168281D01*
X139379Y168195D01*
X139308Y168107D01*
X139240Y168017D01*
X139175Y167924D01*
X139113Y167829D01*
X139055Y167732D01*
X139000Y167633D01*
X138949Y167532D01*
X138901Y167429D01*
X138856Y167325D01*
X138816Y167219D01*
X138779Y167112D01*
X138746Y167004D01*
X138716Y166894D01*
X138691Y166784D01*
X138669Y166673D01*
X138652Y166561D01*
X138638Y166448D01*
X138628Y166335D01*
X138622Y166222D01*
X138620Y166109D01*
X138621Y166109D02*
X138621Y162863D01*
X-150777Y170837D02*
X-151750Y169150D01*
X-150777Y170837D02*
X-156398Y174082D01*
X-158345Y170710D01*
X-158345Y170709D02*
X-158393Y170622D01*
X-158438Y170533D01*
X-158479Y170443D01*
X-158517Y170351D01*
X-158551Y170257D01*
X-158582Y170163D01*
X-158609Y170067D01*
X-158632Y169970D01*
X-158652Y169873D01*
X-158667Y169774D01*
X-158679Y169676D01*
X-158688Y169577D01*
X-158692Y169477D01*
X-158693Y169378D01*
X-158690Y169278D01*
X-158683Y169179D01*
X-158672Y169080D01*
X-158657Y168982D01*
X-158639Y168884D01*
X-158617Y168787D01*
X-158591Y168691D01*
X-158562Y168596D01*
X-158529Y168502D01*
X-158492Y168410D01*
X-158452Y168319D01*
X-158409Y168230D01*
X-158362Y168142D01*
X-158311Y168056D01*
X-158258Y167972D01*
X-158201Y167891D01*
X-158141Y167811D01*
X-158079Y167734D01*
X-158013Y167659D01*
X-157944Y167587D01*
X-157873Y167518D01*
X-157799Y167451D01*
X-157723Y167387D01*
X-157644Y167327D01*
X-157563Y167269D01*
X-157480Y167214D01*
X-157395Y167163D01*
X-151774Y163917D01*
X-151773Y163918D02*
X-151686Y163870D01*
X-151597Y163825D01*
X-151507Y163784D01*
X-151415Y163746D01*
X-151321Y163712D01*
X-151227Y163681D01*
X-151131Y163654D01*
X-151034Y163631D01*
X-150937Y163611D01*
X-150838Y163596D01*
X-150740Y163584D01*
X-150641Y163575D01*
X-150541Y163571D01*
X-150442Y163570D01*
X-150342Y163573D01*
X-150243Y163580D01*
X-150144Y163591D01*
X-150046Y163606D01*
X-149948Y163624D01*
X-149851Y163646D01*
X-149755Y163672D01*
X-149660Y163701D01*
X-149566Y163734D01*
X-149474Y163771D01*
X-149383Y163811D01*
X-149293Y163854D01*
X-149206Y163901D01*
X-149120Y163952D01*
X-149036Y164005D01*
X-148954Y164062D01*
X-148875Y164122D01*
X-148798Y164184D01*
X-148723Y164250D01*
X-148651Y164319D01*
X-148582Y164390D01*
X-148515Y164464D01*
X-148451Y164540D01*
X-148391Y164619D01*
X-148333Y164700D01*
X-148278Y164783D01*
X-148227Y164868D01*
X-146279Y168240D01*
X-143429Y173177D02*
X-153548Y179019D01*
X-150302Y184641D02*
X-143429Y173177D01*
X-140183Y178799D02*
X-150302Y184641D01*
X-147452Y189578D02*
X-137333Y183736D01*
X-135710Y186547D01*
X-135710Y186546D02*
X-135655Y186645D01*
X-135604Y186746D01*
X-135556Y186849D01*
X-135511Y186953D01*
X-135471Y187059D01*
X-135434Y187166D01*
X-135401Y187274D01*
X-135371Y187384D01*
X-135346Y187494D01*
X-135324Y187605D01*
X-135307Y187717D01*
X-135293Y187830D01*
X-135283Y187943D01*
X-135277Y188056D01*
X-135275Y188169D01*
X-135277Y188282D01*
X-135283Y188395D01*
X-135293Y188508D01*
X-135307Y188621D01*
X-135324Y188733D01*
X-135346Y188844D01*
X-135371Y188954D01*
X-135401Y189064D01*
X-135434Y189172D01*
X-135471Y189279D01*
X-135511Y189385D01*
X-135556Y189489D01*
X-135604Y189592D01*
X-135655Y189693D01*
X-135710Y189792D01*
X-135768Y189889D01*
X-135830Y189984D01*
X-135895Y190077D01*
X-135963Y190167D01*
X-136034Y190256D01*
X-136109Y190341D01*
X-136186Y190424D01*
X-136266Y190504D01*
X-136349Y190581D01*
X-136435Y190656D01*
X-136523Y190727D01*
X-136613Y190795D01*
X-136706Y190860D01*
X-136801Y190922D01*
X-136898Y190980D01*
X-141395Y193577D01*
X-141494Y193632D01*
X-141595Y193683D01*
X-141698Y193731D01*
X-141802Y193776D01*
X-141908Y193816D01*
X-142015Y193853D01*
X-142123Y193886D01*
X-142233Y193916D01*
X-142343Y193941D01*
X-142454Y193963D01*
X-142566Y193980D01*
X-142679Y193994D01*
X-142792Y194004D01*
X-142905Y194010D01*
X-143018Y194012D01*
X-143131Y194010D01*
X-143244Y194004D01*
X-143357Y193994D01*
X-143470Y193980D01*
X-143582Y193963D01*
X-143693Y193941D01*
X-143803Y193916D01*
X-143913Y193886D01*
X-144021Y193853D01*
X-144128Y193816D01*
X-144234Y193776D01*
X-144338Y193731D01*
X-144441Y193683D01*
X-144542Y193632D01*
X-144641Y193577D01*
X-144738Y193519D01*
X-144833Y193457D01*
X-144926Y193392D01*
X-145016Y193324D01*
X-145104Y193253D01*
X-145190Y193178D01*
X-145273Y193101D01*
X-145353Y193021D01*
X-145430Y192938D01*
X-145505Y192852D01*
X-145576Y192764D01*
X-145644Y192674D01*
X-145709Y192581D01*
X-145771Y192486D01*
X-145829Y192389D01*
X-147452Y189578D01*
X83163Y271498D02*
X84850Y270525D01*
X83163Y271498D02*
X79918Y265877D01*
X83291Y263930D01*
X83378Y263882D01*
X83467Y263837D01*
X83557Y263796D01*
X83649Y263758D01*
X83743Y263724D01*
X83837Y263693D01*
X83933Y263666D01*
X84030Y263643D01*
X84127Y263623D01*
X84226Y263608D01*
X84324Y263596D01*
X84423Y263587D01*
X84523Y263583D01*
X84622Y263582D01*
X84722Y263585D01*
X84821Y263592D01*
X84920Y263603D01*
X85018Y263618D01*
X85116Y263636D01*
X85213Y263658D01*
X85309Y263684D01*
X85404Y263713D01*
X85498Y263746D01*
X85590Y263783D01*
X85681Y263823D01*
X85771Y263866D01*
X85858Y263913D01*
X85944Y263964D01*
X86028Y264017D01*
X86110Y264074D01*
X86189Y264134D01*
X86266Y264196D01*
X86341Y264262D01*
X86413Y264331D01*
X86482Y264402D01*
X86549Y264476D01*
X86613Y264552D01*
X86674Y264631D01*
X86731Y264712D01*
X86786Y264795D01*
X86837Y264880D01*
X90083Y270501D01*
X90082Y270502D02*
X90130Y270589D01*
X90175Y270678D01*
X90216Y270768D01*
X90254Y270860D01*
X90288Y270954D01*
X90319Y271048D01*
X90346Y271144D01*
X90369Y271241D01*
X90389Y271338D01*
X90404Y271437D01*
X90416Y271535D01*
X90425Y271634D01*
X90429Y271734D01*
X90430Y271833D01*
X90427Y271933D01*
X90420Y272032D01*
X90409Y272131D01*
X90394Y272229D01*
X90376Y272327D01*
X90354Y272424D01*
X90328Y272520D01*
X90299Y272615D01*
X90266Y272709D01*
X90229Y272801D01*
X90189Y272892D01*
X90146Y272982D01*
X90099Y273069D01*
X90048Y273155D01*
X89995Y273239D01*
X89938Y273321D01*
X89878Y273400D01*
X89816Y273477D01*
X89750Y273552D01*
X89681Y273624D01*
X89610Y273693D01*
X89536Y273760D01*
X89460Y273824D01*
X89381Y273884D01*
X89300Y273942D01*
X89217Y273997D01*
X89132Y274048D01*
X89133Y274048D02*
X85760Y275996D01*
X80823Y278846D02*
X74981Y268727D01*
X69359Y271973D02*
X80823Y278846D01*
X75201Y282092D02*
X69359Y271973D01*
X64422Y274823D02*
X70264Y284942D01*
X67453Y286565D01*
X67454Y286565D02*
X67355Y286620D01*
X67254Y286671D01*
X67151Y286719D01*
X67047Y286764D01*
X66941Y286804D01*
X66834Y286841D01*
X66726Y286874D01*
X66616Y286904D01*
X66506Y286929D01*
X66395Y286951D01*
X66283Y286968D01*
X66170Y286982D01*
X66057Y286992D01*
X65944Y286998D01*
X65831Y287000D01*
X65718Y286998D01*
X65605Y286992D01*
X65492Y286982D01*
X65379Y286968D01*
X65267Y286951D01*
X65156Y286929D01*
X65046Y286904D01*
X64936Y286874D01*
X64828Y286841D01*
X64721Y286804D01*
X64615Y286764D01*
X64511Y286719D01*
X64408Y286671D01*
X64307Y286620D01*
X64208Y286565D01*
X64111Y286507D01*
X64016Y286445D01*
X63923Y286380D01*
X63833Y286312D01*
X63745Y286241D01*
X63659Y286166D01*
X63576Y286089D01*
X63496Y286009D01*
X63419Y285926D01*
X63344Y285840D01*
X63273Y285752D01*
X63205Y285662D01*
X63140Y285569D01*
X63078Y285474D01*
X63020Y285377D01*
X60423Y280880D01*
X60368Y280781D01*
X60317Y280680D01*
X60269Y280577D01*
X60224Y280473D01*
X60184Y280367D01*
X60147Y280260D01*
X60114Y280152D01*
X60084Y280042D01*
X60059Y279932D01*
X60037Y279821D01*
X60020Y279709D01*
X60006Y279596D01*
X59996Y279483D01*
X59990Y279370D01*
X59988Y279257D01*
X59990Y279144D01*
X59996Y279031D01*
X60006Y278918D01*
X60020Y278805D01*
X60037Y278693D01*
X60059Y278582D01*
X60084Y278472D01*
X60114Y278362D01*
X60147Y278254D01*
X60184Y278147D01*
X60224Y278041D01*
X60269Y277937D01*
X60317Y277834D01*
X60368Y277733D01*
X60423Y277634D01*
X60481Y277537D01*
X60543Y277442D01*
X60608Y277349D01*
X60676Y277259D01*
X60747Y277170D01*
X60822Y277085D01*
X60899Y277002D01*
X60979Y276922D01*
X61062Y276845D01*
X61148Y276770D01*
X61236Y276699D01*
X61326Y276631D01*
X61419Y276566D01*
X61514Y276504D01*
X61611Y276446D01*
X64422Y274823D01*
X-62887Y20673D02*
X-61200Y19700D01*
X-62887Y20673D02*
X-66132Y15052D01*
X-62760Y13105D01*
X-62759Y13105D02*
X-62672Y13057D01*
X-62583Y13012D01*
X-62493Y12971D01*
X-62401Y12933D01*
X-62307Y12899D01*
X-62213Y12868D01*
X-62117Y12841D01*
X-62020Y12818D01*
X-61923Y12798D01*
X-61824Y12783D01*
X-61726Y12771D01*
X-61627Y12762D01*
X-61527Y12758D01*
X-61428Y12757D01*
X-61328Y12760D01*
X-61229Y12767D01*
X-61130Y12778D01*
X-61032Y12793D01*
X-60934Y12811D01*
X-60837Y12833D01*
X-60741Y12859D01*
X-60646Y12888D01*
X-60552Y12921D01*
X-60460Y12958D01*
X-60369Y12998D01*
X-60279Y13041D01*
X-60192Y13088D01*
X-60106Y13139D01*
X-60022Y13192D01*
X-59940Y13249D01*
X-59861Y13309D01*
X-59784Y13371D01*
X-59709Y13437D01*
X-59637Y13506D01*
X-59568Y13577D01*
X-59501Y13651D01*
X-59437Y13727D01*
X-59377Y13806D01*
X-59319Y13887D01*
X-59264Y13970D01*
X-59213Y14055D01*
X-55967Y19676D01*
X-55968Y19677D02*
X-55920Y19764D01*
X-55875Y19853D01*
X-55834Y19943D01*
X-55796Y20035D01*
X-55762Y20129D01*
X-55731Y20223D01*
X-55704Y20319D01*
X-55681Y20416D01*
X-55661Y20513D01*
X-55646Y20612D01*
X-55634Y20710D01*
X-55625Y20809D01*
X-55621Y20909D01*
X-55620Y21008D01*
X-55623Y21108D01*
X-55630Y21207D01*
X-55641Y21306D01*
X-55656Y21404D01*
X-55674Y21502D01*
X-55696Y21599D01*
X-55722Y21695D01*
X-55751Y21790D01*
X-55784Y21884D01*
X-55821Y21976D01*
X-55861Y22067D01*
X-55904Y22157D01*
X-55951Y22244D01*
X-56002Y22330D01*
X-56055Y22414D01*
X-56112Y22496D01*
X-56172Y22575D01*
X-56234Y22652D01*
X-56300Y22727D01*
X-56369Y22799D01*
X-56440Y22868D01*
X-56514Y22935D01*
X-56590Y22999D01*
X-56669Y23059D01*
X-56750Y23117D01*
X-56833Y23172D01*
X-56918Y23223D01*
X-60290Y25171D01*
X-65228Y28021D02*
X-71070Y17902D01*
X-76691Y21148D02*
X-65228Y28021D01*
X-70849Y31267D02*
X-76691Y21148D01*
X-81628Y23998D02*
X-75786Y34117D01*
X-78597Y35740D01*
X-78696Y35795D01*
X-78797Y35846D01*
X-78900Y35894D01*
X-79004Y35939D01*
X-79110Y35979D01*
X-79217Y36016D01*
X-79325Y36049D01*
X-79435Y36079D01*
X-79545Y36104D01*
X-79656Y36126D01*
X-79768Y36143D01*
X-79881Y36157D01*
X-79994Y36167D01*
X-80107Y36173D01*
X-80220Y36175D01*
X-80333Y36173D01*
X-80446Y36167D01*
X-80559Y36157D01*
X-80672Y36143D01*
X-80784Y36126D01*
X-80895Y36104D01*
X-81005Y36079D01*
X-81115Y36049D01*
X-81223Y36016D01*
X-81330Y35979D01*
X-81436Y35939D01*
X-81540Y35894D01*
X-81643Y35846D01*
X-81744Y35795D01*
X-81843Y35740D01*
X-81940Y35682D01*
X-82035Y35620D01*
X-82128Y35555D01*
X-82218Y35487D01*
X-82307Y35416D01*
X-82392Y35341D01*
X-82475Y35264D01*
X-82555Y35184D01*
X-82632Y35101D01*
X-82707Y35015D01*
X-82778Y34927D01*
X-82846Y34837D01*
X-82911Y34744D01*
X-82973Y34649D01*
X-83031Y34552D01*
X-83030Y34552D02*
X-85627Y30055D01*
X-85682Y29956D01*
X-85733Y29855D01*
X-85781Y29752D01*
X-85826Y29648D01*
X-85866Y29542D01*
X-85903Y29435D01*
X-85936Y29327D01*
X-85966Y29217D01*
X-85991Y29107D01*
X-86013Y28996D01*
X-86030Y28884D01*
X-86044Y28771D01*
X-86054Y28658D01*
X-86060Y28545D01*
X-86062Y28432D01*
X-86060Y28319D01*
X-86054Y28206D01*
X-86044Y28093D01*
X-86030Y27980D01*
X-86013Y27868D01*
X-85991Y27757D01*
X-85966Y27647D01*
X-85936Y27537D01*
X-85903Y27429D01*
X-85866Y27322D01*
X-85826Y27216D01*
X-85781Y27112D01*
X-85733Y27009D01*
X-85682Y26908D01*
X-85627Y26809D01*
X-85569Y26712D01*
X-85507Y26617D01*
X-85442Y26524D01*
X-85374Y26434D01*
X-85303Y26346D01*
X-85228Y26260D01*
X-85151Y26177D01*
X-85071Y26097D01*
X-84988Y26020D01*
X-84902Y25945D01*
X-84814Y25874D01*
X-84724Y25806D01*
X-84631Y25741D01*
X-84536Y25679D01*
X-84439Y25621D01*
X-81628Y23998D01*
D12*
X62548Y53658D02*
X62548Y89218D01*
X42228Y89218D01*
X42228Y53658D01*
X62548Y53658D01*
D13*
X66262Y65310D02*
X73628Y70220D01*
X73628Y65310D02*
X66262Y70220D01*
X71991Y73034D02*
X73628Y75080D01*
X66262Y75080D01*
X66262Y73034D02*
X66262Y77126D01*
D12*
X-135500Y140852D02*
X-135500Y147202D01*
D13*
X-144281Y139638D02*
X-151647Y139638D01*
X-144281Y139638D02*
X-144281Y141684D01*
X-144283Y141773D01*
X-144289Y141862D01*
X-144299Y141951D01*
X-144312Y142039D01*
X-144329Y142127D01*
X-144351Y142214D01*
X-144376Y142299D01*
X-144404Y142384D01*
X-144437Y142467D01*
X-144473Y142549D01*
X-144512Y142629D01*
X-144555Y142707D01*
X-144601Y142783D01*
X-144651Y142858D01*
X-144704Y142930D01*
X-144760Y142999D01*
X-144819Y143066D01*
X-144880Y143131D01*
X-144945Y143192D01*
X-145012Y143251D01*
X-145081Y143307D01*
X-145153Y143360D01*
X-145228Y143410D01*
X-145304Y143456D01*
X-145382Y143499D01*
X-145462Y143538D01*
X-145544Y143574D01*
X-145627Y143607D01*
X-145712Y143635D01*
X-145797Y143660D01*
X-145884Y143682D01*
X-145972Y143699D01*
X-146060Y143712D01*
X-146149Y143722D01*
X-146238Y143728D01*
X-146327Y143730D01*
X-146416Y143728D01*
X-146505Y143722D01*
X-146594Y143712D01*
X-146682Y143699D01*
X-146770Y143682D01*
X-146857Y143660D01*
X-146942Y143635D01*
X-147027Y143607D01*
X-147110Y143574D01*
X-147192Y143538D01*
X-147272Y143499D01*
X-147350Y143456D01*
X-147426Y143410D01*
X-147501Y143360D01*
X-147573Y143307D01*
X-147642Y143251D01*
X-147709Y143192D01*
X-147774Y143131D01*
X-147835Y143066D01*
X-147894Y142999D01*
X-147950Y142930D01*
X-148003Y142858D01*
X-148053Y142783D01*
X-148099Y142707D01*
X-148142Y142629D01*
X-148181Y142549D01*
X-148217Y142467D01*
X-148250Y142384D01*
X-148278Y142299D01*
X-148303Y142214D01*
X-148325Y142127D01*
X-148342Y142039D01*
X-148355Y141951D01*
X-148365Y141862D01*
X-148371Y141773D01*
X-148373Y141684D01*
X-148373Y139638D01*
X-148373Y142093D02*
X-151647Y143730D01*
X-151647Y146902D02*
X-151647Y148948D01*
X-151645Y149037D01*
X-151639Y149126D01*
X-151629Y149215D01*
X-151616Y149303D01*
X-151599Y149391D01*
X-151577Y149478D01*
X-151552Y149563D01*
X-151524Y149648D01*
X-151491Y149731D01*
X-151455Y149813D01*
X-151416Y149893D01*
X-151373Y149971D01*
X-151327Y150047D01*
X-151277Y150122D01*
X-151224Y150194D01*
X-151168Y150263D01*
X-151109Y150330D01*
X-151048Y150395D01*
X-150983Y150456D01*
X-150916Y150515D01*
X-150847Y150571D01*
X-150775Y150624D01*
X-150700Y150674D01*
X-150624Y150720D01*
X-150546Y150763D01*
X-150466Y150802D01*
X-150384Y150838D01*
X-150301Y150871D01*
X-150216Y150899D01*
X-150131Y150924D01*
X-150044Y150946D01*
X-149956Y150963D01*
X-149868Y150976D01*
X-149779Y150986D01*
X-149690Y150992D01*
X-149601Y150994D01*
X-149512Y150992D01*
X-149423Y150986D01*
X-149334Y150976D01*
X-149246Y150963D01*
X-149158Y150946D01*
X-149071Y150924D01*
X-148986Y150899D01*
X-148901Y150871D01*
X-148818Y150838D01*
X-148736Y150802D01*
X-148656Y150763D01*
X-148578Y150720D01*
X-148502Y150674D01*
X-148427Y150624D01*
X-148355Y150571D01*
X-148286Y150515D01*
X-148219Y150456D01*
X-148154Y150395D01*
X-148093Y150330D01*
X-148034Y150263D01*
X-147978Y150194D01*
X-147925Y150122D01*
X-147875Y150047D01*
X-147829Y149971D01*
X-147786Y149893D01*
X-147747Y149813D01*
X-147711Y149731D01*
X-147678Y149648D01*
X-147650Y149563D01*
X-147625Y149478D01*
X-147603Y149391D01*
X-147586Y149303D01*
X-147573Y149215D01*
X-147563Y149126D01*
X-147557Y149037D01*
X-147555Y148948D01*
X-144281Y149357D02*
X-144281Y146902D01*
X-144281Y149357D02*
X-144283Y149436D01*
X-144289Y149515D01*
X-144298Y149594D01*
X-144311Y149672D01*
X-144329Y149749D01*
X-144349Y149825D01*
X-144374Y149900D01*
X-144402Y149974D01*
X-144433Y150047D01*
X-144469Y150118D01*
X-144507Y150187D01*
X-144549Y150254D01*
X-144594Y150319D01*
X-144642Y150382D01*
X-144693Y150443D01*
X-144747Y150500D01*
X-144803Y150556D01*
X-144862Y150608D01*
X-144924Y150658D01*
X-144988Y150704D01*
X-145054Y150748D01*
X-145122Y150788D01*
X-145192Y150824D01*
X-145264Y150858D01*
X-145338Y150888D01*
X-145412Y150914D01*
X-145488Y150937D01*
X-145565Y150955D01*
X-145642Y150971D01*
X-145721Y150982D01*
X-145799Y150990D01*
X-145878Y150994D01*
X-145958Y150994D01*
X-146037Y150990D01*
X-146115Y150982D01*
X-146194Y150971D01*
X-146271Y150955D01*
X-146348Y150937D01*
X-146424Y150914D01*
X-146498Y150888D01*
X-146572Y150858D01*
X-146644Y150824D01*
X-146714Y150788D01*
X-146782Y150748D01*
X-146848Y150704D01*
X-146912Y150658D01*
X-146974Y150608D01*
X-147033Y150556D01*
X-147089Y150500D01*
X-147143Y150443D01*
X-147194Y150382D01*
X-147242Y150319D01*
X-147287Y150254D01*
X-147329Y150187D01*
X-147367Y150118D01*
X-147403Y150047D01*
X-147434Y149974D01*
X-147462Y149900D01*
X-147487Y149825D01*
X-147507Y149749D01*
X-147525Y149672D01*
X-147538Y149594D01*
X-147547Y149515D01*
X-147553Y149436D01*
X-147555Y149357D01*
X-147555Y147720D01*
D12*
X-63627Y49213D02*
X-57277Y49213D01*
D13*
X-54356Y57531D02*
X-54356Y64897D01*
X-56402Y64897D01*
X-56491Y64895D01*
X-56580Y64889D01*
X-56669Y64879D01*
X-56757Y64866D01*
X-56845Y64849D01*
X-56932Y64827D01*
X-57017Y64802D01*
X-57102Y64774D01*
X-57185Y64741D01*
X-57267Y64705D01*
X-57347Y64666D01*
X-57425Y64623D01*
X-57501Y64577D01*
X-57576Y64527D01*
X-57648Y64474D01*
X-57717Y64418D01*
X-57784Y64359D01*
X-57849Y64298D01*
X-57910Y64233D01*
X-57969Y64166D01*
X-58025Y64097D01*
X-58078Y64025D01*
X-58128Y63950D01*
X-58174Y63874D01*
X-58217Y63796D01*
X-58256Y63716D01*
X-58292Y63634D01*
X-58325Y63551D01*
X-58353Y63466D01*
X-58378Y63381D01*
X-58400Y63294D01*
X-58417Y63206D01*
X-58430Y63118D01*
X-58440Y63029D01*
X-58446Y62940D01*
X-58448Y62851D01*
X-58446Y62762D01*
X-58440Y62673D01*
X-58430Y62584D01*
X-58417Y62496D01*
X-58400Y62408D01*
X-58378Y62321D01*
X-58353Y62236D01*
X-58325Y62151D01*
X-58292Y62068D01*
X-58256Y61986D01*
X-58217Y61906D01*
X-58174Y61828D01*
X-58128Y61752D01*
X-58078Y61677D01*
X-58025Y61605D01*
X-57969Y61536D01*
X-57910Y61469D01*
X-57849Y61404D01*
X-57784Y61343D01*
X-57717Y61284D01*
X-57648Y61228D01*
X-57576Y61175D01*
X-57501Y61125D01*
X-57425Y61079D01*
X-57347Y61036D01*
X-57267Y60997D01*
X-57185Y60961D01*
X-57102Y60928D01*
X-57017Y60900D01*
X-56932Y60875D01*
X-56845Y60853D01*
X-56757Y60836D01*
X-56669Y60823D01*
X-56580Y60813D01*
X-56491Y60807D01*
X-56402Y60805D01*
X-54356Y60805D01*
X-56811Y60805D02*
X-58448Y57531D01*
X-65713Y63056D02*
X-65711Y63141D01*
X-65705Y63226D01*
X-65695Y63310D01*
X-65682Y63394D01*
X-65664Y63478D01*
X-65643Y63560D01*
X-65618Y63641D01*
X-65589Y63721D01*
X-65556Y63800D01*
X-65520Y63877D01*
X-65480Y63952D01*
X-65437Y64026D01*
X-65391Y64097D01*
X-65341Y64166D01*
X-65288Y64233D01*
X-65232Y64297D01*
X-65173Y64358D01*
X-65112Y64417D01*
X-65048Y64473D01*
X-64981Y64526D01*
X-64912Y64576D01*
X-64841Y64622D01*
X-64767Y64665D01*
X-64692Y64705D01*
X-64615Y64741D01*
X-64536Y64774D01*
X-64456Y64803D01*
X-64375Y64828D01*
X-64293Y64849D01*
X-64209Y64867D01*
X-64125Y64880D01*
X-64041Y64890D01*
X-63956Y64896D01*
X-63871Y64898D01*
X-63871Y64897D02*
X-63775Y64895D01*
X-63679Y64889D01*
X-63584Y64879D01*
X-63489Y64866D01*
X-63394Y64848D01*
X-63301Y64827D01*
X-63208Y64802D01*
X-63117Y64773D01*
X-63026Y64741D01*
X-62937Y64705D01*
X-62850Y64665D01*
X-62764Y64622D01*
X-62680Y64576D01*
X-62598Y64526D01*
X-62518Y64472D01*
X-62441Y64416D01*
X-62366Y64356D01*
X-62293Y64294D01*
X-62223Y64228D01*
X-62155Y64160D01*
X-62090Y64089D01*
X-62029Y64016D01*
X-61970Y63940D01*
X-61914Y63861D01*
X-61862Y63781D01*
X-61813Y63698D01*
X-61767Y63614D01*
X-61725Y63528D01*
X-61687Y63440D01*
X-61652Y63351D01*
X-61620Y63260D01*
X-65098Y61624D02*
X-65158Y61683D01*
X-65215Y61745D01*
X-65270Y61809D01*
X-65321Y61876D01*
X-65370Y61945D01*
X-65416Y62015D01*
X-65459Y62088D01*
X-65499Y62162D01*
X-65535Y62238D01*
X-65568Y62316D01*
X-65598Y62395D01*
X-65625Y62475D01*
X-65648Y62556D01*
X-65667Y62638D01*
X-65683Y62720D01*
X-65696Y62804D01*
X-65705Y62888D01*
X-65710Y62972D01*
X-65712Y63056D01*
X-65098Y61623D02*
X-61620Y57531D01*
X-65712Y57531D01*
D12*
X81090Y149225D02*
X87440Y149225D01*
D13*
X66294Y152210D02*
X66294Y144844D01*
X66294Y152210D02*
X64248Y152210D01*
X64248Y152209D02*
X64159Y152207D01*
X64070Y152201D01*
X63981Y152191D01*
X63893Y152178D01*
X63805Y152161D01*
X63718Y152139D01*
X63633Y152114D01*
X63548Y152086D01*
X63465Y152053D01*
X63383Y152017D01*
X63303Y151978D01*
X63225Y151935D01*
X63149Y151889D01*
X63074Y151839D01*
X63002Y151786D01*
X62933Y151730D01*
X62866Y151671D01*
X62801Y151610D01*
X62740Y151545D01*
X62681Y151478D01*
X62625Y151409D01*
X62572Y151337D01*
X62522Y151262D01*
X62476Y151186D01*
X62433Y151108D01*
X62394Y151028D01*
X62358Y150946D01*
X62325Y150863D01*
X62297Y150778D01*
X62272Y150693D01*
X62250Y150606D01*
X62233Y150518D01*
X62220Y150430D01*
X62210Y150341D01*
X62204Y150252D01*
X62202Y150163D01*
X62204Y150074D01*
X62210Y149985D01*
X62220Y149896D01*
X62233Y149808D01*
X62250Y149720D01*
X62272Y149633D01*
X62297Y149548D01*
X62325Y149463D01*
X62358Y149380D01*
X62394Y149298D01*
X62433Y149218D01*
X62476Y149140D01*
X62522Y149064D01*
X62572Y148989D01*
X62625Y148917D01*
X62681Y148848D01*
X62740Y148781D01*
X62801Y148716D01*
X62866Y148655D01*
X62933Y148596D01*
X63002Y148540D01*
X63074Y148487D01*
X63149Y148437D01*
X63225Y148391D01*
X63303Y148348D01*
X63383Y148309D01*
X63465Y148273D01*
X63548Y148240D01*
X63633Y148212D01*
X63718Y148187D01*
X63805Y148165D01*
X63893Y148148D01*
X63981Y148135D01*
X64070Y148125D01*
X64159Y148119D01*
X64248Y148117D01*
X66294Y148117D01*
X63839Y148117D02*
X62202Y144844D01*
X59030Y150573D02*
X56984Y152210D01*
X56984Y144844D01*
X59030Y144844D02*
X54938Y144844D01*
D12*
X55436Y98425D02*
X62040Y98425D01*
D13*
X86833Y93250D02*
X88470Y93250D01*
X88548Y93252D01*
X88626Y93257D01*
X88703Y93267D01*
X88780Y93280D01*
X88856Y93296D01*
X88931Y93316D01*
X89005Y93340D01*
X89078Y93367D01*
X89150Y93398D01*
X89220Y93432D01*
X89289Y93469D01*
X89355Y93510D01*
X89420Y93554D01*
X89482Y93600D01*
X89542Y93650D01*
X89600Y93702D01*
X89655Y93757D01*
X89707Y93815D01*
X89757Y93875D01*
X89803Y93937D01*
X89847Y94002D01*
X89888Y94069D01*
X89925Y94137D01*
X89959Y94207D01*
X89990Y94279D01*
X90017Y94352D01*
X90041Y94426D01*
X90061Y94501D01*
X90077Y94577D01*
X90090Y94654D01*
X90100Y94731D01*
X90105Y94809D01*
X90107Y94887D01*
X90107Y98979D01*
X90105Y99057D01*
X90100Y99135D01*
X90090Y99212D01*
X90077Y99289D01*
X90061Y99365D01*
X90041Y99440D01*
X90017Y99514D01*
X89990Y99587D01*
X89959Y99659D01*
X89925Y99729D01*
X89888Y99798D01*
X89847Y99864D01*
X89803Y99929D01*
X89757Y99991D01*
X89707Y100051D01*
X89655Y100109D01*
X89600Y100164D01*
X89542Y100216D01*
X89482Y100266D01*
X89420Y100312D01*
X89355Y100356D01*
X89289Y100397D01*
X89220Y100434D01*
X89150Y100468D01*
X89078Y100499D01*
X89005Y100526D01*
X88931Y100550D01*
X88856Y100570D01*
X88780Y100586D01*
X88703Y100599D01*
X88626Y100609D01*
X88548Y100614D01*
X88470Y100616D01*
X86833Y100616D01*
X81737Y100616D02*
X81652Y100614D01*
X81567Y100608D01*
X81483Y100598D01*
X81399Y100585D01*
X81315Y100567D01*
X81233Y100546D01*
X81152Y100521D01*
X81072Y100492D01*
X80993Y100459D01*
X80916Y100423D01*
X80841Y100383D01*
X80767Y100340D01*
X80696Y100294D01*
X80627Y100244D01*
X80560Y100191D01*
X80496Y100135D01*
X80435Y100076D01*
X80376Y100015D01*
X80320Y99951D01*
X80267Y99884D01*
X80217Y99815D01*
X80171Y99744D01*
X80128Y99670D01*
X80088Y99595D01*
X80052Y99518D01*
X80019Y99439D01*
X79990Y99359D01*
X79965Y99278D01*
X79944Y99196D01*
X79926Y99112D01*
X79913Y99028D01*
X79903Y98944D01*
X79897Y98859D01*
X79895Y98774D01*
X81737Y100616D02*
X81833Y100614D01*
X81929Y100608D01*
X82024Y100598D01*
X82119Y100585D01*
X82214Y100567D01*
X82307Y100546D01*
X82400Y100521D01*
X82491Y100492D01*
X82582Y100460D01*
X82671Y100424D01*
X82758Y100384D01*
X82844Y100341D01*
X82928Y100295D01*
X83010Y100245D01*
X83090Y100191D01*
X83167Y100135D01*
X83242Y100075D01*
X83315Y100013D01*
X83385Y99947D01*
X83453Y99879D01*
X83518Y99808D01*
X83579Y99735D01*
X83638Y99659D01*
X83694Y99580D01*
X83746Y99500D01*
X83795Y99417D01*
X83841Y99333D01*
X83883Y99247D01*
X83921Y99159D01*
X83956Y99070D01*
X83988Y98979D01*
X80509Y97342D02*
X80449Y97401D01*
X80392Y97463D01*
X80337Y97527D01*
X80286Y97594D01*
X80237Y97663D01*
X80191Y97733D01*
X80148Y97806D01*
X80108Y97880D01*
X80072Y97956D01*
X80039Y98034D01*
X80009Y98113D01*
X79982Y98193D01*
X79959Y98274D01*
X79940Y98356D01*
X79924Y98438D01*
X79911Y98522D01*
X79902Y98606D01*
X79897Y98690D01*
X79895Y98774D01*
X80509Y97342D02*
X83987Y93250D01*
X79895Y93250D01*
D12*
X62040Y107950D02*
X55436Y107950D01*
D13*
X86833Y103569D02*
X88470Y103569D01*
X88470Y103568D02*
X88548Y103570D01*
X88626Y103575D01*
X88703Y103585D01*
X88780Y103598D01*
X88856Y103614D01*
X88931Y103634D01*
X89005Y103658D01*
X89078Y103685D01*
X89150Y103716D01*
X89220Y103750D01*
X89289Y103787D01*
X89355Y103828D01*
X89420Y103872D01*
X89482Y103918D01*
X89542Y103968D01*
X89600Y104020D01*
X89655Y104075D01*
X89707Y104133D01*
X89757Y104193D01*
X89803Y104255D01*
X89847Y104320D01*
X89888Y104387D01*
X89925Y104455D01*
X89959Y104525D01*
X89990Y104597D01*
X90017Y104670D01*
X90041Y104744D01*
X90061Y104819D01*
X90077Y104895D01*
X90090Y104972D01*
X90100Y105049D01*
X90105Y105127D01*
X90107Y105205D01*
X90107Y109298D01*
X90105Y109376D01*
X90100Y109454D01*
X90090Y109531D01*
X90077Y109608D01*
X90061Y109684D01*
X90041Y109759D01*
X90017Y109833D01*
X89990Y109906D01*
X89959Y109978D01*
X89925Y110048D01*
X89888Y110117D01*
X89847Y110183D01*
X89803Y110248D01*
X89757Y110310D01*
X89707Y110370D01*
X89655Y110428D01*
X89600Y110483D01*
X89542Y110535D01*
X89482Y110585D01*
X89420Y110631D01*
X89355Y110675D01*
X89289Y110716D01*
X89220Y110753D01*
X89150Y110787D01*
X89078Y110818D01*
X89005Y110845D01*
X88931Y110869D01*
X88856Y110889D01*
X88780Y110905D01*
X88703Y110918D01*
X88626Y110928D01*
X88548Y110933D01*
X88470Y110935D01*
X86833Y110935D01*
X82351Y110935D02*
X83987Y105205D01*
X79895Y105205D01*
X81123Y103569D02*
X81123Y106842D01*
D12*
X-71438Y85852D02*
X-71438Y79248D01*
D13*
X-63913Y79061D02*
X-63913Y77424D01*
X-63911Y77346D01*
X-63906Y77268D01*
X-63896Y77191D01*
X-63883Y77114D01*
X-63867Y77038D01*
X-63847Y76963D01*
X-63823Y76889D01*
X-63796Y76816D01*
X-63765Y76744D01*
X-63731Y76674D01*
X-63694Y76606D01*
X-63653Y76539D01*
X-63609Y76474D01*
X-63563Y76412D01*
X-63513Y76352D01*
X-63461Y76294D01*
X-63406Y76239D01*
X-63348Y76187D01*
X-63288Y76137D01*
X-63226Y76091D01*
X-63161Y76047D01*
X-63095Y76006D01*
X-63026Y75969D01*
X-62956Y75935D01*
X-62884Y75904D01*
X-62811Y75877D01*
X-62737Y75853D01*
X-62662Y75833D01*
X-62586Y75817D01*
X-62509Y75804D01*
X-62432Y75794D01*
X-62354Y75789D01*
X-62276Y75787D01*
X-58184Y75787D01*
X-58104Y75789D01*
X-58024Y75795D01*
X-57944Y75805D01*
X-57865Y75818D01*
X-57786Y75836D01*
X-57709Y75857D01*
X-57633Y75883D01*
X-57558Y75912D01*
X-57484Y75944D01*
X-57412Y75980D01*
X-57342Y76020D01*
X-57275Y76063D01*
X-57209Y76109D01*
X-57146Y76159D01*
X-57085Y76211D01*
X-57026Y76266D01*
X-56971Y76325D01*
X-56919Y76385D01*
X-56869Y76449D01*
X-56823Y76514D01*
X-56780Y76582D01*
X-56740Y76652D01*
X-56704Y76724D01*
X-56672Y76798D01*
X-56643Y76872D01*
X-56618Y76949D01*
X-56596Y77026D01*
X-56578Y77105D01*
X-56565Y77184D01*
X-56555Y77263D01*
X-56549Y77344D01*
X-56547Y77424D01*
X-56547Y79061D01*
X-59821Y81906D02*
X-59821Y84362D01*
X-59820Y84362D02*
X-59822Y84440D01*
X-59827Y84518D01*
X-59837Y84595D01*
X-59850Y84672D01*
X-59866Y84748D01*
X-59886Y84823D01*
X-59910Y84897D01*
X-59937Y84970D01*
X-59968Y85042D01*
X-60002Y85112D01*
X-60039Y85181D01*
X-60080Y85247D01*
X-60124Y85312D01*
X-60170Y85374D01*
X-60220Y85434D01*
X-60272Y85492D01*
X-60327Y85547D01*
X-60385Y85599D01*
X-60445Y85649D01*
X-60507Y85695D01*
X-60572Y85739D01*
X-60639Y85780D01*
X-60707Y85817D01*
X-60777Y85851D01*
X-60849Y85882D01*
X-60922Y85909D01*
X-60996Y85933D01*
X-61071Y85953D01*
X-61147Y85969D01*
X-61224Y85982D01*
X-61301Y85992D01*
X-61379Y85997D01*
X-61457Y85999D01*
X-61867Y85999D01*
X-61867Y85998D02*
X-61956Y85996D01*
X-62045Y85990D01*
X-62134Y85980D01*
X-62222Y85967D01*
X-62310Y85950D01*
X-62397Y85928D01*
X-62482Y85903D01*
X-62567Y85875D01*
X-62650Y85842D01*
X-62732Y85806D01*
X-62812Y85767D01*
X-62890Y85724D01*
X-62966Y85678D01*
X-63041Y85628D01*
X-63113Y85575D01*
X-63182Y85519D01*
X-63249Y85460D01*
X-63314Y85399D01*
X-63375Y85334D01*
X-63434Y85267D01*
X-63490Y85198D01*
X-63543Y85126D01*
X-63593Y85051D01*
X-63639Y84975D01*
X-63682Y84897D01*
X-63721Y84817D01*
X-63757Y84735D01*
X-63790Y84652D01*
X-63818Y84567D01*
X-63843Y84482D01*
X-63865Y84395D01*
X-63882Y84307D01*
X-63895Y84219D01*
X-63905Y84130D01*
X-63911Y84041D01*
X-63913Y83952D01*
X-63911Y83863D01*
X-63905Y83774D01*
X-63895Y83685D01*
X-63882Y83597D01*
X-63865Y83509D01*
X-63843Y83422D01*
X-63818Y83337D01*
X-63790Y83252D01*
X-63757Y83169D01*
X-63721Y83087D01*
X-63682Y83007D01*
X-63639Y82929D01*
X-63593Y82853D01*
X-63543Y82778D01*
X-63490Y82706D01*
X-63434Y82637D01*
X-63375Y82570D01*
X-63314Y82505D01*
X-63249Y82444D01*
X-63182Y82385D01*
X-63113Y82329D01*
X-63041Y82276D01*
X-62966Y82226D01*
X-62890Y82180D01*
X-62812Y82137D01*
X-62732Y82098D01*
X-62650Y82062D01*
X-62567Y82029D01*
X-62482Y82001D01*
X-62397Y81976D01*
X-62310Y81954D01*
X-62222Y81937D01*
X-62134Y81924D01*
X-62045Y81914D01*
X-61956Y81908D01*
X-61867Y81906D01*
X-59821Y81906D01*
X-59707Y81908D01*
X-59593Y81914D01*
X-59479Y81924D01*
X-59365Y81938D01*
X-59252Y81956D01*
X-59140Y81978D01*
X-59029Y82003D01*
X-58919Y82033D01*
X-58809Y82066D01*
X-58701Y82103D01*
X-58595Y82144D01*
X-58489Y82189D01*
X-58386Y82237D01*
X-58284Y82289D01*
X-58184Y82345D01*
X-58086Y82403D01*
X-57990Y82466D01*
X-57897Y82531D01*
X-57805Y82600D01*
X-57717Y82672D01*
X-57630Y82747D01*
X-57547Y82825D01*
X-57466Y82906D01*
X-57388Y82989D01*
X-57313Y83075D01*
X-57241Y83164D01*
X-57172Y83256D01*
X-57107Y83349D01*
X-57045Y83445D01*
X-56986Y83543D01*
X-56930Y83643D01*
X-56878Y83745D01*
X-56830Y83848D01*
X-56785Y83953D01*
X-56744Y84060D01*
X-56707Y84168D01*
X-56674Y84278D01*
X-56644Y84388D01*
X-56619Y84499D01*
X-56597Y84611D01*
X-56579Y84724D01*
X-56565Y84838D01*
X-56555Y84952D01*
X-56549Y85066D01*
X-56547Y85180D01*
D10*
X38583Y109106D02*
X38583Y129235D01*
D12*
X55436Y119063D02*
X62040Y119063D01*
D13*
X87627Y117062D02*
X89263Y117062D01*
X89341Y117064D01*
X89419Y117069D01*
X89496Y117079D01*
X89573Y117092D01*
X89649Y117108D01*
X89724Y117128D01*
X89798Y117152D01*
X89871Y117179D01*
X89943Y117210D01*
X90013Y117244D01*
X90082Y117281D01*
X90148Y117322D01*
X90213Y117366D01*
X90275Y117412D01*
X90335Y117462D01*
X90393Y117514D01*
X90448Y117569D01*
X90500Y117627D01*
X90550Y117687D01*
X90596Y117749D01*
X90640Y117814D01*
X90681Y117881D01*
X90718Y117949D01*
X90752Y118019D01*
X90783Y118091D01*
X90810Y118164D01*
X90834Y118238D01*
X90854Y118313D01*
X90870Y118389D01*
X90883Y118466D01*
X90893Y118543D01*
X90898Y118621D01*
X90900Y118699D01*
X90900Y122791D01*
X90898Y122869D01*
X90893Y122947D01*
X90883Y123024D01*
X90870Y123101D01*
X90854Y123177D01*
X90834Y123252D01*
X90810Y123326D01*
X90783Y123399D01*
X90752Y123471D01*
X90718Y123541D01*
X90681Y123610D01*
X90640Y123676D01*
X90596Y123741D01*
X90550Y123803D01*
X90500Y123863D01*
X90448Y123921D01*
X90393Y123976D01*
X90335Y124028D01*
X90275Y124078D01*
X90213Y124124D01*
X90148Y124168D01*
X90082Y124209D01*
X90013Y124246D01*
X89943Y124280D01*
X89871Y124311D01*
X89798Y124338D01*
X89724Y124362D01*
X89649Y124382D01*
X89573Y124398D01*
X89496Y124411D01*
X89419Y124421D01*
X89341Y124426D01*
X89263Y124428D01*
X87627Y124428D01*
X84781Y117062D02*
X82735Y117062D01*
X82646Y117064D01*
X82557Y117070D01*
X82468Y117080D01*
X82380Y117093D01*
X82292Y117110D01*
X82205Y117132D01*
X82120Y117157D01*
X82035Y117185D01*
X81952Y117218D01*
X81870Y117254D01*
X81790Y117293D01*
X81712Y117336D01*
X81636Y117382D01*
X81561Y117432D01*
X81489Y117485D01*
X81420Y117541D01*
X81353Y117600D01*
X81288Y117661D01*
X81227Y117726D01*
X81168Y117793D01*
X81112Y117862D01*
X81059Y117934D01*
X81009Y118009D01*
X80963Y118085D01*
X80920Y118163D01*
X80881Y118243D01*
X80845Y118325D01*
X80812Y118408D01*
X80784Y118493D01*
X80759Y118578D01*
X80737Y118665D01*
X80720Y118753D01*
X80707Y118841D01*
X80697Y118930D01*
X80691Y119019D01*
X80689Y119108D01*
X80691Y119197D01*
X80697Y119286D01*
X80707Y119375D01*
X80720Y119463D01*
X80737Y119551D01*
X80759Y119638D01*
X80784Y119723D01*
X80812Y119808D01*
X80845Y119891D01*
X80881Y119973D01*
X80920Y120053D01*
X80963Y120131D01*
X81009Y120207D01*
X81059Y120282D01*
X81112Y120354D01*
X81168Y120423D01*
X81227Y120490D01*
X81288Y120555D01*
X81353Y120616D01*
X81420Y120675D01*
X81489Y120731D01*
X81561Y120784D01*
X81636Y120834D01*
X81712Y120880D01*
X81790Y120923D01*
X81870Y120962D01*
X81952Y120998D01*
X82035Y121031D01*
X82120Y121059D01*
X82205Y121084D01*
X82292Y121106D01*
X82380Y121123D01*
X82468Y121136D01*
X82557Y121146D01*
X82646Y121152D01*
X82735Y121154D01*
X82326Y124428D02*
X84781Y124428D01*
X82326Y124428D02*
X82247Y124426D01*
X82168Y124420D01*
X82089Y124411D01*
X82011Y124398D01*
X81934Y124380D01*
X81858Y124360D01*
X81783Y124335D01*
X81709Y124307D01*
X81636Y124276D01*
X81565Y124240D01*
X81496Y124202D01*
X81429Y124160D01*
X81364Y124115D01*
X81301Y124067D01*
X81240Y124016D01*
X81183Y123962D01*
X81127Y123906D01*
X81075Y123847D01*
X81025Y123785D01*
X80979Y123721D01*
X80935Y123655D01*
X80895Y123587D01*
X80859Y123517D01*
X80825Y123445D01*
X80795Y123371D01*
X80769Y123297D01*
X80746Y123221D01*
X80728Y123144D01*
X80712Y123067D01*
X80701Y122988D01*
X80693Y122910D01*
X80689Y122831D01*
X80689Y122751D01*
X80693Y122672D01*
X80701Y122594D01*
X80712Y122515D01*
X80728Y122438D01*
X80746Y122361D01*
X80769Y122285D01*
X80795Y122211D01*
X80825Y122137D01*
X80859Y122065D01*
X80895Y121995D01*
X80935Y121927D01*
X80979Y121861D01*
X81025Y121797D01*
X81075Y121735D01*
X81127Y121676D01*
X81183Y121620D01*
X81240Y121566D01*
X81301Y121515D01*
X81364Y121467D01*
X81429Y121422D01*
X81496Y121380D01*
X81565Y121342D01*
X81636Y121306D01*
X81709Y121275D01*
X81783Y121247D01*
X81858Y121222D01*
X81934Y121202D01*
X82011Y121184D01*
X82089Y121171D01*
X82168Y121162D01*
X82247Y121156D01*
X82326Y121154D01*
X83963Y121154D01*
D10*
X38583Y123393D02*
X38583Y143523D01*
D12*
X55436Y133350D02*
X62040Y133350D01*
D13*
X87627Y130556D02*
X89263Y130556D01*
X89341Y130558D01*
X89419Y130563D01*
X89496Y130573D01*
X89573Y130586D01*
X89649Y130602D01*
X89724Y130622D01*
X89798Y130646D01*
X89871Y130673D01*
X89943Y130704D01*
X90013Y130738D01*
X90082Y130775D01*
X90148Y130816D01*
X90213Y130860D01*
X90275Y130906D01*
X90335Y130956D01*
X90393Y131008D01*
X90448Y131063D01*
X90500Y131121D01*
X90550Y131181D01*
X90596Y131243D01*
X90640Y131308D01*
X90681Y131375D01*
X90718Y131443D01*
X90752Y131513D01*
X90783Y131585D01*
X90810Y131658D01*
X90834Y131732D01*
X90854Y131807D01*
X90870Y131883D01*
X90883Y131960D01*
X90893Y132037D01*
X90898Y132115D01*
X90900Y132193D01*
X90900Y136285D01*
X90898Y136363D01*
X90893Y136441D01*
X90883Y136518D01*
X90870Y136595D01*
X90854Y136671D01*
X90834Y136746D01*
X90810Y136820D01*
X90783Y136893D01*
X90752Y136965D01*
X90718Y137035D01*
X90681Y137104D01*
X90640Y137170D01*
X90596Y137235D01*
X90550Y137297D01*
X90500Y137357D01*
X90448Y137415D01*
X90393Y137470D01*
X90335Y137522D01*
X90275Y137572D01*
X90213Y137618D01*
X90148Y137662D01*
X90082Y137703D01*
X90013Y137740D01*
X89943Y137774D01*
X89871Y137805D01*
X89798Y137832D01*
X89724Y137856D01*
X89649Y137876D01*
X89573Y137892D01*
X89496Y137905D01*
X89419Y137915D01*
X89341Y137920D01*
X89263Y137922D01*
X87627Y137922D01*
X84781Y130556D02*
X82326Y130556D01*
X82246Y130558D01*
X82166Y130564D01*
X82086Y130574D01*
X82007Y130587D01*
X81928Y130605D01*
X81851Y130626D01*
X81775Y130652D01*
X81700Y130681D01*
X81626Y130713D01*
X81554Y130749D01*
X81484Y130789D01*
X81417Y130832D01*
X81351Y130878D01*
X81288Y130928D01*
X81227Y130980D01*
X81168Y131035D01*
X81113Y131094D01*
X81061Y131154D01*
X81011Y131218D01*
X80965Y131283D01*
X80922Y131351D01*
X80882Y131421D01*
X80846Y131493D01*
X80814Y131567D01*
X80785Y131641D01*
X80760Y131718D01*
X80738Y131795D01*
X80720Y131874D01*
X80707Y131953D01*
X80697Y132032D01*
X80691Y132113D01*
X80689Y132193D01*
X80689Y133011D01*
X80691Y133089D01*
X80696Y133167D01*
X80706Y133244D01*
X80719Y133321D01*
X80735Y133397D01*
X80755Y133472D01*
X80779Y133546D01*
X80806Y133619D01*
X80837Y133691D01*
X80871Y133761D01*
X80908Y133830D01*
X80949Y133896D01*
X80993Y133961D01*
X81039Y134023D01*
X81089Y134083D01*
X81141Y134141D01*
X81196Y134196D01*
X81254Y134248D01*
X81314Y134298D01*
X81376Y134344D01*
X81441Y134388D01*
X81508Y134429D01*
X81576Y134466D01*
X81646Y134500D01*
X81718Y134531D01*
X81791Y134558D01*
X81865Y134582D01*
X81940Y134602D01*
X82016Y134618D01*
X82093Y134631D01*
X82170Y134641D01*
X82248Y134646D01*
X82326Y134648D01*
X84781Y134648D01*
X84781Y137922D01*
X80689Y137922D01*
D10*
X-73965Y102705D02*
X-94094Y102705D01*
D12*
X-84138Y85852D02*
X-84138Y79248D01*
D13*
X-103600Y79805D02*
X-103600Y81442D01*
X-103600Y79805D02*
X-103598Y79727D01*
X-103593Y79649D01*
X-103583Y79572D01*
X-103570Y79495D01*
X-103554Y79419D01*
X-103534Y79344D01*
X-103510Y79270D01*
X-103483Y79197D01*
X-103452Y79125D01*
X-103418Y79055D01*
X-103381Y78987D01*
X-103340Y78920D01*
X-103296Y78855D01*
X-103250Y78793D01*
X-103200Y78733D01*
X-103148Y78675D01*
X-103093Y78620D01*
X-103035Y78568D01*
X-102975Y78518D01*
X-102913Y78472D01*
X-102848Y78428D01*
X-102782Y78387D01*
X-102713Y78350D01*
X-102643Y78316D01*
X-102571Y78285D01*
X-102498Y78258D01*
X-102424Y78234D01*
X-102349Y78214D01*
X-102273Y78198D01*
X-102196Y78185D01*
X-102119Y78175D01*
X-102041Y78170D01*
X-101963Y78168D01*
X-101963Y78169D02*
X-97871Y78169D01*
X-97871Y78168D02*
X-97791Y78170D01*
X-97711Y78176D01*
X-97631Y78186D01*
X-97552Y78199D01*
X-97473Y78217D01*
X-97396Y78238D01*
X-97320Y78264D01*
X-97245Y78293D01*
X-97171Y78325D01*
X-97099Y78361D01*
X-97029Y78401D01*
X-96962Y78444D01*
X-96896Y78490D01*
X-96833Y78540D01*
X-96772Y78592D01*
X-96713Y78647D01*
X-96658Y78706D01*
X-96606Y78766D01*
X-96556Y78830D01*
X-96510Y78895D01*
X-96467Y78963D01*
X-96427Y79033D01*
X-96391Y79105D01*
X-96359Y79179D01*
X-96330Y79253D01*
X-96305Y79330D01*
X-96283Y79407D01*
X-96265Y79486D01*
X-96252Y79565D01*
X-96242Y79644D01*
X-96236Y79725D01*
X-96234Y79805D01*
X-96234Y81442D01*
X-96234Y84288D02*
X-97053Y84288D01*
X-96234Y84288D02*
X-96234Y88380D01*
X-103600Y86334D01*
D10*
X27088Y45720D02*
X32068Y45720D01*
X-41593Y45720D02*
X-41593Y50700D01*
X-41593Y119380D02*
X-36613Y119380D01*
X32068Y119380D02*
X32068Y114400D01*
X32068Y50700D02*
X32068Y45720D01*
X-36613Y45720D02*
X-41593Y45720D01*
X-41593Y114400D02*
X-41593Y119380D01*
X27088Y119380D02*
X32068Y119380D01*
D14*
X25916Y127508D02*
X25918Y127604D01*
X25924Y127700D01*
X25934Y127796D01*
X25948Y127891D01*
X25965Y127986D01*
X25987Y128079D01*
X26012Y128172D01*
X26041Y128264D01*
X26074Y128354D01*
X26111Y128443D01*
X26151Y128530D01*
X26195Y128616D01*
X26242Y128700D01*
X26293Y128782D01*
X26346Y128861D01*
X26404Y128938D01*
X26464Y129013D01*
X26527Y129086D01*
X26593Y129156D01*
X26663Y129222D01*
X26734Y129287D01*
X26809Y129348D01*
X26885Y129406D01*
X26964Y129460D01*
X27046Y129512D01*
X27129Y129560D01*
X27214Y129604D01*
X27301Y129646D01*
X27390Y129683D01*
X27480Y129717D01*
X27571Y129747D01*
X27663Y129773D01*
X27757Y129796D01*
X27851Y129814D01*
X27946Y129829D01*
X28042Y129840D01*
X28138Y129847D01*
X28234Y129850D01*
X28330Y129849D01*
X28426Y129844D01*
X28522Y129835D01*
X28617Y129822D01*
X28712Y129806D01*
X28806Y129785D01*
X28899Y129761D01*
X28991Y129732D01*
X29082Y129700D01*
X29171Y129665D01*
X29259Y129625D01*
X29345Y129583D01*
X29429Y129536D01*
X29511Y129486D01*
X29591Y129433D01*
X29669Y129377D01*
X29745Y129317D01*
X29818Y129255D01*
X29888Y129189D01*
X29956Y129121D01*
X30021Y129050D01*
X30083Y128976D01*
X30141Y128900D01*
X30197Y128822D01*
X30249Y128741D01*
X30298Y128658D01*
X30344Y128573D01*
X30386Y128487D01*
X30424Y128399D01*
X30459Y128309D01*
X30490Y128218D01*
X30517Y128126D01*
X30541Y128032D01*
X30560Y127938D01*
X30576Y127843D01*
X30588Y127748D01*
X30596Y127652D01*
X30600Y127556D01*
X30600Y127460D01*
X30596Y127364D01*
X30588Y127268D01*
X30576Y127173D01*
X30560Y127078D01*
X30541Y126984D01*
X30517Y126890D01*
X30490Y126798D01*
X30459Y126707D01*
X30424Y126617D01*
X30386Y126529D01*
X30344Y126443D01*
X30298Y126358D01*
X30249Y126275D01*
X30197Y126194D01*
X30141Y126116D01*
X30083Y126040D01*
X30021Y125966D01*
X29956Y125895D01*
X29888Y125827D01*
X29818Y125761D01*
X29745Y125699D01*
X29669Y125639D01*
X29591Y125583D01*
X29511Y125530D01*
X29429Y125480D01*
X29345Y125433D01*
X29259Y125391D01*
X29171Y125351D01*
X29082Y125316D01*
X28991Y125284D01*
X28899Y125255D01*
X28806Y125231D01*
X28712Y125210D01*
X28617Y125194D01*
X28522Y125181D01*
X28426Y125172D01*
X28330Y125167D01*
X28234Y125166D01*
X28138Y125169D01*
X28042Y125176D01*
X27946Y125187D01*
X27851Y125202D01*
X27757Y125220D01*
X27663Y125243D01*
X27571Y125269D01*
X27480Y125299D01*
X27390Y125333D01*
X27301Y125370D01*
X27214Y125412D01*
X27129Y125456D01*
X27046Y125504D01*
X26964Y125556D01*
X26885Y125610D01*
X26809Y125668D01*
X26734Y125729D01*
X26663Y125794D01*
X26593Y125860D01*
X26527Y125930D01*
X26464Y126003D01*
X26404Y126078D01*
X26346Y126155D01*
X26293Y126234D01*
X26242Y126316D01*
X26195Y126400D01*
X26151Y126486D01*
X26111Y126573D01*
X26074Y126662D01*
X26041Y126752D01*
X26012Y126844D01*
X25987Y126937D01*
X25965Y127030D01*
X25948Y127125D01*
X25934Y127220D01*
X25924Y127316D01*
X25918Y127412D01*
X25916Y127508D01*
D15*
X32331Y41021D02*
X32331Y35518D01*
X32329Y35427D01*
X32323Y35336D01*
X32313Y35245D01*
X32300Y35155D01*
X32282Y35066D01*
X32261Y34977D01*
X32236Y34890D01*
X32207Y34803D01*
X32174Y34718D01*
X32138Y34635D01*
X32098Y34553D01*
X32055Y34473D01*
X32008Y34394D01*
X31958Y34318D01*
X31905Y34244D01*
X31849Y34173D01*
X31789Y34104D01*
X31727Y34037D01*
X31662Y33974D01*
X31594Y33913D01*
X31524Y33855D01*
X31451Y33800D01*
X31376Y33748D01*
X31299Y33700D01*
X31219Y33655D01*
X31138Y33613D01*
X31056Y33575D01*
X30971Y33541D01*
X30885Y33510D01*
X30798Y33483D01*
X30710Y33460D01*
X30621Y33441D01*
X30532Y33425D01*
X30441Y33413D01*
X30351Y33405D01*
X30260Y33401D01*
X30168Y33401D01*
X30077Y33405D01*
X29987Y33413D01*
X29896Y33425D01*
X29807Y33441D01*
X29718Y33460D01*
X29630Y33483D01*
X29543Y33510D01*
X29457Y33541D01*
X29372Y33575D01*
X29290Y33613D01*
X29209Y33655D01*
X29129Y33700D01*
X29052Y33748D01*
X28977Y33800D01*
X28904Y33855D01*
X28834Y33913D01*
X28766Y33974D01*
X28701Y34037D01*
X28639Y34104D01*
X28579Y34173D01*
X28523Y34244D01*
X28470Y34318D01*
X28420Y34394D01*
X28373Y34473D01*
X28330Y34553D01*
X28290Y34635D01*
X28254Y34718D01*
X28221Y34803D01*
X28192Y34890D01*
X28167Y34977D01*
X28146Y35066D01*
X28128Y35155D01*
X28115Y35245D01*
X28105Y35336D01*
X28099Y35427D01*
X28097Y35518D01*
X28098Y35518D02*
X28098Y41021D01*
X24772Y39328D02*
X22655Y41021D01*
X22655Y33401D01*
X20539Y33401D02*
X24772Y33401D01*
D10*
X42907Y227140D02*
X42909Y227193D01*
X42915Y227246D01*
X42925Y227298D01*
X42938Y227349D01*
X42955Y227399D01*
X42976Y227448D01*
X43001Y227495D01*
X43029Y227540D01*
X43060Y227583D01*
X43094Y227624D01*
X43132Y227662D01*
X43171Y227697D01*
X43214Y227729D01*
X43258Y227757D01*
X43305Y227783D01*
X43353Y227805D01*
X43403Y227823D01*
X43454Y227837D01*
X43506Y227848D01*
X43559Y227855D01*
X43612Y227858D01*
X43665Y227857D01*
X43718Y227852D01*
X43770Y227843D01*
X43821Y227831D01*
X43872Y227814D01*
X43921Y227794D01*
X43969Y227770D01*
X44014Y227743D01*
X44058Y227713D01*
X44099Y227679D01*
X44137Y227643D01*
X44173Y227604D01*
X44206Y227562D01*
X44235Y227518D01*
X44262Y227472D01*
X44284Y227424D01*
X44304Y227374D01*
X44319Y227324D01*
X44331Y227272D01*
X44339Y227219D01*
X44343Y227167D01*
X44343Y227113D01*
X44339Y227061D01*
X44331Y227008D01*
X44319Y226956D01*
X44304Y226906D01*
X44284Y226856D01*
X44262Y226808D01*
X44235Y226762D01*
X44206Y226718D01*
X44173Y226676D01*
X44137Y226637D01*
X44099Y226601D01*
X44058Y226567D01*
X44014Y226537D01*
X43969Y226510D01*
X43921Y226486D01*
X43872Y226466D01*
X43821Y226449D01*
X43770Y226437D01*
X43718Y226428D01*
X43665Y226423D01*
X43612Y226422D01*
X43559Y226425D01*
X43506Y226432D01*
X43454Y226443D01*
X43403Y226457D01*
X43353Y226475D01*
X43305Y226497D01*
X43258Y226523D01*
X43214Y226551D01*
X43171Y226583D01*
X43132Y226618D01*
X43094Y226656D01*
X43060Y226697D01*
X43029Y226740D01*
X43001Y226785D01*
X42976Y226832D01*
X42955Y226881D01*
X42938Y226931D01*
X42925Y226982D01*
X42915Y227034D01*
X42909Y227087D01*
X42907Y227140D01*
D13*
X68453Y223457D02*
X73773Y223457D01*
X73773Y223456D02*
X73862Y223454D01*
X73951Y223448D01*
X74040Y223438D01*
X74128Y223425D01*
X74216Y223408D01*
X74303Y223386D01*
X74388Y223361D01*
X74473Y223333D01*
X74556Y223300D01*
X74638Y223264D01*
X74718Y223225D01*
X74796Y223182D01*
X74872Y223136D01*
X74947Y223086D01*
X75019Y223033D01*
X75088Y222977D01*
X75155Y222918D01*
X75220Y222857D01*
X75281Y222792D01*
X75340Y222725D01*
X75396Y222656D01*
X75449Y222584D01*
X75499Y222509D01*
X75545Y222433D01*
X75588Y222355D01*
X75627Y222275D01*
X75663Y222193D01*
X75696Y222110D01*
X75724Y222025D01*
X75749Y221940D01*
X75771Y221853D01*
X75788Y221765D01*
X75801Y221677D01*
X75811Y221588D01*
X75817Y221499D01*
X75819Y221410D01*
X75817Y221321D01*
X75811Y221232D01*
X75801Y221143D01*
X75788Y221055D01*
X75771Y220967D01*
X75749Y220880D01*
X75724Y220795D01*
X75696Y220710D01*
X75663Y220627D01*
X75627Y220545D01*
X75588Y220465D01*
X75545Y220387D01*
X75499Y220311D01*
X75449Y220236D01*
X75396Y220164D01*
X75340Y220095D01*
X75281Y220028D01*
X75220Y219963D01*
X75155Y219902D01*
X75088Y219843D01*
X75019Y219787D01*
X74947Y219734D01*
X74872Y219684D01*
X74796Y219638D01*
X74718Y219595D01*
X74638Y219556D01*
X74556Y219520D01*
X74473Y219487D01*
X74388Y219459D01*
X74303Y219434D01*
X74216Y219412D01*
X74128Y219395D01*
X74040Y219382D01*
X73951Y219372D01*
X73862Y219366D01*
X73773Y219364D01*
X68453Y219364D01*
X68453Y213647D02*
X68455Y213562D01*
X68461Y213477D01*
X68471Y213393D01*
X68484Y213309D01*
X68502Y213225D01*
X68523Y213143D01*
X68548Y213062D01*
X68577Y212982D01*
X68610Y212903D01*
X68646Y212826D01*
X68686Y212751D01*
X68729Y212677D01*
X68775Y212606D01*
X68825Y212537D01*
X68878Y212470D01*
X68934Y212406D01*
X68993Y212345D01*
X69054Y212286D01*
X69118Y212230D01*
X69185Y212177D01*
X69254Y212127D01*
X69325Y212081D01*
X69399Y212038D01*
X69474Y211998D01*
X69551Y211962D01*
X69630Y211929D01*
X69710Y211900D01*
X69791Y211875D01*
X69873Y211854D01*
X69957Y211836D01*
X70041Y211823D01*
X70125Y211813D01*
X70210Y211807D01*
X70295Y211805D01*
X68453Y213647D02*
X68455Y213743D01*
X68461Y213839D01*
X68471Y213934D01*
X68484Y214029D01*
X68502Y214124D01*
X68523Y214217D01*
X68548Y214310D01*
X68577Y214401D01*
X68609Y214492D01*
X68645Y214581D01*
X68685Y214668D01*
X68728Y214754D01*
X68774Y214838D01*
X68824Y214920D01*
X68878Y215000D01*
X68934Y215077D01*
X68994Y215152D01*
X69056Y215225D01*
X69122Y215295D01*
X69190Y215363D01*
X69261Y215428D01*
X69334Y215489D01*
X69410Y215548D01*
X69489Y215604D01*
X69569Y215656D01*
X69652Y215705D01*
X69736Y215751D01*
X69822Y215793D01*
X69910Y215831D01*
X69999Y215866D01*
X70090Y215898D01*
X71727Y212419D02*
X71668Y212359D01*
X71606Y212302D01*
X71542Y212247D01*
X71475Y212196D01*
X71406Y212147D01*
X71336Y212101D01*
X71263Y212058D01*
X71189Y212018D01*
X71113Y211982D01*
X71035Y211949D01*
X70956Y211919D01*
X70876Y211892D01*
X70795Y211869D01*
X70713Y211850D01*
X70631Y211834D01*
X70547Y211821D01*
X70463Y211812D01*
X70379Y211807D01*
X70295Y211805D01*
X71727Y212419D02*
X75819Y215897D01*
X75819Y211805D01*
D12*
X42990Y195263D02*
X36386Y195263D01*
D13*
X64469Y181166D02*
X66105Y181166D01*
X66105Y181165D02*
X66183Y181167D01*
X66261Y181172D01*
X66338Y181182D01*
X66415Y181195D01*
X66491Y181211D01*
X66566Y181231D01*
X66640Y181255D01*
X66713Y181282D01*
X66785Y181313D01*
X66855Y181347D01*
X66924Y181384D01*
X66990Y181425D01*
X67055Y181469D01*
X67117Y181515D01*
X67177Y181565D01*
X67235Y181617D01*
X67290Y181672D01*
X67342Y181730D01*
X67392Y181790D01*
X67438Y181852D01*
X67482Y181917D01*
X67523Y181984D01*
X67560Y182052D01*
X67594Y182122D01*
X67625Y182194D01*
X67652Y182267D01*
X67676Y182341D01*
X67696Y182416D01*
X67712Y182492D01*
X67725Y182569D01*
X67735Y182646D01*
X67740Y182724D01*
X67742Y182802D01*
X67742Y186895D01*
X67740Y186973D01*
X67735Y187051D01*
X67725Y187128D01*
X67712Y187205D01*
X67696Y187281D01*
X67676Y187356D01*
X67652Y187430D01*
X67625Y187503D01*
X67594Y187575D01*
X67560Y187645D01*
X67523Y187714D01*
X67482Y187780D01*
X67438Y187845D01*
X67392Y187907D01*
X67342Y187967D01*
X67290Y188025D01*
X67235Y188080D01*
X67177Y188132D01*
X67117Y188182D01*
X67055Y188228D01*
X66990Y188272D01*
X66924Y188313D01*
X66855Y188350D01*
X66785Y188384D01*
X66713Y188415D01*
X66640Y188442D01*
X66566Y188466D01*
X66491Y188486D01*
X66415Y188502D01*
X66338Y188515D01*
X66261Y188525D01*
X66183Y188530D01*
X66105Y188532D01*
X64469Y188532D01*
X61623Y183212D02*
X61621Y183301D01*
X61615Y183390D01*
X61605Y183479D01*
X61592Y183567D01*
X61575Y183655D01*
X61553Y183742D01*
X61528Y183827D01*
X61500Y183912D01*
X61467Y183995D01*
X61431Y184077D01*
X61392Y184157D01*
X61349Y184235D01*
X61303Y184311D01*
X61253Y184386D01*
X61200Y184458D01*
X61144Y184527D01*
X61085Y184594D01*
X61024Y184659D01*
X60959Y184720D01*
X60892Y184779D01*
X60823Y184835D01*
X60751Y184888D01*
X60676Y184938D01*
X60600Y184984D01*
X60522Y185027D01*
X60442Y185066D01*
X60360Y185102D01*
X60277Y185135D01*
X60192Y185163D01*
X60107Y185188D01*
X60020Y185210D01*
X59932Y185227D01*
X59844Y185240D01*
X59755Y185250D01*
X59666Y185256D01*
X59577Y185258D01*
X59488Y185256D01*
X59399Y185250D01*
X59310Y185240D01*
X59222Y185227D01*
X59134Y185210D01*
X59047Y185188D01*
X58962Y185163D01*
X58877Y185135D01*
X58794Y185102D01*
X58712Y185066D01*
X58632Y185027D01*
X58554Y184984D01*
X58478Y184938D01*
X58403Y184888D01*
X58331Y184835D01*
X58262Y184779D01*
X58195Y184720D01*
X58130Y184659D01*
X58069Y184594D01*
X58010Y184527D01*
X57954Y184458D01*
X57901Y184386D01*
X57851Y184311D01*
X57805Y184235D01*
X57762Y184157D01*
X57723Y184077D01*
X57687Y183995D01*
X57654Y183912D01*
X57626Y183827D01*
X57601Y183742D01*
X57579Y183655D01*
X57562Y183567D01*
X57549Y183479D01*
X57539Y183390D01*
X57533Y183301D01*
X57531Y183212D01*
X57533Y183123D01*
X57539Y183034D01*
X57549Y182945D01*
X57562Y182857D01*
X57579Y182769D01*
X57601Y182682D01*
X57626Y182597D01*
X57654Y182512D01*
X57687Y182429D01*
X57723Y182347D01*
X57762Y182267D01*
X57805Y182189D01*
X57851Y182113D01*
X57901Y182038D01*
X57954Y181966D01*
X58010Y181897D01*
X58069Y181830D01*
X58130Y181765D01*
X58195Y181704D01*
X58262Y181645D01*
X58331Y181589D01*
X58403Y181536D01*
X58478Y181486D01*
X58554Y181440D01*
X58632Y181397D01*
X58712Y181358D01*
X58794Y181322D01*
X58877Y181289D01*
X58962Y181261D01*
X59047Y181236D01*
X59134Y181214D01*
X59222Y181197D01*
X59310Y181184D01*
X59399Y181174D01*
X59488Y181168D01*
X59577Y181166D01*
X59666Y181168D01*
X59755Y181174D01*
X59844Y181184D01*
X59932Y181197D01*
X60020Y181214D01*
X60107Y181236D01*
X60192Y181261D01*
X60277Y181289D01*
X60360Y181322D01*
X60442Y181358D01*
X60522Y181397D01*
X60600Y181440D01*
X60676Y181486D01*
X60751Y181536D01*
X60823Y181589D01*
X60892Y181645D01*
X60959Y181704D01*
X61024Y181765D01*
X61085Y181830D01*
X61144Y181897D01*
X61200Y181966D01*
X61253Y182038D01*
X61303Y182113D01*
X61349Y182189D01*
X61392Y182267D01*
X61431Y182347D01*
X61467Y182429D01*
X61500Y182512D01*
X61528Y182597D01*
X61553Y182682D01*
X61575Y182769D01*
X61592Y182857D01*
X61605Y182945D01*
X61615Y183034D01*
X61621Y183123D01*
X61623Y183212D01*
X61214Y186895D02*
X61212Y186974D01*
X61206Y187053D01*
X61197Y187132D01*
X61184Y187210D01*
X61166Y187287D01*
X61146Y187363D01*
X61121Y187438D01*
X61093Y187512D01*
X61062Y187585D01*
X61026Y187656D01*
X60988Y187725D01*
X60946Y187792D01*
X60901Y187857D01*
X60853Y187920D01*
X60802Y187981D01*
X60748Y188038D01*
X60692Y188094D01*
X60633Y188146D01*
X60571Y188196D01*
X60507Y188242D01*
X60441Y188286D01*
X60373Y188326D01*
X60303Y188362D01*
X60231Y188396D01*
X60157Y188426D01*
X60083Y188452D01*
X60007Y188475D01*
X59930Y188493D01*
X59853Y188509D01*
X59774Y188520D01*
X59696Y188528D01*
X59617Y188532D01*
X59537Y188532D01*
X59458Y188528D01*
X59380Y188520D01*
X59301Y188509D01*
X59224Y188493D01*
X59147Y188475D01*
X59071Y188452D01*
X58997Y188426D01*
X58923Y188396D01*
X58851Y188362D01*
X58781Y188326D01*
X58713Y188286D01*
X58647Y188242D01*
X58583Y188196D01*
X58521Y188146D01*
X58462Y188094D01*
X58406Y188038D01*
X58352Y187981D01*
X58301Y187920D01*
X58253Y187857D01*
X58208Y187792D01*
X58166Y187725D01*
X58128Y187656D01*
X58092Y187585D01*
X58061Y187512D01*
X58033Y187438D01*
X58008Y187363D01*
X57988Y187287D01*
X57970Y187210D01*
X57957Y187132D01*
X57948Y187053D01*
X57942Y186974D01*
X57940Y186895D01*
X57942Y186816D01*
X57948Y186737D01*
X57957Y186658D01*
X57970Y186580D01*
X57988Y186503D01*
X58008Y186427D01*
X58033Y186352D01*
X58061Y186278D01*
X58092Y186205D01*
X58128Y186134D01*
X58166Y186065D01*
X58208Y185998D01*
X58253Y185933D01*
X58301Y185870D01*
X58352Y185809D01*
X58406Y185752D01*
X58462Y185696D01*
X58521Y185644D01*
X58583Y185594D01*
X58647Y185548D01*
X58713Y185504D01*
X58781Y185464D01*
X58851Y185428D01*
X58923Y185394D01*
X58997Y185364D01*
X59071Y185338D01*
X59147Y185315D01*
X59224Y185297D01*
X59301Y185281D01*
X59380Y185270D01*
X59458Y185262D01*
X59537Y185258D01*
X59617Y185258D01*
X59696Y185262D01*
X59774Y185270D01*
X59853Y185281D01*
X59930Y185297D01*
X60007Y185315D01*
X60083Y185338D01*
X60157Y185364D01*
X60231Y185394D01*
X60303Y185428D01*
X60373Y185464D01*
X60441Y185504D01*
X60507Y185548D01*
X60571Y185594D01*
X60633Y185644D01*
X60692Y185696D01*
X60748Y185752D01*
X60802Y185809D01*
X60853Y185870D01*
X60901Y185933D01*
X60946Y185998D01*
X60988Y186065D01*
X61026Y186134D01*
X61062Y186205D01*
X61093Y186278D01*
X61121Y186352D01*
X61146Y186427D01*
X61166Y186503D01*
X61184Y186580D01*
X61197Y186658D01*
X61206Y186737D01*
X61212Y186816D01*
X61214Y186895D01*
D12*
X42990Y185738D02*
X36386Y185738D01*
D13*
X64469Y192278D02*
X66105Y192278D01*
X66183Y192280D01*
X66261Y192285D01*
X66338Y192295D01*
X66415Y192308D01*
X66491Y192324D01*
X66566Y192344D01*
X66640Y192368D01*
X66713Y192395D01*
X66785Y192426D01*
X66855Y192460D01*
X66924Y192497D01*
X66990Y192538D01*
X67055Y192582D01*
X67117Y192628D01*
X67177Y192678D01*
X67235Y192730D01*
X67290Y192785D01*
X67342Y192843D01*
X67392Y192903D01*
X67438Y192965D01*
X67482Y193030D01*
X67523Y193097D01*
X67560Y193165D01*
X67594Y193235D01*
X67625Y193307D01*
X67652Y193380D01*
X67676Y193454D01*
X67696Y193529D01*
X67712Y193605D01*
X67725Y193682D01*
X67735Y193759D01*
X67740Y193837D01*
X67742Y193915D01*
X67742Y198007D01*
X67740Y198085D01*
X67735Y198163D01*
X67725Y198240D01*
X67712Y198317D01*
X67696Y198393D01*
X67676Y198468D01*
X67652Y198542D01*
X67625Y198615D01*
X67594Y198687D01*
X67560Y198757D01*
X67523Y198826D01*
X67482Y198892D01*
X67438Y198957D01*
X67392Y199019D01*
X67342Y199079D01*
X67290Y199137D01*
X67235Y199192D01*
X67177Y199244D01*
X67117Y199294D01*
X67055Y199340D01*
X66990Y199384D01*
X66924Y199425D01*
X66855Y199462D01*
X66785Y199496D01*
X66713Y199527D01*
X66640Y199554D01*
X66566Y199578D01*
X66491Y199598D01*
X66415Y199614D01*
X66338Y199627D01*
X66261Y199637D01*
X66183Y199642D01*
X66105Y199644D01*
X64469Y199644D01*
X59986Y195552D02*
X57531Y195552D01*
X59986Y195552D02*
X60064Y195554D01*
X60142Y195559D01*
X60219Y195569D01*
X60296Y195582D01*
X60372Y195598D01*
X60447Y195618D01*
X60521Y195642D01*
X60594Y195669D01*
X60666Y195700D01*
X60736Y195734D01*
X60805Y195771D01*
X60871Y195812D01*
X60936Y195856D01*
X60998Y195902D01*
X61058Y195952D01*
X61116Y196004D01*
X61171Y196059D01*
X61223Y196117D01*
X61273Y196177D01*
X61319Y196239D01*
X61363Y196304D01*
X61404Y196371D01*
X61441Y196439D01*
X61475Y196509D01*
X61506Y196581D01*
X61533Y196654D01*
X61557Y196728D01*
X61577Y196803D01*
X61593Y196879D01*
X61606Y196956D01*
X61616Y197033D01*
X61621Y197111D01*
X61623Y197189D01*
X61623Y197598D01*
X61621Y197687D01*
X61615Y197776D01*
X61605Y197865D01*
X61592Y197953D01*
X61575Y198041D01*
X61553Y198128D01*
X61528Y198213D01*
X61500Y198298D01*
X61467Y198381D01*
X61431Y198463D01*
X61392Y198543D01*
X61349Y198621D01*
X61303Y198697D01*
X61253Y198772D01*
X61200Y198844D01*
X61144Y198913D01*
X61085Y198980D01*
X61024Y199045D01*
X60959Y199106D01*
X60892Y199165D01*
X60823Y199221D01*
X60751Y199274D01*
X60676Y199324D01*
X60600Y199370D01*
X60522Y199413D01*
X60442Y199452D01*
X60360Y199488D01*
X60277Y199521D01*
X60192Y199549D01*
X60107Y199574D01*
X60020Y199596D01*
X59932Y199613D01*
X59844Y199626D01*
X59755Y199636D01*
X59666Y199642D01*
X59577Y199644D01*
X59488Y199642D01*
X59399Y199636D01*
X59310Y199626D01*
X59222Y199613D01*
X59134Y199596D01*
X59047Y199574D01*
X58962Y199549D01*
X58877Y199521D01*
X58794Y199488D01*
X58712Y199452D01*
X58632Y199413D01*
X58554Y199370D01*
X58478Y199324D01*
X58403Y199274D01*
X58331Y199221D01*
X58262Y199165D01*
X58195Y199106D01*
X58130Y199045D01*
X58069Y198980D01*
X58010Y198913D01*
X57954Y198844D01*
X57901Y198772D01*
X57851Y198697D01*
X57805Y198621D01*
X57762Y198543D01*
X57723Y198463D01*
X57687Y198381D01*
X57654Y198298D01*
X57626Y198213D01*
X57601Y198128D01*
X57579Y198041D01*
X57562Y197953D01*
X57549Y197865D01*
X57539Y197776D01*
X57533Y197687D01*
X57531Y197598D01*
X57531Y195552D01*
X57533Y195440D01*
X57539Y195329D01*
X57548Y195217D01*
X57561Y195106D01*
X57579Y194996D01*
X57599Y194886D01*
X57624Y194777D01*
X57652Y194669D01*
X57684Y194562D01*
X57720Y194456D01*
X57759Y194351D01*
X57802Y194248D01*
X57848Y194146D01*
X57898Y194046D01*
X57951Y193947D01*
X58008Y193851D01*
X58067Y193756D01*
X58130Y193664D01*
X58196Y193574D01*
X58265Y193486D01*
X58337Y193400D01*
X58412Y193317D01*
X58490Y193237D01*
X58570Y193159D01*
X58653Y193084D01*
X58739Y193012D01*
X58827Y192943D01*
X58917Y192877D01*
X59009Y192814D01*
X59104Y192755D01*
X59200Y192698D01*
X59299Y192645D01*
X59399Y192595D01*
X59501Y192549D01*
X59604Y192506D01*
X59709Y192467D01*
X59815Y192431D01*
X59922Y192399D01*
X60030Y192371D01*
X60139Y192346D01*
X60249Y192326D01*
X60359Y192308D01*
X60470Y192295D01*
X60582Y192286D01*
X60693Y192280D01*
X60805Y192278D01*
D12*
X63373Y171450D02*
X69977Y171450D01*
D13*
X98771Y160528D02*
X100408Y160528D01*
X100486Y160530D01*
X100564Y160535D01*
X100641Y160545D01*
X100718Y160558D01*
X100794Y160574D01*
X100869Y160594D01*
X100943Y160618D01*
X101016Y160645D01*
X101088Y160676D01*
X101158Y160710D01*
X101227Y160747D01*
X101293Y160788D01*
X101358Y160832D01*
X101420Y160878D01*
X101480Y160928D01*
X101538Y160980D01*
X101593Y161035D01*
X101645Y161093D01*
X101695Y161153D01*
X101741Y161215D01*
X101785Y161280D01*
X101826Y161347D01*
X101863Y161415D01*
X101897Y161485D01*
X101928Y161557D01*
X101955Y161630D01*
X101979Y161704D01*
X101999Y161779D01*
X102015Y161855D01*
X102028Y161932D01*
X102038Y162009D01*
X102043Y162087D01*
X102045Y162165D01*
X102045Y166257D01*
X102043Y166335D01*
X102038Y166413D01*
X102028Y166490D01*
X102015Y166567D01*
X101999Y166643D01*
X101979Y166718D01*
X101955Y166792D01*
X101928Y166865D01*
X101897Y166937D01*
X101863Y167007D01*
X101826Y167076D01*
X101785Y167142D01*
X101741Y167207D01*
X101695Y167269D01*
X101645Y167329D01*
X101593Y167387D01*
X101538Y167442D01*
X101480Y167494D01*
X101420Y167544D01*
X101358Y167590D01*
X101293Y167634D01*
X101227Y167675D01*
X101158Y167712D01*
X101088Y167746D01*
X101016Y167777D01*
X100943Y167804D01*
X100869Y167828D01*
X100794Y167848D01*
X100718Y167864D01*
X100641Y167877D01*
X100564Y167887D01*
X100486Y167892D01*
X100408Y167894D01*
X98771Y167894D01*
X95926Y166257D02*
X93880Y167894D01*
X93880Y160528D01*
X95926Y160528D02*
X91834Y160528D01*
X84518Y166053D02*
X84520Y166138D01*
X84526Y166223D01*
X84536Y166307D01*
X84549Y166391D01*
X84567Y166475D01*
X84588Y166557D01*
X84613Y166638D01*
X84642Y166718D01*
X84675Y166797D01*
X84711Y166874D01*
X84751Y166949D01*
X84794Y167023D01*
X84840Y167094D01*
X84890Y167163D01*
X84943Y167230D01*
X84999Y167294D01*
X85058Y167355D01*
X85119Y167414D01*
X85183Y167470D01*
X85250Y167523D01*
X85319Y167573D01*
X85390Y167619D01*
X85464Y167662D01*
X85539Y167702D01*
X85616Y167738D01*
X85695Y167771D01*
X85775Y167800D01*
X85856Y167825D01*
X85938Y167846D01*
X86022Y167864D01*
X86106Y167877D01*
X86190Y167887D01*
X86275Y167893D01*
X86360Y167895D01*
X86360Y167894D02*
X86456Y167892D01*
X86552Y167886D01*
X86647Y167876D01*
X86742Y167863D01*
X86837Y167845D01*
X86930Y167824D01*
X87023Y167799D01*
X87114Y167770D01*
X87205Y167738D01*
X87294Y167702D01*
X87381Y167662D01*
X87467Y167619D01*
X87551Y167573D01*
X87633Y167523D01*
X87713Y167469D01*
X87790Y167413D01*
X87865Y167353D01*
X87938Y167291D01*
X88008Y167225D01*
X88076Y167157D01*
X88141Y167086D01*
X88202Y167013D01*
X88261Y166937D01*
X88317Y166858D01*
X88369Y166778D01*
X88418Y166695D01*
X88464Y166611D01*
X88506Y166525D01*
X88544Y166437D01*
X88579Y166348D01*
X88611Y166257D01*
X85132Y164621D02*
X85072Y164680D01*
X85015Y164742D01*
X84960Y164806D01*
X84909Y164873D01*
X84860Y164942D01*
X84814Y165012D01*
X84771Y165085D01*
X84731Y165159D01*
X84695Y165235D01*
X84662Y165313D01*
X84632Y165392D01*
X84605Y165472D01*
X84582Y165553D01*
X84563Y165635D01*
X84547Y165717D01*
X84534Y165801D01*
X84525Y165885D01*
X84520Y165969D01*
X84518Y166053D01*
X85132Y164620D02*
X88611Y160528D01*
X84519Y160528D01*
D12*
X69977Y161925D02*
X63373Y161925D01*
D13*
X98771Y171641D02*
X100408Y171641D01*
X100408Y171640D02*
X100486Y171642D01*
X100564Y171647D01*
X100641Y171657D01*
X100718Y171670D01*
X100794Y171686D01*
X100869Y171706D01*
X100943Y171730D01*
X101016Y171757D01*
X101088Y171788D01*
X101158Y171822D01*
X101227Y171859D01*
X101293Y171900D01*
X101358Y171944D01*
X101420Y171990D01*
X101480Y172040D01*
X101538Y172092D01*
X101593Y172147D01*
X101645Y172205D01*
X101695Y172265D01*
X101741Y172327D01*
X101785Y172392D01*
X101826Y172459D01*
X101863Y172527D01*
X101897Y172597D01*
X101928Y172669D01*
X101955Y172742D01*
X101979Y172816D01*
X101999Y172891D01*
X102015Y172967D01*
X102028Y173044D01*
X102038Y173121D01*
X102043Y173199D01*
X102045Y173277D01*
X102045Y177370D01*
X102043Y177448D01*
X102038Y177526D01*
X102028Y177603D01*
X102015Y177680D01*
X101999Y177756D01*
X101979Y177831D01*
X101955Y177905D01*
X101928Y177978D01*
X101897Y178050D01*
X101863Y178120D01*
X101826Y178189D01*
X101785Y178255D01*
X101741Y178320D01*
X101695Y178382D01*
X101645Y178442D01*
X101593Y178500D01*
X101538Y178555D01*
X101480Y178607D01*
X101420Y178657D01*
X101358Y178703D01*
X101293Y178747D01*
X101227Y178788D01*
X101158Y178825D01*
X101088Y178859D01*
X101016Y178890D01*
X100943Y178917D01*
X100869Y178941D01*
X100794Y178961D01*
X100718Y178977D01*
X100641Y178990D01*
X100564Y179000D01*
X100486Y179005D01*
X100408Y179007D01*
X98771Y179007D01*
X95926Y177370D02*
X93880Y179007D01*
X93880Y171641D01*
X95926Y171641D02*
X91834Y171641D01*
X88611Y171641D02*
X86565Y171641D01*
X86476Y171643D01*
X86387Y171649D01*
X86298Y171659D01*
X86210Y171672D01*
X86122Y171689D01*
X86035Y171711D01*
X85950Y171736D01*
X85865Y171764D01*
X85782Y171797D01*
X85700Y171833D01*
X85620Y171872D01*
X85542Y171915D01*
X85466Y171961D01*
X85391Y172011D01*
X85319Y172064D01*
X85250Y172120D01*
X85183Y172179D01*
X85118Y172240D01*
X85057Y172305D01*
X84998Y172372D01*
X84942Y172441D01*
X84889Y172513D01*
X84839Y172588D01*
X84793Y172664D01*
X84750Y172742D01*
X84711Y172822D01*
X84675Y172904D01*
X84642Y172987D01*
X84614Y173072D01*
X84589Y173157D01*
X84567Y173244D01*
X84550Y173332D01*
X84537Y173420D01*
X84527Y173509D01*
X84521Y173598D01*
X84519Y173687D01*
X84521Y173776D01*
X84527Y173865D01*
X84537Y173954D01*
X84550Y174042D01*
X84567Y174130D01*
X84589Y174217D01*
X84614Y174302D01*
X84642Y174387D01*
X84675Y174470D01*
X84711Y174552D01*
X84750Y174632D01*
X84793Y174710D01*
X84839Y174786D01*
X84889Y174861D01*
X84942Y174933D01*
X84998Y175002D01*
X85057Y175069D01*
X85118Y175134D01*
X85183Y175195D01*
X85250Y175254D01*
X85319Y175310D01*
X85391Y175363D01*
X85466Y175413D01*
X85542Y175459D01*
X85620Y175502D01*
X85700Y175541D01*
X85782Y175577D01*
X85865Y175610D01*
X85950Y175638D01*
X86035Y175663D01*
X86122Y175685D01*
X86210Y175702D01*
X86298Y175715D01*
X86387Y175725D01*
X86476Y175731D01*
X86565Y175733D01*
X86155Y179007D02*
X88611Y179007D01*
X86155Y179007D02*
X86076Y179005D01*
X85997Y178999D01*
X85918Y178990D01*
X85840Y178977D01*
X85763Y178959D01*
X85687Y178939D01*
X85612Y178914D01*
X85538Y178886D01*
X85465Y178855D01*
X85394Y178819D01*
X85325Y178781D01*
X85258Y178739D01*
X85193Y178694D01*
X85130Y178646D01*
X85069Y178595D01*
X85012Y178541D01*
X84956Y178485D01*
X84904Y178426D01*
X84854Y178364D01*
X84808Y178300D01*
X84764Y178234D01*
X84724Y178166D01*
X84688Y178096D01*
X84654Y178024D01*
X84624Y177950D01*
X84598Y177876D01*
X84575Y177800D01*
X84557Y177723D01*
X84541Y177646D01*
X84530Y177567D01*
X84522Y177489D01*
X84518Y177410D01*
X84518Y177330D01*
X84522Y177251D01*
X84530Y177173D01*
X84541Y177094D01*
X84557Y177017D01*
X84575Y176940D01*
X84598Y176864D01*
X84624Y176790D01*
X84654Y176716D01*
X84688Y176644D01*
X84724Y176574D01*
X84764Y176506D01*
X84808Y176440D01*
X84854Y176376D01*
X84904Y176314D01*
X84956Y176255D01*
X85012Y176199D01*
X85069Y176145D01*
X85130Y176094D01*
X85193Y176046D01*
X85258Y176001D01*
X85325Y175959D01*
X85394Y175921D01*
X85465Y175885D01*
X85538Y175854D01*
X85612Y175826D01*
X85687Y175801D01*
X85763Y175781D01*
X85840Y175763D01*
X85918Y175750D01*
X85997Y175741D01*
X86076Y175735D01*
X86155Y175733D01*
X87792Y175733D01*
D12*
X58865Y241300D02*
X52261Y241300D01*
D13*
X59845Y249619D02*
X61482Y249619D01*
X61482Y249618D02*
X61560Y249620D01*
X61638Y249625D01*
X61715Y249635D01*
X61792Y249648D01*
X61868Y249664D01*
X61943Y249684D01*
X62017Y249708D01*
X62090Y249735D01*
X62162Y249766D01*
X62232Y249800D01*
X62301Y249837D01*
X62367Y249878D01*
X62432Y249922D01*
X62494Y249968D01*
X62554Y250018D01*
X62612Y250070D01*
X62667Y250125D01*
X62719Y250183D01*
X62769Y250243D01*
X62815Y250305D01*
X62859Y250370D01*
X62900Y250437D01*
X62937Y250505D01*
X62971Y250575D01*
X63002Y250647D01*
X63029Y250720D01*
X63053Y250794D01*
X63073Y250869D01*
X63089Y250945D01*
X63102Y251022D01*
X63112Y251099D01*
X63117Y251177D01*
X63119Y251255D01*
X63119Y255348D01*
X63117Y255426D01*
X63112Y255504D01*
X63102Y255581D01*
X63089Y255658D01*
X63073Y255734D01*
X63053Y255809D01*
X63029Y255883D01*
X63002Y255956D01*
X62971Y256028D01*
X62937Y256098D01*
X62900Y256167D01*
X62859Y256233D01*
X62815Y256298D01*
X62769Y256360D01*
X62719Y256420D01*
X62667Y256478D01*
X62612Y256533D01*
X62554Y256585D01*
X62494Y256635D01*
X62432Y256681D01*
X62367Y256725D01*
X62301Y256766D01*
X62232Y256803D01*
X62162Y256837D01*
X62090Y256868D01*
X62017Y256895D01*
X61943Y256919D01*
X61868Y256939D01*
X61792Y256955D01*
X61715Y256968D01*
X61638Y256978D01*
X61560Y256983D01*
X61482Y256985D01*
X59845Y256985D01*
X57000Y255348D02*
X54954Y256985D01*
X54954Y249619D01*
X57000Y249619D02*
X52908Y249619D01*
X49685Y251255D02*
X48048Y256985D01*
X49685Y251255D02*
X45593Y251255D01*
X46820Y252892D02*
X46820Y249619D01*
D12*
X3302Y265113D02*
X-3302Y265113D01*
D13*
X5870Y273431D02*
X7507Y273431D01*
X7585Y273433D01*
X7663Y273438D01*
X7740Y273448D01*
X7817Y273461D01*
X7893Y273477D01*
X7968Y273497D01*
X8042Y273521D01*
X8115Y273548D01*
X8187Y273579D01*
X8257Y273613D01*
X8326Y273650D01*
X8392Y273691D01*
X8457Y273735D01*
X8519Y273781D01*
X8579Y273831D01*
X8637Y273883D01*
X8692Y273938D01*
X8744Y273996D01*
X8794Y274056D01*
X8840Y274118D01*
X8884Y274183D01*
X8925Y274250D01*
X8962Y274318D01*
X8996Y274388D01*
X9027Y274460D01*
X9054Y274533D01*
X9078Y274607D01*
X9098Y274682D01*
X9114Y274758D01*
X9127Y274835D01*
X9137Y274912D01*
X9142Y274990D01*
X9144Y275068D01*
X9144Y279160D01*
X9142Y279238D01*
X9137Y279316D01*
X9127Y279393D01*
X9114Y279470D01*
X9098Y279546D01*
X9078Y279621D01*
X9054Y279695D01*
X9027Y279768D01*
X8996Y279840D01*
X8962Y279910D01*
X8925Y279979D01*
X8884Y280045D01*
X8840Y280110D01*
X8794Y280172D01*
X8744Y280232D01*
X8692Y280290D01*
X8637Y280345D01*
X8579Y280397D01*
X8519Y280447D01*
X8457Y280493D01*
X8392Y280537D01*
X8326Y280578D01*
X8257Y280615D01*
X8187Y280649D01*
X8115Y280680D01*
X8042Y280707D01*
X7968Y280731D01*
X7893Y280751D01*
X7817Y280767D01*
X7740Y280780D01*
X7663Y280790D01*
X7585Y280795D01*
X7507Y280797D01*
X5870Y280797D01*
X3025Y279160D02*
X979Y280797D01*
X979Y273431D01*
X3025Y273431D02*
X-1067Y273431D01*
X-4291Y277114D02*
X-4293Y277267D01*
X-4299Y277420D01*
X-4308Y277572D01*
X-4322Y277725D01*
X-4339Y277877D01*
X-4360Y278028D01*
X-4385Y278179D01*
X-4414Y278329D01*
X-4446Y278479D01*
X-4483Y278627D01*
X-4523Y278775D01*
X-4566Y278922D01*
X-4614Y279067D01*
X-4665Y279211D01*
X-4719Y279354D01*
X-4778Y279496D01*
X-4839Y279635D01*
X-4905Y279774D01*
X-4904Y279774D02*
X-4930Y279844D01*
X-4960Y279914D01*
X-4993Y279981D01*
X-5029Y280047D01*
X-5068Y280111D01*
X-5111Y280173D01*
X-5157Y280232D01*
X-5205Y280290D01*
X-5256Y280344D01*
X-5310Y280397D01*
X-5367Y280446D01*
X-5426Y280493D01*
X-5487Y280536D01*
X-5550Y280577D01*
X-5615Y280614D01*
X-5682Y280649D01*
X-5751Y280679D01*
X-5821Y280707D01*
X-5892Y280730D01*
X-5964Y280751D01*
X-6037Y280767D01*
X-6111Y280780D01*
X-6186Y280790D01*
X-6261Y280795D01*
X-6336Y280797D01*
X-6411Y280795D01*
X-6486Y280790D01*
X-6561Y280780D01*
X-6635Y280767D01*
X-6708Y280751D01*
X-6780Y280730D01*
X-6851Y280707D01*
X-6921Y280679D01*
X-6990Y280649D01*
X-7057Y280614D01*
X-7122Y280577D01*
X-7185Y280536D01*
X-7246Y280493D01*
X-7305Y280446D01*
X-7362Y280397D01*
X-7416Y280344D01*
X-7467Y280290D01*
X-7516Y280232D01*
X-7561Y280173D01*
X-7604Y280111D01*
X-7643Y280047D01*
X-7680Y279981D01*
X-7712Y279913D01*
X-7742Y279844D01*
X-7768Y279774D01*
X-7833Y279636D01*
X-7895Y279496D01*
X-7953Y279354D01*
X-8008Y279211D01*
X-8059Y279067D01*
X-8107Y278922D01*
X-8150Y278775D01*
X-8190Y278628D01*
X-8227Y278479D01*
X-8259Y278329D01*
X-8288Y278179D01*
X-8313Y278028D01*
X-8334Y277877D01*
X-8351Y277725D01*
X-8365Y277572D01*
X-8374Y277420D01*
X-8380Y277267D01*
X-8382Y277114D01*
X-4290Y277114D02*
X-4292Y276961D01*
X-4298Y276808D01*
X-4307Y276655D01*
X-4321Y276503D01*
X-4338Y276351D01*
X-4359Y276200D01*
X-4384Y276049D01*
X-4413Y275898D01*
X-4445Y275749D01*
X-4482Y275600D01*
X-4522Y275453D01*
X-4565Y275306D01*
X-4613Y275161D01*
X-4664Y275016D01*
X-4719Y274874D01*
X-4777Y274732D01*
X-4839Y274592D01*
X-4904Y274454D01*
X-4930Y274383D01*
X-4960Y274314D01*
X-4993Y274247D01*
X-5029Y274181D01*
X-5068Y274117D01*
X-5111Y274055D01*
X-5157Y273996D01*
X-5205Y273938D01*
X-5256Y273884D01*
X-5310Y273831D01*
X-5367Y273782D01*
X-5426Y273735D01*
X-5487Y273692D01*
X-5550Y273651D01*
X-5615Y273614D01*
X-5682Y273579D01*
X-5751Y273549D01*
X-5821Y273521D01*
X-5892Y273498D01*
X-5964Y273477D01*
X-6037Y273461D01*
X-6111Y273448D01*
X-6186Y273438D01*
X-6261Y273433D01*
X-6336Y273431D01*
X-7768Y274454D02*
X-7833Y274592D01*
X-7895Y274732D01*
X-7953Y274874D01*
X-8008Y275017D01*
X-8059Y275161D01*
X-8107Y275306D01*
X-8150Y275453D01*
X-8190Y275601D01*
X-8227Y275749D01*
X-8259Y275899D01*
X-8288Y276049D01*
X-8313Y276200D01*
X-8334Y276351D01*
X-8351Y276503D01*
X-8365Y276656D01*
X-8374Y276808D01*
X-8380Y276961D01*
X-8382Y277114D01*
X-7768Y274454D02*
X-7742Y274384D01*
X-7712Y274314D01*
X-7680Y274247D01*
X-7643Y274181D01*
X-7604Y274117D01*
X-7561Y274055D01*
X-7515Y273996D01*
X-7467Y273938D01*
X-7416Y273884D01*
X-7362Y273831D01*
X-7305Y273782D01*
X-7246Y273735D01*
X-7185Y273692D01*
X-7122Y273651D01*
X-7057Y273614D01*
X-6990Y273579D01*
X-6921Y273549D01*
X-6851Y273521D01*
X-6780Y273498D01*
X-6708Y273477D01*
X-6635Y273461D01*
X-6561Y273448D01*
X-6486Y273438D01*
X-6411Y273433D01*
X-6336Y273431D01*
X-4700Y275068D02*
X-7973Y279160D01*
D12*
X-69723Y139700D02*
X-76073Y139700D01*
D13*
X-66688Y131470D02*
X-66688Y124104D01*
X-66688Y131470D02*
X-68734Y131470D01*
X-68823Y131468D01*
X-68912Y131462D01*
X-69001Y131452D01*
X-69089Y131439D01*
X-69177Y131422D01*
X-69264Y131400D01*
X-69349Y131375D01*
X-69434Y131347D01*
X-69517Y131314D01*
X-69599Y131278D01*
X-69679Y131239D01*
X-69757Y131196D01*
X-69833Y131150D01*
X-69908Y131100D01*
X-69980Y131047D01*
X-70049Y130991D01*
X-70116Y130932D01*
X-70181Y130871D01*
X-70242Y130806D01*
X-70301Y130739D01*
X-70357Y130670D01*
X-70410Y130598D01*
X-70460Y130523D01*
X-70506Y130447D01*
X-70549Y130369D01*
X-70588Y130289D01*
X-70624Y130207D01*
X-70657Y130124D01*
X-70685Y130039D01*
X-70710Y129954D01*
X-70732Y129867D01*
X-70749Y129779D01*
X-70762Y129691D01*
X-70772Y129602D01*
X-70778Y129513D01*
X-70780Y129424D01*
X-70778Y129335D01*
X-70772Y129246D01*
X-70762Y129157D01*
X-70749Y129069D01*
X-70732Y128981D01*
X-70710Y128894D01*
X-70685Y128809D01*
X-70657Y128724D01*
X-70624Y128641D01*
X-70588Y128559D01*
X-70549Y128479D01*
X-70506Y128401D01*
X-70460Y128325D01*
X-70410Y128250D01*
X-70357Y128178D01*
X-70301Y128109D01*
X-70242Y128042D01*
X-70181Y127977D01*
X-70116Y127916D01*
X-70049Y127857D01*
X-69980Y127801D01*
X-69908Y127748D01*
X-69833Y127698D01*
X-69757Y127652D01*
X-69679Y127609D01*
X-69599Y127570D01*
X-69517Y127534D01*
X-69434Y127501D01*
X-69349Y127473D01*
X-69264Y127448D01*
X-69177Y127426D01*
X-69089Y127409D01*
X-69001Y127396D01*
X-68912Y127386D01*
X-68823Y127380D01*
X-68734Y127378D01*
X-66688Y127378D01*
X-69143Y127378D02*
X-70780Y124104D01*
X-73952Y124104D02*
X-76407Y124104D01*
X-76485Y124106D01*
X-76563Y124111D01*
X-76640Y124121D01*
X-76717Y124134D01*
X-76793Y124150D01*
X-76868Y124170D01*
X-76942Y124194D01*
X-77015Y124221D01*
X-77087Y124252D01*
X-77157Y124286D01*
X-77226Y124323D01*
X-77292Y124364D01*
X-77357Y124408D01*
X-77419Y124454D01*
X-77479Y124504D01*
X-77537Y124556D01*
X-77592Y124611D01*
X-77644Y124669D01*
X-77694Y124729D01*
X-77740Y124791D01*
X-77784Y124856D01*
X-77825Y124923D01*
X-77862Y124991D01*
X-77896Y125061D01*
X-77927Y125133D01*
X-77954Y125206D01*
X-77978Y125280D01*
X-77998Y125355D01*
X-78014Y125431D01*
X-78027Y125508D01*
X-78037Y125585D01*
X-78042Y125663D01*
X-78044Y125741D01*
X-78044Y126560D01*
X-78042Y126638D01*
X-78037Y126716D01*
X-78027Y126793D01*
X-78014Y126870D01*
X-77998Y126946D01*
X-77978Y127021D01*
X-77954Y127095D01*
X-77927Y127168D01*
X-77896Y127240D01*
X-77862Y127310D01*
X-77825Y127379D01*
X-77784Y127445D01*
X-77740Y127510D01*
X-77694Y127572D01*
X-77644Y127632D01*
X-77592Y127690D01*
X-77537Y127745D01*
X-77479Y127797D01*
X-77419Y127847D01*
X-77357Y127893D01*
X-77292Y127937D01*
X-77226Y127978D01*
X-77157Y128015D01*
X-77087Y128049D01*
X-77015Y128080D01*
X-76942Y128107D01*
X-76868Y128131D01*
X-76793Y128151D01*
X-76717Y128167D01*
X-76640Y128180D01*
X-76563Y128190D01*
X-76485Y128195D01*
X-76407Y128197D01*
X-73952Y128197D01*
X-73952Y131470D01*
X-78044Y131470D01*
D12*
X-45911Y139700D02*
X-39561Y139700D01*
D13*
X-34938Y131470D02*
X-34938Y124104D01*
X-34938Y131470D02*
X-36984Y131470D01*
X-37073Y131468D01*
X-37162Y131462D01*
X-37251Y131452D01*
X-37339Y131439D01*
X-37427Y131422D01*
X-37514Y131400D01*
X-37599Y131375D01*
X-37684Y131347D01*
X-37767Y131314D01*
X-37849Y131278D01*
X-37929Y131239D01*
X-38007Y131196D01*
X-38083Y131150D01*
X-38158Y131100D01*
X-38230Y131047D01*
X-38299Y130991D01*
X-38366Y130932D01*
X-38431Y130871D01*
X-38492Y130806D01*
X-38551Y130739D01*
X-38607Y130670D01*
X-38660Y130598D01*
X-38710Y130523D01*
X-38756Y130447D01*
X-38799Y130369D01*
X-38838Y130289D01*
X-38874Y130207D01*
X-38907Y130124D01*
X-38935Y130039D01*
X-38960Y129954D01*
X-38982Y129867D01*
X-38999Y129779D01*
X-39012Y129691D01*
X-39022Y129602D01*
X-39028Y129513D01*
X-39030Y129424D01*
X-39028Y129335D01*
X-39022Y129246D01*
X-39012Y129157D01*
X-38999Y129069D01*
X-38982Y128981D01*
X-38960Y128894D01*
X-38935Y128809D01*
X-38907Y128724D01*
X-38874Y128641D01*
X-38838Y128559D01*
X-38799Y128479D01*
X-38756Y128401D01*
X-38710Y128325D01*
X-38660Y128250D01*
X-38607Y128178D01*
X-38551Y128109D01*
X-38492Y128042D01*
X-38431Y127977D01*
X-38366Y127916D01*
X-38299Y127857D01*
X-38230Y127801D01*
X-38158Y127748D01*
X-38083Y127698D01*
X-38007Y127652D01*
X-37929Y127609D01*
X-37849Y127570D01*
X-37767Y127534D01*
X-37684Y127501D01*
X-37599Y127473D01*
X-37514Y127448D01*
X-37427Y127426D01*
X-37339Y127409D01*
X-37251Y127396D01*
X-37162Y127386D01*
X-37073Y127380D01*
X-36984Y127378D01*
X-34938Y127378D01*
X-37393Y127378D02*
X-39030Y124104D01*
X-42202Y130652D02*
X-42202Y131470D01*
X-46294Y131470D01*
X-44248Y124104D01*
D12*
X-14161Y139700D02*
X-7811Y139700D01*
D13*
X-6363Y131470D02*
X-6363Y124104D01*
X-6363Y131470D02*
X-8409Y131470D01*
X-8498Y131468D01*
X-8587Y131462D01*
X-8676Y131452D01*
X-8764Y131439D01*
X-8852Y131422D01*
X-8939Y131400D01*
X-9024Y131375D01*
X-9109Y131347D01*
X-9192Y131314D01*
X-9274Y131278D01*
X-9354Y131239D01*
X-9432Y131196D01*
X-9508Y131150D01*
X-9583Y131100D01*
X-9655Y131047D01*
X-9724Y130991D01*
X-9791Y130932D01*
X-9856Y130871D01*
X-9917Y130806D01*
X-9976Y130739D01*
X-10032Y130670D01*
X-10085Y130598D01*
X-10135Y130523D01*
X-10181Y130447D01*
X-10224Y130369D01*
X-10263Y130289D01*
X-10299Y130207D01*
X-10332Y130124D01*
X-10360Y130039D01*
X-10385Y129954D01*
X-10407Y129867D01*
X-10424Y129779D01*
X-10437Y129691D01*
X-10447Y129602D01*
X-10453Y129513D01*
X-10455Y129424D01*
X-10453Y129335D01*
X-10447Y129246D01*
X-10437Y129157D01*
X-10424Y129069D01*
X-10407Y128981D01*
X-10385Y128894D01*
X-10360Y128809D01*
X-10332Y128724D01*
X-10299Y128641D01*
X-10263Y128559D01*
X-10224Y128479D01*
X-10181Y128401D01*
X-10135Y128325D01*
X-10085Y128250D01*
X-10032Y128178D01*
X-9976Y128109D01*
X-9917Y128042D01*
X-9856Y127977D01*
X-9791Y127916D01*
X-9724Y127857D01*
X-9655Y127801D01*
X-9583Y127748D01*
X-9508Y127698D01*
X-9432Y127652D01*
X-9354Y127609D01*
X-9274Y127570D01*
X-9192Y127534D01*
X-9109Y127501D01*
X-9024Y127473D01*
X-8939Y127448D01*
X-8852Y127426D01*
X-8764Y127409D01*
X-8676Y127396D01*
X-8587Y127386D01*
X-8498Y127380D01*
X-8409Y127378D01*
X-6363Y127378D01*
X-8818Y127378D02*
X-10455Y124104D01*
X-15264Y127378D02*
X-17719Y127378D01*
X-15264Y127378D02*
X-15186Y127380D01*
X-15108Y127385D01*
X-15031Y127395D01*
X-14954Y127408D01*
X-14878Y127424D01*
X-14803Y127444D01*
X-14729Y127468D01*
X-14656Y127495D01*
X-14584Y127526D01*
X-14514Y127560D01*
X-14445Y127597D01*
X-14379Y127638D01*
X-14314Y127682D01*
X-14252Y127728D01*
X-14192Y127778D01*
X-14134Y127830D01*
X-14079Y127885D01*
X-14027Y127943D01*
X-13977Y128003D01*
X-13931Y128065D01*
X-13887Y128130D01*
X-13846Y128197D01*
X-13809Y128265D01*
X-13775Y128335D01*
X-13744Y128407D01*
X-13717Y128480D01*
X-13693Y128554D01*
X-13673Y128629D01*
X-13657Y128705D01*
X-13644Y128782D01*
X-13634Y128859D01*
X-13629Y128937D01*
X-13627Y129015D01*
X-13627Y129424D01*
X-13629Y129513D01*
X-13635Y129602D01*
X-13645Y129691D01*
X-13658Y129779D01*
X-13675Y129867D01*
X-13697Y129954D01*
X-13722Y130039D01*
X-13750Y130124D01*
X-13783Y130207D01*
X-13819Y130289D01*
X-13858Y130369D01*
X-13901Y130447D01*
X-13947Y130523D01*
X-13997Y130598D01*
X-14050Y130670D01*
X-14106Y130739D01*
X-14165Y130806D01*
X-14226Y130871D01*
X-14291Y130932D01*
X-14358Y130991D01*
X-14427Y131047D01*
X-14499Y131100D01*
X-14574Y131150D01*
X-14650Y131196D01*
X-14728Y131239D01*
X-14808Y131278D01*
X-14890Y131314D01*
X-14973Y131347D01*
X-15058Y131375D01*
X-15143Y131400D01*
X-15230Y131422D01*
X-15318Y131439D01*
X-15406Y131452D01*
X-15495Y131462D01*
X-15584Y131468D01*
X-15673Y131470D01*
X-15762Y131468D01*
X-15851Y131462D01*
X-15940Y131452D01*
X-16028Y131439D01*
X-16116Y131422D01*
X-16203Y131400D01*
X-16288Y131375D01*
X-16373Y131347D01*
X-16456Y131314D01*
X-16538Y131278D01*
X-16618Y131239D01*
X-16696Y131196D01*
X-16772Y131150D01*
X-16847Y131100D01*
X-16919Y131047D01*
X-16988Y130991D01*
X-17055Y130932D01*
X-17120Y130871D01*
X-17181Y130806D01*
X-17240Y130739D01*
X-17296Y130670D01*
X-17349Y130598D01*
X-17399Y130523D01*
X-17445Y130447D01*
X-17488Y130369D01*
X-17527Y130289D01*
X-17563Y130207D01*
X-17596Y130124D01*
X-17624Y130039D01*
X-17649Y129954D01*
X-17671Y129867D01*
X-17688Y129779D01*
X-17701Y129691D01*
X-17711Y129602D01*
X-17717Y129513D01*
X-17719Y129424D01*
X-17719Y127378D01*
X-17717Y127266D01*
X-17711Y127155D01*
X-17702Y127043D01*
X-17689Y126932D01*
X-17671Y126822D01*
X-17651Y126712D01*
X-17626Y126603D01*
X-17598Y126495D01*
X-17566Y126388D01*
X-17530Y126282D01*
X-17491Y126177D01*
X-17448Y126074D01*
X-17402Y125972D01*
X-17352Y125872D01*
X-17299Y125773D01*
X-17242Y125677D01*
X-17183Y125582D01*
X-17120Y125490D01*
X-17054Y125400D01*
X-16985Y125312D01*
X-16913Y125226D01*
X-16838Y125143D01*
X-16760Y125063D01*
X-16680Y124985D01*
X-16597Y124910D01*
X-16511Y124838D01*
X-16423Y124769D01*
X-16333Y124703D01*
X-16241Y124640D01*
X-16146Y124581D01*
X-16050Y124524D01*
X-15951Y124471D01*
X-15851Y124421D01*
X-15749Y124375D01*
X-15646Y124332D01*
X-15541Y124293D01*
X-15435Y124257D01*
X-15328Y124225D01*
X-15220Y124197D01*
X-15111Y124172D01*
X-15001Y124152D01*
X-14891Y124134D01*
X-14780Y124121D01*
X-14668Y124112D01*
X-14557Y124106D01*
X-14445Y124104D01*
D12*
X17336Y139700D02*
X23686Y139700D01*
D13*
X20625Y131470D02*
X20625Y124104D01*
X20625Y131470D02*
X18579Y131470D01*
X18490Y131468D01*
X18401Y131462D01*
X18312Y131452D01*
X18224Y131439D01*
X18136Y131422D01*
X18049Y131400D01*
X17964Y131375D01*
X17879Y131347D01*
X17796Y131314D01*
X17714Y131278D01*
X17634Y131239D01*
X17556Y131196D01*
X17480Y131150D01*
X17405Y131100D01*
X17333Y131047D01*
X17264Y130991D01*
X17197Y130932D01*
X17132Y130871D01*
X17071Y130806D01*
X17012Y130739D01*
X16956Y130670D01*
X16903Y130598D01*
X16853Y130523D01*
X16807Y130447D01*
X16764Y130369D01*
X16725Y130289D01*
X16689Y130207D01*
X16656Y130124D01*
X16628Y130039D01*
X16603Y129954D01*
X16581Y129867D01*
X16564Y129779D01*
X16551Y129691D01*
X16541Y129602D01*
X16535Y129513D01*
X16533Y129424D01*
X16535Y129335D01*
X16541Y129246D01*
X16551Y129157D01*
X16564Y129069D01*
X16581Y128981D01*
X16603Y128894D01*
X16628Y128809D01*
X16656Y128724D01*
X16689Y128641D01*
X16725Y128559D01*
X16764Y128479D01*
X16807Y128401D01*
X16853Y128325D01*
X16903Y128250D01*
X16956Y128178D01*
X17012Y128109D01*
X17071Y128042D01*
X17132Y127977D01*
X17197Y127916D01*
X17264Y127857D01*
X17333Y127801D01*
X17405Y127748D01*
X17480Y127698D01*
X17556Y127652D01*
X17634Y127609D01*
X17714Y127570D01*
X17796Y127534D01*
X17879Y127501D01*
X17964Y127473D01*
X18049Y127448D01*
X18136Y127426D01*
X18224Y127409D01*
X18312Y127396D01*
X18401Y127386D01*
X18490Y127380D01*
X18579Y127378D01*
X20625Y127378D01*
X18170Y127378D02*
X16533Y124104D01*
X13361Y129833D02*
X11315Y131470D01*
X11315Y124104D01*
X13361Y124104D02*
X9269Y124104D01*
X6046Y129833D02*
X3999Y131470D01*
X3999Y124104D01*
X1953Y124104D02*
X6046Y124104D01*
D12*
X114300Y176086D02*
X114300Y182690D01*
D13*
X122619Y175105D02*
X122619Y173468D01*
X122618Y173468D02*
X122620Y173390D01*
X122625Y173312D01*
X122635Y173235D01*
X122648Y173158D01*
X122664Y173082D01*
X122684Y173007D01*
X122708Y172933D01*
X122735Y172860D01*
X122766Y172788D01*
X122800Y172718D01*
X122837Y172650D01*
X122878Y172583D01*
X122922Y172518D01*
X122968Y172456D01*
X123018Y172396D01*
X123070Y172338D01*
X123125Y172283D01*
X123183Y172231D01*
X123243Y172181D01*
X123305Y172135D01*
X123370Y172091D01*
X123437Y172050D01*
X123505Y172013D01*
X123575Y171979D01*
X123647Y171948D01*
X123720Y171921D01*
X123794Y171897D01*
X123869Y171877D01*
X123945Y171861D01*
X124022Y171848D01*
X124099Y171838D01*
X124177Y171833D01*
X124255Y171831D01*
X128348Y171831D01*
X128426Y171833D01*
X128504Y171838D01*
X128581Y171848D01*
X128658Y171861D01*
X128734Y171877D01*
X128809Y171897D01*
X128883Y171921D01*
X128956Y171948D01*
X129028Y171979D01*
X129098Y172013D01*
X129167Y172050D01*
X129233Y172091D01*
X129298Y172135D01*
X129360Y172181D01*
X129420Y172231D01*
X129478Y172283D01*
X129533Y172338D01*
X129585Y172396D01*
X129635Y172456D01*
X129681Y172518D01*
X129725Y172583D01*
X129766Y172650D01*
X129803Y172718D01*
X129837Y172788D01*
X129868Y172860D01*
X129895Y172933D01*
X129919Y173007D01*
X129939Y173082D01*
X129955Y173158D01*
X129968Y173235D01*
X129978Y173312D01*
X129983Y173390D01*
X129985Y173468D01*
X129985Y175105D01*
X128348Y177950D02*
X129985Y179996D01*
X122619Y179996D01*
X122619Y177950D02*
X122619Y182042D01*
M02*
